<?xml version="1.0" encoding="UTF-8"?>
<svg id="id" xmlns="http://www.w3.org/2000/svg" viewBox="0 0 270.93 270.93">
  <defs>
    <style>
      .cls-1 {
        fill: currentColor;
      }
    </style>
  </defs>
  <g id="Bouwstenen">
    <g id="X">
      <path class="cls-1" d="M169.25,135.47l96.73-96.73c7.66-7.66,6.3-21.42-3.03-30.75-9.33-9.33-23.09-10.68-30.75-3.03l-96.73,96.73L38.74,4.96C31.08-2.69,17.32-1.34,7.99,7.99-1.34,17.32-2.69,31.08,4.96,38.74l96.73,96.73L4.96,232.2c-7.66,7.66-6.3,21.42,3.03,30.75,9.33,9.33,23.09,10.68,30.75,3.03l96.73-96.73,96.73,96.73c7.66,7.66,21.42,6.3,30.75-3.03s10.68-23.09,3.03-30.75l-96.73-96.73Z"/>
    </g>
  </g>
</svg>