<?xml version="1.0" encoding="UTF-8"?>
<svg id="id" xmlns="http://www.w3.org/2000/svg" viewBox="0 0 353.18 270.57">
  <defs>
    <style>
      .cls-1 {
        fill: currentColor;
      }
    </style>
  </defs>
  <g id="Bouwstenen">
    <g id="hamburger_menu">
      <g>
        <path class="cls-1" d="M333.98,158.68H19.2c-10.6,0-19.2-10.47-19.2-23.4s8.6-23.4,19.2-23.4h314.78c10.6,0,19.2,10.47,19.2,23.4s-8.6,23.4-19.2,23.4Z"/>
        <path class="cls-1" d="M333.98,46.79H19.2C8.6,46.79,0,36.32,0,23.4S8.6,0,19.2,0h314.78c10.6,0,19.2,10.47,19.2,23.4s-8.6,23.4-19.2,23.4Z"/>
        <path class="cls-1" d="M333.98,270.57H19.2c-10.6,0-19.2-10.47-19.2-23.4s8.6-23.4,19.2-23.4h314.78c10.6,0,19.2,10.47,19.2,23.4s-8.6,23.4-19.2,23.4Z"/>
      </g>
    </g>
  </g>
</svg>