<?xml version="1.0" encoding="UTF-8"?>
<svg id="Layer_2" xmlns="http://www.w3.org/2000/svg" viewBox="0 0 72.25 73.18">
  <defs>
    <style>
      .cls-1, .cls-2, .cls-3 {
        fill: #ed1c24;
      }

      .cls-2 {
        stroke-width: .39px;
      }

      .cls-2, .cls-3 {
        stroke: #ed1c24;
        stroke-linecap: round;
        stroke-miterlimit: 10;
      }

      .cls-3 {
        stroke-width: .38px;
      }
    </style>
  </defs>
  <g id="diertjes">
    <g id="hamster">
      <path class="cls-1" d="M14.77,33c-3.82,4.62-5.63,10.84-3.4,16.61,1.93,5.01,6.64,8.63,12.11,8.54,3.06-.05,5.77-1.21,8.39-2.69.91-.52,1.83-1,2.9-1.05,1.35-.06,2.73.4,3.98.85,1.68.59,3.28,1.45,5.04,1.81,1.39.29,2.83.3,4.23.1,2.88-.41,5.56-1.8,7.73-3.71,2.44-2.15,4.32-5.05,5.03-8.24.81-3.64-.07-7.23-2.03-10.35-.22-.36-1.64.97-1.29,1.53,3.23,5.14,2.9,11.78-1.74,15.97-2.05,1.85-4.73,3.06-7.49,3.29-3.1.26-5.57-1.01-8.41-2.01-2.02-.72-4.06-1.22-6.1-.34-2.42,1.05-4.46,2.53-7.12,3.03-5.02.93-9.98-1.42-12.67-5.72-3.37-5.39-2.54-12.28,1.45-17.09.75-.9.15-1.43-.61-.51h0Z"/>
      <path class="cls-1" d="M25.25,11.1c-2.08-2.26-4.03-4.62-6.03-6.94-1.18-1.36-2.79-2.77-4.71-2.76-1.5,0-2.77.95-3.63,2.12-1.28,1.73-1.28,3.69-1.84,5.68-.37,1.31-.89,2.38-2.14,2.99-1.09.53-2.05.96-2.89,1.89-1.05,1.17-1.75,2.68-1.56,4.28.29,2.5,2.53,4.68,4.31,6.28.93.84,1.95,1.67,3.07,2.25.56.29,1.71-1.31,1.29-1.53-2.42-1.26-4.62-3.48-6.17-5.69-.97-1.39-1.75-3.62-.36-5.03.62-.63,1.54-.81,2.28-1.24,2.65-1.54,3.51-4.45,3.99-7.29.26-1.58.85-3.11,2.68-3.09s3.29,1.4,4.39,2.68c2.01,2.32,3.95,4.69,6.03,6.94.35.38,1.7-1.08,1.29-1.53h0Z"/>
      <path class="cls-1" d="M52.6,12.71c1.82-2.59,11.6-12.23,13.26-5.29.51,2.13-.27,5.87,2.13,7.06,2.02,1,3.39,3.41,2.77,5.7-.38,1.42-1.6,2.31-2.67,3.22-.78.67-1.58,1.32-2.42,1.92-1.19.84-2.43,1.45-3.87,1.69-.52.09-1.55,1.71-.8,1.58,1.42-.24,2.7-.83,3.9-1.62,1.88-1.23,3.77-2.75,5.32-4.38,2.37-2.5,3-6.61.13-9.05-.58-.5-1.41-.6-1.91-1.21-1.17-1.46-.76-3.93-1.05-5.65-.22-1.34-.75-2.89-2.2-3.31-1.37-.4-2.94.31-4.12.94-1.99,1.06-3.76,2.57-5.42,4.07-1.42,1.29-2.86,2.66-3.97,4.24-.15.21-.43.72-.07.85.34.13.87-.57,1-.76h0Z"/>
      <path class="cls-1" d="M54.72,9.74c-2.63-3.82-6.36-6.91-10.74-8.51-4.67-1.7-9.75-1.41-14.27.61-3.2,1.43-6,3.62-8.43,6.11-.1.1-.38.4-.29.56s.33-.02.41-.11c3.96-4.05,9.04-7.21,14.83-7.48,4.6-.22,9.08,1.39,12.71,4.16,1.99,1.52,3.71,3.36,5.13,5.42.13.18.83-.5.64-.77h0Z"/>
      <path class="cls-1" d="M6.59,23.64c-3.09,5.21-5.1,11.08-5.99,17.07-.74,5.01-.73,10.27,1.05,15.07,1.3,3.52,3.48,6.66,6.32,9.11,3.4,2.94,7.58,4.84,11.87,6.07,5.81,1.65,11.88,2.1,17.89,2.13,5.01.03,10.14-.22,14.99-1.56,3.35-.92,6.54-2.46,9.1-4.85,2.39-2.24,4.09-5.08,5.36-8.08,3.95-9.29,5.4-21.1-.58-29.89-.57-.84-1.22-1.63-1.93-2.35-.19-.19-.86.55-.64.77,3.32,3.34,5.03,8.06,5.63,12.65.74,5.68-.27,11.37-2.18,16.73-1.07,3.01-2.44,6-4.54,8.44s-4.87,4.12-7.88,5.19c-4.3,1.53-8.95,1.97-13.48,2.11-5.94.18-11.97-.07-17.81-1.27-8.18-1.69-16.34-5.64-20.31-13.37-2.05-3.99-2.74-8.43-2.57-12.88.23-5.89,1.7-11.79,4.15-17.15.61-1.33,1.28-2.63,2.03-3.89.35-.58-.24-.42-.47-.04h0Z"/>
      <path class="cls-1" d="M31.91,50.88c1.01.56,2.1,1.13,3.29,1.15,1.67.03,3.12-.96,4.29-2.06.24-.22.71-.76.58-1.12s-.69.1-.83.22c-.88.83-1.95,1.43-3.2,1.34-1.03-.08-1.96-.56-2.85-1.06-.55-.3-1.71,1.29-1.29,1.53h0Z"/>
      <path class="cls-1" d="M35.35,46.53v5.21c0,.42.43.25.65.08.31-.24.77-.71.77-1.14v-5.21c0-.42-.43-.25-.65-.08-.31.24-.77.71-.77,1.14h0Z"/>
      <path class="cls-1" d="M26.21,29.91c.06.63.02,1.29-.17,1.89-.07.23-.17.4-.21.49-.07.14-.04-.01,0,0,.06.02-.26.14,0,0-.02,0-.16.12,0,0-.12.08.02,0-.06.04-.82.39-1.73-.46-2.14-1.18-.62-1.1-.83-2.52-.54-3.75.06-.24.14-.48.24-.67.07-.14-.06.1.02-.04.01-.03.12-.19.05-.08-.08.12.05-.14,0,0-.03.09.09-.06-.03.03.07-.05.03-.04.07-.05.1-.03.2-.07.3-.08.19-.02.42.02.6.09,1.24.48,1.73,2.11,1.86,3.3.05.4.73-.13.83-.22.29-.27.62-.7.58-1.12-.15-1.36-.79-3.13-2.23-3.58-1.58-.5-2.95,1.34-3.44,2.59-.6,1.53-.5,3.47.31,4.92.65,1.16,1.83,1.98,3.13,1.24,1.78-1.02,2.41-3.25,2.24-5.17-.04-.4-.74.13-.83.22-.29.28-.62.69-.58,1.12Z"/>
      <path class="cls-2" d="M26.53,31.04c0,1.21-.68,2.19-1.53,2.19s-1.53-.98-1.53-2.19.68-2.19,1.53-2.19,1.53.98,1.53,2.19Z"/>
      <ellipse class="cls-3" cx="50.65" cy="30.85" rx="2.15" ry="1.55" transform="translate(13.48 77.07) rotate(-82.54)"/>
      <path class="cls-1" d="M52.65,30.46c-.12.56-.33,1.11-.63,1.52.12-.17-.2.22-.04.05-.04.04-.09.09-.13.13.11-.1,0,0-.02.02-.1.07-.26.16-.47.2-1.02.19-1.62-.88-1.82-1.71-.28-1.14-.08-2.6.51-3.52.04-.06.08-.12.12-.17-.03.04-.1.13.02-.03.02-.03.13-.15.01-.02.04-.04.09-.09.13-.13-.14.13.17-.11.06-.05.08-.05.19-.1.24-.12.39-.14.81-.06,1.15.19,1.08.79,1.09,2.47.87,3.65-.09.45.48.2.65.08.36-.27.68-.69.77-1.14.25-1.32.2-3.32-1.07-4.16-1.39-.92-2.94.5-3.72,1.56-1.02,1.4-1.53,3.28-1.2,5,.24,1.24,1.13,2.51,2.55,2.14.85-.22,1.58-.9,2.1-1.58.68-.88,1.11-1.88,1.34-2.97.09-.45-.49-.2-.65-.08-.37.27-.67.69-.77,1.14Z"/>
      <g>
        <path class="cls-1" d="M37.4,45.37l1.41-1.91c.84-1.01.8-2.7-.68-2.9-.98-.13-3-.09-3.97.06-1.46.22-2.04,1.56-1.25,2.61l1.61,2.07c.36.49.96.72,1.55.7.51-.02,1.01-.23,1.34-.63Z"/>
        <path class="cls-1" d="M37.87,45.42c.28-.37.55-.75.83-1.12l.48-.65s.07-.09.1-.13c-.28.37.05-.06.11-.14.09-.13.17-.27.25-.41.38-.68.64-1.64.27-2.37s-1.2-.86-1.98-.9c-.93-.04-1.86-.02-2.79.07-.48.05-.93.11-1.37.32-.57.27-1.04.73-1.4,1.24-.56.8-.73,1.78-.15,2.61.26.37.55.72.83,1.07.34.44.67.99,1.1,1.35s1.05.5,1.63.43c.79-.09,1.43-.57,1.94-1.16.16-.18.6-.78.34-1.02s-.82.36-.95.51c.03-.04.08-.06.1-.1,0,0-.11.06-.06.04.03-.01-.13.05-.15.06-.21.07-.43.09-.65.07-.43-.04-.81-.23-1.1-.55-.25-.28-.46-.59-.69-.89l-.91-1.17c-.11-.14-.2-.27-.26-.43-.05-.13-.1-.29-.11-.42,0-.05,0-.13,0-.19,0-.04.01-.08.02-.13-.02.07,0,.04.01-.01.03-.13.01-.02,0,.02.03-.05.1-.13-.03.04,0,0-.14.17-.06.08.09-.1-.15.14-.04.05.08-.07-.05.04-.05.04.03-.02.13-.09,0,0,.04-.02.21-.11.18-.09.33-.13.67-.15,1-.18.8-.07,1.61-.08,2.41-.05.61.02,1.4,0,1.77.58.13.2.19.5.19.7,0,.07,0,.15-.02.22,0,.04-.01.08-.02.13,0-.01.02-.09,0-.01s-.05.15-.07.22c.08-.24-.11.22-.03.06.06-.11,0,0,0,.01-.09.19.1-.12.02-.02-.06.08-.13.17-.19.25-.04.05-.08.1-.11.15l-.48.65c-.27.36-.54.73-.81,1.09-.12.17-.45.78-.07.85s.83-.52,1-.76Z"/>
      </g>
      <path class="cls-1" d="M21.18,25.49c.21-.46.48-.92.76-1.29.03-.04.13-.17.19-.24.08-.09.16-.18.24-.27.02-.02.04-.05.07-.07,0,0-.05.05,0,0s.08-.08.12-.12c.08-.08.16-.15.24-.23.07-.07.14-.13.22-.19.04-.04,0,0-.01,0,.02-.02.04-.04.07-.05.04-.03.07-.06.11-.09.14-.11.28-.22.43-.32.06-.04.12-.08.18-.12.07-.04-.05.03.02-.01.03-.02.07-.04.1-.06.1-.06.2-.12.3-.17s.2-.11.3-.15c.2-.09.39-.34.45-.54.06-.19-.04-.26-.22-.18-.36.16-.7.38-1.03.6-.76.52-1.45,1.17-2.02,1.9-.43.55-.79,1.14-1.08,1.77-.05.12-.12.36.09.31.2-.04.41-.3.49-.48h0Z"/>
      <path class="cls-1" d="M56.13,26.4c-.74-1.47-1.92-2.75-3.37-3.54-.1-.05-.2-.11-.31-.15-.3-.13-.84.68-.64.77.3.13.58.3.85.48.67.45,1.27.99,1.78,1.61.39.47.72.97.99,1.51.09.17.33-.03.41-.11.1-.09.37-.4.29-.56h0Z"/>
    </g>
  </g>
</svg>