<?xml version="1.0" encoding="UTF-8"?>
<svg id="Layer_2" xmlns="http://www.w3.org/2000/svg" viewBox="0 0 99.71 74.14">
  <defs>
    <style>
      .cls-1 {
        fill: #ed1c24;
      }
    </style>
  </defs>
  <g id="diertjes">
    <g id="hond_x5F_groot">
      <g>
        <path class="cls-1" d="M24.07,48.04c-1.37,2.26-4.26,7.19-7.64,5.38-1.68-.9-2.7-2.94-3.17-4.71s-.56-3.45-1.63-5.09c-2.57-3.95-7.09-6.3-9.32-10.48-.92-1.73-1.29-3.72-.47-5.57.98-2.22,3.17-3.63,5.03-5.05,3.5-2.67,6.79-5.54,9.68-8.87,3.05-3.52,5.71-8.06,10.49-9.38,2.33-.65,4.78-.29,6.97.68.45.2,1.14.79,1.64.83.33.02.71-.31.99-.45.95-.49,1.93-.92,2.94-1.29,4.66-1.75,9.74-2.59,14.71-2.33,4.29.22,8.89,1.29,11.97,4.47.08.05.16.06.24.03,4.65-1.41,9.34-1.28,13.25,1.88,3.4,2.75,5.5,6.77,8.62,9.82,1.57,1.54,3.32,2.87,5.07,4.2,1.59,1.21,3.26,2.47,4.17,4.31,1.73,3.54.04,7.97-.85,11.51-.74,2.92-1.71,5.48-3.43,7.97-.82,1.19-1.69,2.44-2.66,3.51,0,0,.03-.01-.15.14.02-.02-.31.23-.41.31-1.8,1.28-4.02,2.18-6.18,2.58s-4.8.13-5.84-2.16c-1.59-3.53.12-8.22,1.7-11.42.82-1.67,1.62-3.35,1.69-5.25.1-2.94-1.17-5.76-2.15-8.47-1.22-3.38-2.45-6.75-3.74-10.11-.21-.54-1.61.8-1.4,1.34,1.73,4.51,3.46,9.04,5,13.62.93,2.77,1.22,5.37-.03,8.07-1.15,2.46-2.27,4.79-2.75,7.49-.59,3.33-.47,7.95,3.7,8.59,2.97.46,6.28-.89,8.79-2.38,1.35-.8,2.27-1.7,3.24-2.93,2.2-2.81,4.31-5.8,5.35-9.26.87-2.91,1.68-5.98,2.11-8.99.3-2.12.21-4.26-.92-6.13-1.45-2.4-4.01-3.88-6.15-5.59-1.9-1.52-3.62-3.16-5.17-5.04-2-2.42-3.73-5.14-6.17-7.16-2.15-1.77-4.75-2.86-7.55-2.98-1.49-.06-2.98.12-4.43.44-.82.18-1.43.58-2.12.06-.51-.39-.97-.82-1.5-1.18-2.2-1.46-4.82-2.23-7.41-2.62-5.95-.9-12.33,0-17.93,2.14-1.3.5-2.57,1.07-3.79,1.73l.4-.04c-3.25-1.83-6.86-2.51-10.38-1.02s-6.03,4.39-8.32,7.29-4.92,5.77-7.85,8.22-6.44,4.44-8.66,7.59c-1.83,2.58-2.18,5.54-.62,8.35,2.01,3.63,5.67,5.94,8.29,9.09,1.23,1.48,1.99,2.97,2.3,4.87.24,1.48.65,2.84,1.43,4.13.98,1.61,2.52,2.99,4.53,2.63,3.4-.61,5.85-4.53,7.47-7.21.7-1.16-.48-.84-.93-.09h0Z"/>
        <path class="cls-1" d="M34.32,58.99c-2.64-2.02-5.24-4.25-7.13-7.02-1.29-1.89-2.09-4.01-2.47-6.25s-.51-4.66-.61-6.97c-.16-3.4-.03-6.83.36-10.21.49-4.28,1.41-8.52,2.97-12.54.08-.21-.06-.22-.22-.18-.2.05-.39.36-.45.54-2.66,6.87-3.61,14.44-3.41,21.77.06,2.47.22,4.99.54,7.44.29,2.2.92,4.31,2.05,6.22,1.9,3.21,4.8,5.73,7.73,7.97.23.18.86-.6.64-.77h0Z"/>
        <path class="cls-1" d="M44.02,29.63c0,1.18-.13,2.37-.49,3.5-.18.58-.43,1.42-.98,1.76-1.46.93-2.73-1.4-3.1-2.43-.8-2.18-.88-4.77-.27-7.01.33-1.21,1.04-3.03,2.59-2.04,1.87,1.19,2.23,4.23,2.25,6.21,0,.76,1.42-.52,1.42-1.06-.01-1.47-.19-2.97-.73-4.35-.36-.91-.91-1.95-1.81-2.43-2.06-1.1-3.91,1.48-4.61,3.1-1.12,2.61-1.23,5.84-.37,8.55.54,1.71,1.95,4.01,4.05,2.96,2.68-1.35,3.45-5.13,3.47-7.83,0-.43-.43-.23-.65-.08-.31.22-.77.72-.77,1.14Z"/>
        <path class="cls-1" d="M65.36,30.54c-.16,1.16-.44,2.32-.96,3.38-.28.57-.65,1.25-1.28,1.49-1.64.62-2.53-1.66-2.8-2.85-.51-2.26-.24-4.85.68-6.96.52-1.19,1.6-2.67,2.97-1.52.71.6,1.05,1.55,1.25,2.42.31,1.32.3,2.69.14,4.03-.05.45.46.21.65.08.35-.25.72-.7.77-1.14.18-1.46.18-2.97-.18-4.4-.24-.95-.66-2.05-1.49-2.64-1.94-1.38-4.01,1.15-4.86,2.64-1.41,2.48-1.91,5.65-1.41,8.45.31,1.71,1.42,4.24,3.59,3.42,1.21-.45,2.12-1.58,2.76-2.65.88-1.47,1.36-3.13,1.59-4.82.06-.45-.47-.2-.65-.08-.35.25-.71.7-.77,1.14Z"/>
        <path class="cls-1" d="M35.36,20.62c.51-1.31,1.37-2.43,2.66-3.03.88-.41,1.91-.55,2.86-.37.28.05.82-.75.54-.81-1.15-.22-2.37.03-3.39.57-1.59.84-2.69,2.35-3.34,4-.07.19.06.26.22.18.21-.1.37-.33.45-.54h0Z"/>
        <path class="cls-1" d="M63.21,17.18c2.26-.23,4.79.68,5.96,2.74.16.28.84-.43.7-.67-1.21-2.12-3.76-3.12-6.12-2.88-.21.02-.39.21-.5.38-.03.05-.23.45-.04.43h0Z"/>
        <path class="cls-1" d="M61.68,40.33c4.33,5.1,6.71,12.16,7.58,18.73.48,3.66,1.17,11.94-4.53,11.36-4.36-.45-8.33-4.14-11.38-6.96-.4-.37-1.72,1.13-1.29,1.53,4.03,3.72,12.76,11.21,17.23,3.99,1.54-2.48,1.75-5.62,1.61-8.46-.18-3.71-.98-7.39-2.17-10.9-1.31-3.86-3.12-7.69-5.77-10.82-.32-.38-1.69,1.05-1.29,1.53h0Z"/>
        <path class="cls-1" d="M52,61.29v3.47l.77-1.14c-3.59,3.04-12.8,10.42-16.67,3.76-1.32-2.27-1.48-5.15-1.36-7.7.16-3.39.92-6.75,2.06-9.94,1.23-3.46,2.94-6.84,5.45-9.55.15-.16.62-.82.34-1.02-.3-.22-.79.34-.95.51-2.68,2.9-4.58,6.49-5.95,10.17s-2.33,7.76-2.39,11.77c-.04,2.85.29,6.28,2.37,8.44,2.2,2.28,5.57,1.69,8.21.59s5.21-2.9,7.52-4.75c.97-.78,2.03-1.4,2.03-2.73v-2.92c0-.75-1.42.52-1.42,1.06h0Z"/>
        <path class="cls-1" d="M70.03,59.45c2.01-.4,3.74-1.84,5.11-3.29,1.24-1.31,2.41-2.82,3.11-4.49.08-.19-.06-.25-.22-.18-.21.1-.37.34-.45.54-.58,1.39-1.61,2.67-2.64,3.76-1.22,1.29-2.72,2.52-4.51,2.87-.26.05-.77.86-.4.79h0Z"/>
        <path class="cls-1" d="M43.6,70.36c1.93,1.65,4.1,3.2,6.67,3.59,3.69.56,6.95-1.64,9.39-4.19.09-.1.38-.4.29-.56s-.33.02-.41.11c-2.4,2.51-5.53,4.49-9.12,3.77-2.37-.48-4.37-1.94-6.17-3.48-.21-.18-.86.58-.64.77h0Z"/>
        <g>
          <path class="cls-1" d="M55.35,59.33l2.02-3.82c1.35-2.07,1.09-5.4-1.5-5.64-1.72-.16-5.21.14-6.89.54-2.5.59-3.37,3.28-1.89,5.27l3.24,3.82c1.27,1.71,3.87,1.63,5.03-.16Z"/>
          <path class="cls-1" d="M55.94,59.16c.41-.78.83-1.57,1.24-2.35l.67-1.26c.03-.06.19-.34.05-.1.22-.38.42-.75.58-1.16.5-1.28.63-2.9-.14-4.1-.83-1.29-2.42-1.21-3.78-1.17-1.67.05-3.4.19-5.03.55s-3.18,1.73-3.7,3.41c-.38,1.24-.12,2.56.71,3.56.66.8,1.34,1.58,2.01,2.37s1.37,1.87,2.34,2.3c1.9.85,3.84-.26,4.92-1.86.13-.19.45-.75.07-.85-.35-.1-.85.54-1,.76-.68.99-2.43.69-3.26.09-.59-.43-1.07-1.14-1.54-1.69l-1.96-2.31c-.58-.68-1.05-1.42-1.05-2.35,0-.29.04-.59.14-.87.07-.18.16-.34.2-.38.41-.43,1.03-.56,1.58-.67,1.47-.29,2.99-.42,4.49-.46,1.18-.04,2.62-.17,3.43.88.72.93.67,2.34.27,3.38-.3.79-.82,1.57-1.22,2.33s-.8,1.51-1.2,2.27c-.13.25-.23.69.19.63s.81-.63.99-.96Z"/>
        </g>
        <g>
          <ellipse class="cls-1" cx="62.19" cy="31.96" rx="2.59" ry="4.25"/>
          <path class="cls-1" d="M64.07,32.49c0,.73-.1,1.48-.39,2.16-.05.11-.11.23-.17.33.05-.09-.19.27-.08.12-.02.02-.14.14-.02.03-.01.01-.14.12-.03.04-.1.08-.12.1-.2.14-1.04.45-1.97-.62-2.36-1.46-.6-1.31-.69-2.92-.23-4.28.07-.22.2-.5.29-.64.01-.02.13-.2.07-.11-.06.1.1-.13.03-.03s.11-.09.03-.03c-.07.05.11-.08.13-.1-.06.03.11-.04.14-.06.09-.03.19-.06.29-.06.25-.02.51.03.74.14,1.33.64,1.75,2.5,1.76,3.83,0,.43.43.24.65.08.3-.22.77-.72.77-1.14-.02-1.5-.43-3.63-1.98-4.33-1.65-.75-3.18.96-3.87,2.27-.87,1.67-1.01,3.85-.31,5.6.53,1.32,1.72,2.5,3.22,1.85,2-.86,2.92-3.37,2.94-5.39,0-.43-.43-.24-.65-.08-.31.23-.77.72-.77,1.14Z"/>
        </g>
        <g>
          <ellipse class="cls-1" cx="41.76" cy="31" rx="2.59" ry="4.25"/>
          <path class="cls-1" d="M43.64,31.54c0,.73-.1,1.48-.39,2.16-.05.11-.11.23-.17.33.05-.09-.19.27-.08.12-.02.02-.14.14-.02.03-.01.01-.14.12-.03.04-.1.08-.12.1-.2.14-1.04.45-1.97-.62-2.36-1.46-.6-1.31-.69-2.92-.23-4.28.07-.22.2-.5.29-.64.01-.02.13-.2.07-.11-.06.1.1-.13.03-.03s.11-.09.03-.03c-.07.05.11-.08.13-.1-.06.03.11-.04.14-.06.09-.03.19-.06.29-.06.25-.02.51.03.74.14,1.33.64,1.75,2.5,1.76,3.83,0,.43.43.24.65.08.3-.22.77-.72.77-1.14-.02-1.5-.43-3.63-1.98-4.33-1.65-.75-3.18.96-3.87,2.27-.87,1.67-1.01,3.85-.31,5.6.53,1.32,1.72,2.5,3.22,1.85,2-.86,2.92-3.37,2.94-5.39,0-.43-.43-.24-.65-.08-.31.23-.77.72-.77,1.14Z"/>
        </g>
      </g>
    </g>
  </g>
</svg>