<?xml version="1.0" encoding="UTF-8"?>
<svg id="id" xmlns="http://www.w3.org/2000/svg" viewBox="0 0 76.48 74.42">
  <defs>
    <style>
      .cls-1 {
        fill: currentColor;
      }
    </style>
  </defs>
  <g id="diertjes">
    <g id="kat">
      <path class="cls-1" d="M22.55,52.87c-1.31,3.81-2.33,8.01-1.63,12.05.74,4.29,3.8,7.18,7.88,8.44,8.85,2.74,22.26.36,24.5-10.21.85-4-.57-8.24-3.82-10.76-.46-.35-1.73,1.19-1.29,1.53,2.63,2.04,4.1,5.27,3.92,8.6-.2,3.66-2.36,6.62-5.58,8.29-4.73,2.44-11.03,2.48-16.08,1.1-3.79-1.04-6.92-3.49-7.92-7.4s.03-8.49,1.37-12.37c.15-.43-.12-.45-.43-.36-.39.1-.79.73-.91,1.08h0Z"/>
      <path class="cls-1" d="M30.9,13.86c-3.92-3.73-8.7-6.7-13.69-8.78-2.45-1.02-5.03-1.85-7.68-2.16-1.24-.14-2.29,0-3.26.85-2.02,1.78-2.18,4.7-1.98,7.2.29,3.56,1.38,7.12,2.94,10.33,1.4,2.89,3.46,6.36,6.74,7.34.53.16,1.67-1.43,1.08-1.61-2.57-.77-4.38-3.37-5.63-5.58-1.59-2.83-2.72-5.96-3.34-9.15-.28-1.43-.47-2.9-.42-4.37.03-.91.05-2.24.63-3,.5-.67,1.72-.46,2.51-.36,2.46.33,4.86,1.08,7.15,2.04,4.99,2.08,9.77,5.05,13.69,8.78.39.37,1.72-1.12,1.29-1.53h0Z"/>
      <path class="cls-1" d="M49.32,15.08c3.64-3.5,7.39-6.95,11.63-9.72,2.17-1.42,4.51-2.69,7.03-3.36,1.23-.32,2.79-.77,3.88.13,1.88,1.54,1.69,5.02,1.54,7.16-.25,3.52-1.11,7.03-2.4,10.31-1.03,2.62-2.67,6.54-5.65,7.44-.51.15-1.49,1.79-.8,1.58,3.05-.92,5.1-4.11,6.47-6.78,1.83-3.57,3.01-7.55,3.57-11.51.39-2.76.8-6.48-.79-8.96-.6-.94-1.5-1.41-2.61-1.37-2.48.1-4.96,1.19-7.11,2.34-5.64,3-10.43,7.45-15.01,11.84-.62.59-.74,1.85.25.9h0Z"/>
      <path class="cls-1" d="M50.97,12.51c-2.4-1.91-5.85-2.43-8.82-2.65-3.37-.25-6.92-.06-10.18.9-1.35.4-2.7.95-3.75,1.91-.32.29-.38.91.12.45.87-.79,2.06-1.22,3.16-1.55,1.51-.45,3.09-.71,4.66-.85,3.31-.3,6.76-.17,9.99.67,1.48.38,2.96.93,4.16,1.89.22.18.86-.59.64-.77h0Z"/>
      <path class="cls-1" d="M11.15,25.4c-2.36,2.08-4.01,4.89-5.18,7.78-1.37,3.38-2.11,7.03-2.3,10.67-.39,7.46,1.6,15.52,7.27,20.73,3.58,3.29,8.24,4.97,13.03,5.44.29.03.81-.78.54-.81-4.23-.42-8.37-1.76-11.75-4.41-2.92-2.29-5.09-5.39-6.45-8.83-2.67-6.73-2.56-14.62-.29-21.45,1.07-3.2,2.68-6.41,5.26-8.67.33-.29.39-.9-.12-.45h0Z"/>
      <path class="cls-1" d="M68.16,26.13c1.8,2.29,2.74,5.18,3.28,8,.66,3.46.71,7.04.32,10.53-.8,7.17-3.57,14.82-9.34,19.48-3.4,2.74-7.6,4.12-11.94,4.19-.3,0-.78.81-.54.81,4.03-.07,7.95-1.22,11.27-3.53,3.11-2.16,5.55-5.18,7.34-8.49,3.59-6.64,4.87-14.74,3.83-22.19-.47-3.36-1.45-6.86-3.58-9.56-.15-.19-.84.52-.64.77h0Z"/>
      <path class="cls-1" d="M30.79,38.8c.15,1.7-.24,3.99-2.02,4.72s-3.69-.29-4.77-1.74c-1.27-1.71-1.63-4.16-.91-6.16.6-1.67,2.18-2.48,3.91-2.03,2.29.6,3.54,3.03,3.79,5.21.05.4.73-.13.83-.22.29-.27.63-.7.58-1.12-.27-2.38-1.7-4.9-4.19-5.5s-4.78,1.34-5.86,3.44c-1.21,2.36-1.11,5.34.33,7.58,1.29,2,3.68,3.01,5.91,1.95,2.75-1.31,4.05-4.58,3.79-7.46-.04-.4-.74.13-.83.22-.29.28-.62.69-.58,1.12Z"/>
      <g>
        <ellipse class="cls-1" cx="27" cy="40.76" rx="3.02" ry="3.8" transform="translate(-4 2.95) rotate(-5.83)"/>
        <path class="cls-1" d="M29.56,40.88c.1,1.09-.15,2.54-1.29,3.01s-2.35-.18-3.04-1.11c-.81-1.09-1.04-2.65-.58-3.93.38-1.06,1.39-1.58,2.49-1.29,1.46.38,2.26,1.93,2.41,3.32.03.26.47-.08.53-.14.18-.17.4-.45.37-.71-.17-1.52-1.09-3.12-2.67-3.51s-3.05.85-3.73,2.19c-.77,1.51-.71,3.4.21,4.83.82,1.27,2.35,1.92,3.77,1.24,1.75-.83,2.58-2.91,2.42-4.75-.02-.26-.47.08-.53.14-.19.18-.39.44-.37.71Z"/>
      </g>
      <g>
        <ellipse class="cls-1" cx="50.3" cy="40.27" rx="3.8" ry="3.37" transform="translate(3.78 84.84) rotate(-82.46)"/>
        <path class="cls-1" d="M53.16,41.07c-.18,1.24-.93,2.23-2.22,2.43s-2.56-.6-3.14-1.75-.6-2.73.21-3.77c.75-.98,2.2-1.2,3.28-.67,1.4.68,2.05,2.28,1.87,3.77-.04.3.31.14.44.05.23-.17.48-.47.52-.77.19-1.62-.48-3.43-2.05-4.13s-3.26,0-4.34,1.24c-1.15,1.31-1.66,3.24-.99,4.9.6,1.49,2.05,2.45,3.67,2.19,1.99-.32,3.44-2.32,3.71-4.21.04-.3-.32-.14-.44-.05-.24.17-.47.47-.52.77Z"/>
      </g>
      <path class="cls-1" d="M54.58,40.07c-.38,1.77-1.51,3.41-3.43,3.64s-3.57-1.2-4.21-2.94c-.69-1.88-.5-4.32.78-5.91,1.11-1.39,3.13-1.78,4.66-.87,2.06,1.23,2.61,3.87,2.2,6.08-.08.45.48.2.65.08.37-.26.69-.69.77-1.14.44-2.37-.17-5.37-2.46-6.62s-4.68-.03-6.23,1.71c-1.78,2.01-2.65,4.92-1.92,7.55.64,2.29,2.63,4.05,5.1,3.62,2.93-.51,4.93-3.56,5.51-6.27.1-.45-.49-.19-.65-.08-.37.27-.67.69-.77,1.14Z"/>
      <g>
        <path class="cls-1" d="M39.1,60.56l1.77-2.12c1.04-1.12,1.11-3.09-.6-3.42-1.13-.22-3.48-.31-4.63-.2-1.71.16-2.48,1.67-1.63,2.95l1.73,2.52c.39.59,1.07.91,1.76.92.59.01,1.18-.19,1.6-.64Z"/>
        <path class="cls-1" d="M39.4,60.82c.35-.41.69-.83,1.04-1.24.4-.48.84-.95,1.19-1.46.52-.78.93-1.89.57-2.81s-1.27-1.1-2.16-1.2c-1.07-.12-2.17-.16-3.25-.13-.5.02-1.02.04-1.49.23-.62.24-1.15.65-1.57,1.16-.71.87-1.06,2.03-.44,3.05.28.46.6.89.9,1.33.36.52.69,1.14,1.13,1.6,1.11,1.14,2.89.71,3.9-.31.23-.23.71-.75.58-1.12s-.7.09-.83.22c-.07.07-.18.15-.36.2-.26.08-.52.1-.79.07-.5-.06-.96-.28-1.29-.66-.29-.33-.53-.74-.78-1.11l-1-1.45c-.31-.46-.45-.98-.32-1.45-.01.04-.05.06,0,.02.08-.07-.05.06-.06.09-.07.11,0,0,.01-.02-.2.24-.02.01-.02.02,0,.02-.13.08-.03.03.12-.07-.09.05.03-.02.08-.04.16-.08.24-.11.38-.13.78-.14,1.17-.15.95-.03,1.9,0,2.85.1.71.07,1.62.09,2.05.76.16.26.22.59.2.89-.01.19-.03.27-.07.41-.01.04-.02.07-.04.11-.04.12.05-.1,0,.02-.02.04-.03.07-.05.1-.1.23.06-.1-.01.03-.02.03-.11.17-.03.05s-.02.03-.04.05c-.03.03-.06.07-.09.1-.05.06-.09.11-.14.17l-.6.72c-.34.41-.68.81-1.02,1.22-.16.19-.61.78-.34,1.02s.83-.36.95-.51Z"/>
      </g>
      <path class="cls-1" d="M22.15,31.51c.7-1.51,1.81-2.66,3.47-3.03,1.06-.24,2.19-.15,3.24.13.17.05.33.1.5.15.1.04.09.03.14.05.3.13.84-.68.64-.77-2.07-.89-4.66-.68-6.42.76-.94.76-1.64,1.77-2.15,2.87-.06.14-.11.33.09.31.19-.01.42-.32.49-.48h0Z"/>
      <path class="cls-1" d="M57.63,31.68c-.57-1.73-1.66-3.23-3.39-3.91-1.13-.44-2.37-.51-3.57-.33-.25.04-.5.08-.75.16-.21.06-.4.28-.49.48-.05.1-.12.38.09.31,1.91-.58,4.24-.2,5.72,1.17.82.76,1.34,1.74,1.69,2.79.09.26.79-.39.7-.67h0Z"/>
      <path class="cls-1" d="M36.7,61.73c-.03.34-.08.69-.13,1.03-.03.18-.06.35-.09.53s-.07.36-.1.47c-.08.35-.18.7-.29,1.04-.05.17-.11.33-.18.49-.02.04-.03.08-.05.13,0,0,.05-.13.02-.04-.04.09-.08.18-.12.27-.06.13-.14.26-.21.39.13-.24,0,0-.04.05-.02.02-.03.05-.05.07-.1.16,0-.03.04-.05-.04.01-.1.12-.12.15-.13.17.14-.08.01-.02,0,0-.08.07-.08.07,0-.01.19-.15.07-.06-.09.06-.18.1-.03.03-.06.03-.12.06-.17.09-.09.06.11-.02-.04.01-.05.01-.11.03-.16.04-.03,0-.06.01-.1.02.08-.01,0,0-.03,0-.25,0-.51-.04-.75-.13-.93-.38-1.65-1.25-2.24-2.02-.29-.37-1.68,1.03-1.29,1.53.96,1.25,2.51,2.88,4.22,1.95,1.55-.84,2.37-2.68,2.82-4.3.25-.92.42-1.87.52-2.83.04-.44-.46-.22-.65-.08-.34.25-.73.7-.77,1.14h0Z"/>
      <path class="cls-1" d="M36.42,63.7c.15.9.42,1.81.98,2.54.71.92,1.84,1.13,2.93.88s2.08-.85,2.99-1.48c.34-.23.74-.71.77-1.14.03-.45-.45-.21-.65-.08-1.04.71-2.42,1.5-3.71,1.08-.79-.26-1.3-1.05-1.57-1.81-.16-.43-.26-.88-.34-1.33-.07-.4-.72.12-.83.22-.27.27-.65.71-.58,1.12h0Z"/>
      <path class="cls-1" d="M30.91,59.68c-6.07-1.71-12.52-1.97-18.61-.19-3.68,1.08-7.2,2.84-10.2,5.24-.58.46-1.16.94-1.66,1.47-.09.1-.38.4-.29.56s.33-.02.41-.11c1.34-1.42,3.06-2.56,4.75-3.55,4.19-2.43,8.96-3.8,13.8-4.01,3.8-.17,7.6.37,11.26,1.4.27.08.83-.72.54-.81h0Z"/>
      <path class="cls-1" d="M33.22,62.63c-9.91-1.77-19.99,2.81-27.7,8.74-.67.52-1.35,1.05-1.98,1.62-.32.29-.38.91.12.45,1.61-1.47,3.67-2.91,5.61-4.13,4.2-2.65,8.81-4.75,13.69-5.72,3.2-.64,6.49-.73,9.71-.16.28.05.82-.76.54-.81h0Z"/>
      <path class="cls-1" d="M43.27,60.62c5.24-2.53,11.24-2.9,16.96-2.27,4.42.48,8.79,1.55,12.98,3.03.83.29,1.66.6,2.46.95.3.13.85-.68.64-.77-2.37-1.04-4.88-1.82-7.38-2.48-5.21-1.38-10.68-2.16-16.07-1.67-3.24.29-6.42,1.06-9.36,2.48-.23.11-.71.95-.24.72h0Z"/>
      <path class="cls-1" d="M43.18,63.43c5.21-.62,10.53.16,15.58,1.44,3.9.99,7.73,2.3,11.42,3.9.7.3,1.41.61,2.1.95.29.14.85-.66.64-.77-2.02-1-4.14-1.83-6.26-2.6-4.57-1.67-9.31-2.98-14.14-3.59-2.97-.38-5.97-.47-8.94-.12-.26.03-.79.84-.4.79h0Z"/>
    </g>
  </g>
</svg>