<?xml version="1.0" encoding="UTF-8"?>
<svg id="id" xmlns="http://www.w3.org/2000/svg" viewBox="0 0 40.94 116.2">
  <defs>
    <style>
      .cls-1 {
        fill: currentColor;
      }
    </style>
  </defs>
  <g id="diertjes">
    <g id="kip">
      <path class="cls-1" d="M17.57,40.38c-3.75,1.22-7.3,3.08-10.12,5.87-3.48,3.45-5.51,7.96-6.5,12.71-1.15,5.51-1.01,11.17.29,16.64.81,3.39,1.95,6.74,3.24,9.97s3.54,7.56,7.29,8.6c.27.07.83-.72.54-.81-3.37-.94-5.43-4.59-6.75-7.57-1.17-2.66-2.1-5.48-2.92-8.26-1.47-4.97-2.13-10.12-1.58-15.29s2.02-10.27,5.34-14.26c2.8-3.35,6.66-5.48,10.77-6.82.21-.07.41-.28.49-.48.04-.1.13-.39-.09-.31h0Z"/>
      <path class="cls-1" d="M26.98,94.17c3.36-.52,4.81-4.06,5.87-6.87,1.55-4.09,3.07-8.28,4.04-12.55,1.15-5.03,1.31-10.06.3-15.12-.84-4.21-2.18-8.41-4.44-12.08s-5.49-6.64-9.83-7.18c-.29-.04-.81.77-.54.81,7.98.98,11.82,9.83,13.55,16.67.55,2.15.98,4.36,1.17,6.57.22,2.56.07,5.15-.31,7.7-.65,4.24-2.03,8.28-3.46,12.31-.77,2.16-1.44,4.42-2.59,6.42-.77,1.35-1.79,2.28-3.37,2.53-.26.04-.78.85-.4.79h0Z"/>
      <g>
        <path class="cls-1" d="M17.46,78.93l-3.16,4.34c-1.87,2.28-1.91,6.21,1.24,6.77,2.09.37,6.4.4,8.51.11,3.13-.42,4.48-3.48,2.88-5.97l-3.28-4.9c-.74-1.15-2.01-1.74-3.27-1.73-1.09,0-2.17.46-2.92,1.37Z"/>
        <path class="cls-1" d="M16.99,78.88c-.6.82-1.2,1.65-1.8,2.47l-1.11,1.52c-.08.1-.15.21-.23.31-.01.02-.05.07.01-.02.13-.17-.14.18-.14.18-.17.23-.32.46-.47.71-.82,1.4-1.33,3.29-.7,4.86.67,1.69,2.31,1.97,3.94,2.11,2.03.17,4.09.18,6.12.02s3.76-.91,4.9-2.69c.99-1.54,1.05-3.4.05-4.95-.54-.84-1.12-1.67-1.67-2.5-.65-.97-1.25-2.15-2.08-2.99s-2.09-1.26-3.28-1.15c-1.37.13-2.5.88-3.38,1.9-.15.18-.61.79-.34,1.02s.81-.35.95-.51c1.36-1.57,4.05-.76,5.12.7.47.65.89,1.33,1.34,1.99l1.84,2.75c.63.94,1.04,2.07.7,3.2-.43,1.43-2.19,1.55-3.45,1.63-1.82.12-3.67.11-5.49-.03-1.4-.1-3.04-.2-3.75-1.62-.61-1.2-.4-2.77.26-3.9.51-.86,1.2-1.66,1.79-2.47s1.2-1.65,1.8-2.47c.14-.19.44-.74.07-.85s-.85.55-1,.76Z"/>
      </g>
      <path class="cls-1" d="M25.56,89.88c1.49,5.03,1.6,10.65,1.08,15.83-.21,2.08-.45,4.48-1.52,6.33-1.23,2.15-3.96,3.68-5.81,1.31-1-1.28-1.27-2.98-1.94-4.43-.24-.52-.62-1.5-1.32-1.54s-1.37.87-1.69,1.4c-.41.67-.53,1.54-.99,2.16-.61.84-2.02,1.12-2.9.59-1.75-1.06-1.28-3.98-.96-5.6,1.16-5.79,2.57-11.48,4.97-16.89.52-1.18-.93-.24-1.18.33-1.04,2.33-2,4.69-2.72,7.15-.85,2.93-1.47,5.94-2.14,8.91-.48,2.1-1.33,5.16.15,7.08.89,1.16,2.43,1.06,3.61.44,1.41-.74,2.84-2.45,3.09-4.06.09-.56-.21.27-.23.12,0,0,.31.25.32.26.42.43.65,1.15.87,1.7.59,1.47.93,3.17,2.11,4.32,1.93,1.89,4.53.49,6.1-1.12,1.72-1.76,2.59-3.87,3.09-6.25.68-3.24.8-6.62.69-9.92s-.4-6.4-1.3-9.45c-.15-.52-1.57.77-1.4,1.34h0Z"/>
      <path class="cls-1" d="M16,69.67c-.01,1.47-.15,2.94-.54,4.36-.22.79-.53,2-1.25,2.51-1.7,1.21-3.13-1.97-3.49-3.08-.89-2.74-.96-5.89-.31-8.69.31-1.33,1.13-4.24,3.04-2.92.94.65,1.45,1.8,1.8,2.85.54,1.6.74,3.29.75,4.97,0,.76,1.42-.52,1.42-1.06-.01-1.81-.21-3.64-.81-5.36-.39-1.1-.99-2.44-2.06-3.05-2.26-1.27-4.23,1.82-4.93,3.54-1.33,3.28-1.4,7.33-.41,10.71.55,1.87,2.05,4.9,4.46,3.57,3.07-1.69,3.73-6.31,3.75-9.42,0-.75-1.42.52-1.42,1.06Z"/>
      <g>
        <ellipse class="cls-1" cx="13" cy="72.65" rx="2.44" ry="4.91"/>
        <path class="cls-1" d="M15.01,72.98c0,.86-.1,1.73-.37,2.55-.15.47-.37,1.13-.83,1.39-1.12.65-2.03-.95-2.34-1.77-.59-1.59-.64-3.48-.19-5.11.26-.93.87-2.34,2.06-1.6,1.37.86,1.65,3.08,1.66,4.53,0,.47.88-.32.88-.66,0-1.06-.14-2.14-.53-3.14-.26-.66-.67-1.41-1.33-1.75-1.46-.76-2.75.99-3.25,2.15-.81,1.88-.89,4.2-.26,6.15.39,1.22,1.42,2.89,2.92,2.14,1.9-.94,2.43-3.65,2.45-5.54,0-.46-.88.32-.88.66Z"/>
      </g>
      <g>
        <ellipse class="cls-1" cx="27.94" cy="72.18" rx="2.44" ry="4.91"/>
        <path class="cls-1" d="M29.95,72.51c0,.86-.1,1.73-.37,2.55-.15.47-.37,1.13-.83,1.39-1.12.65-2.03-.95-2.34-1.77-.59-1.59-.64-3.48-.19-5.11.26-.93.87-2.34,2.06-1.6,1.37.86,1.65,3.08,1.66,4.53,0,.47.88-.32.88-.66,0-1.06-.14-2.14-.53-3.14-.26-.66-.67-1.41-1.33-1.75-1.46-.76-2.75.99-3.25,2.15-.81,1.88-.89,4.2-.26,6.15.39,1.22,1.42,2.89,2.92,2.14,1.9-.94,2.43-3.65,2.45-5.54,0-.46-.88.32-.88.66Z"/>
      </g>
      <path class="cls-1" d="M30.62,69.65c-.01,1.39-.15,2.79-.55,4.12-.23.76-.55,1.89-1.27,2.35-1.71,1.09-3.11-1.74-3.51-2.91-.89-2.59-.97-5.6-.3-8.25.35-1.36,1.2-3.91,3.06-2.7.92.6,1.45,1.69,1.8,2.69.53,1.5.74,3.11.75,4.7,0,.74,1.39-.51,1.38-1.03-.01-1.72-.21-3.45-.81-5.07-.39-1.07-1.01-2.32-2.06-2.88-2.22-1.19-4.17,1.67-4.89,3.39-1.3,3.09-1.4,6.94-.41,10.14.57,1.85,2.11,4.63,4.45,3.38,2.98-1.6,3.7-5.93,3.73-8.95,0-.73-1.38.51-1.38,1.03Z"/>
      <path class="cls-1" d="M7.72,59.44c.62-1.27,1.3-2.58,2.3-3.6.73-.75,1.65-1.26,2.72-1.23.21,0,.4-.23.5-.38.04-.07.24-.42.04-.43-1.3-.05-2.44.63-3.33,1.53-1.21,1.21-2.07,2.74-2.81,4.27-.06.13-.12.34.09.31s.41-.31.49-.48h0Z"/>
      <path class="cls-1" d="M33.33,59.18c-.53-1.8-1.32-3.66-3.14-4.45-.43-.19-.89-.32-1.35-.43-.27-.07-.83.74-.54.81.96.23,1.89.58,2.6,1.3.91.93,1.37,2.22,1.73,3.44.08.26.79-.38.7-.67h0Z"/>
      <path class="cls-1" d="M23.36,42.54c-.59-4.82-.93-9.72-.21-14.54.64-4.35,2.22-9.79,5.74-12.71,2.42-2,5.52-2.11,8.24-3.44,2.11-1.04,4.11-3.45,3.79-5.93s-2.85-4.15-5.01-5c-2.66-1.04-5.81-1.32-8.48-.2-3.01,1.26-5.22,4.54-6.79,7.28-1.78,3.12-2.39,6.57-2.32,10.13.05,2.36.28,4.69.22,7.05s-.24,4.78-.5,7.15c-.43,3.88-.95,7.84-1.99,11.61-.28,1,1.2-.22,1.34-.72.8-2.89,1.27-5.87,1.68-8.83.55-3.94.92-7.92.91-11.9s-.66-7.57.35-11.29c.44-1.63,1.18-3.13,2.12-4.53s2.06-3.1,3.49-3.99c2.4-1.51,5.7-1.24,8.28-.36,2.16.74,4.95,2.34,5.29,4.85.4,2.94-2.83,3.63-4.98,4.26-3.06.89-5.71,2.34-7.71,4.89-6.07,7.73-5.99,18.31-4.85,27.57.06.45,1.48-.73,1.4-1.34h0Z"/>
    </g>
  </g>
</svg>