<?xml version="1.0" encoding="UTF-8"?>
<svg id="id" xmlns="http://www.w3.org/2000/svg" viewBox="0 0 75.83 99.4">
  <defs>
    <style>
      .cls-1 {
        fill: currentColor;
      }
    </style>
  </defs>
  <g id="diertjes">
    <g id="konijn">
      <g>
        <path class="cls-1" d="M37.02,85.75l1.84-2.21c1.09-1.16,1.15-3.21-.63-3.56-1.18-.23-3.63-.32-4.83-.2-1.78.17-2.58,1.74-1.7,3.07l1.81,2.62c.41.62,1.12.94,1.84.96.62.01,1.24-.2,1.67-.67Z"/>
        <path class="cls-1" d="M37.33,86c.36-.43.72-.86,1.08-1.3.41-.49.88-.98,1.23-1.52.53-.81.95-1.94.57-2.9s-1.36-1.14-2.29-1.24c-1.11-.12-2.23-.16-3.35-.12-.52.02-1.06.05-1.55.24-.63.24-1.18.66-1.6,1.19-.75.92-1.08,2.12-.41,3.18.29.46.62.91.94,1.36.37.53.71,1.17,1.17,1.63,1.15,1.17,2.99.74,4.03-.32.22-.22.73-.76.58-1.12s-.69.08-.83.22c-.26.26-.8.34-1.22.3-.52-.06-1-.29-1.35-.69-.31-.35-.55-.77-.81-1.15l-1.04-1.5c-.31-.44-.53-1.02-.36-1.5.03-.09,0,0,0,.01.01-.13.05-.05,0,0-.02.02-.14.17-.01.02-.01.01-.1.14-.04.05.05-.08,0,0-.02.02.14-.1.07-.05.04-.03.08-.04.16-.09.25-.12.4-.16.85-.16,1.27-.17.97-.03,1.96,0,2.93.09.75.07,1.72.08,2.18.78.17.26.25.6.23.91-.01.19-.03.29-.07.44-.01.04-.09.24-.07.21.04-.08-.04.07-.05.09-.03.05-.03.05,0,0,.03-.06.03-.04-.02.04,0,0-.1.14-.02.03s-.06.07-.08.09c-.02.03-.05.05-.07.08-.05.06-.1.12-.15.17l-.63.75c-.35.42-.7.85-1.06,1.27-.16.19-.61.78-.34,1.02s.83-.36.95-.51Z"/>
      </g>
      <path class="cls-1" d="M34.64,86.95c-.04,1.34-.07,2.68-.11,4.02l.4-.79c.09-.1-.06.06-.08.08-.06.06-.12.12-.18.17-.02.01-.19.17-.12.11.07-.06-.12.09-.11.09-.01.01-.18.13-.11.09.06-.04-.11.07-.11.07-.04.02-.09.05-.13.07-.19.1.1-.03-.1.04-.39.14-.76.14-1.17.02-.47-.14-.89-.43-1.27-.72-.55-.42-1.05-.9-1.55-1.38-.38-.37-1.71,1.12-1.29,1.53.83.81,1.72,1.71,2.83,2.12.98.36,1.94,0,2.74-.59.28-.2.54-.43.78-.67.35-.35.82-.77.88-1.29.01-.13,0-.28.01-.41l.06-2.04c.01-.52.03-1.04.04-1.57.01-.43-.44-.24-.65-.08-.31.24-.76.71-.77,1.14h0Z"/>
      <path class="cls-1" d="M42.61,45.05c.58-7.64,1.41-15.9,5.24-22.71,2.69-4.78,7.06-8.16,11.35-11.43,1.99-1.52,4.04-2.88,6.24-4.08,1.89-1.04,3.83-2.01,5.6-3.25.7-.49,1.75-1.47,2.67-1.4,1.48.11.47,2.98.25,3.69-1.31,4.25-3.31,8.18-3.64,12.7-.31,4.24-.41,8.32-1.97,12.35-2.03,5.27-6.45,9.22-10.35,13.13-1.71,1.71-3.44,3.41-5.28,4.98-1.15.98-2.52,2.31-4.03,2.69-.51.13-1.51,1.76-.8,1.58,1.3-.33,2.48-1.26,3.51-2.07,1.78-1.39,3.44-2.94,5.06-4.52,1.88-1.82,3.71-3.7,5.51-5.6s3.7-3.79,5.18-5.99c2.67-3.97,3.96-8.62,4.37-13.35.21-2.45.15-4.89.67-7.31.57-2.61,1.54-5.09,2.49-7.57.52-1.38,2.74-7.44-.85-6.14-1.32.48-2.4,1.47-3.57,2.2-2.14,1.33-4.42,2.4-6.57,3.7-3.28,1.99-6.37,4.46-9.29,6.96-2.27,1.94-4.37,4.06-6.11,6.5-5.3,7.46-6.42,17.13-7.09,26-.05.72,1.38-.52,1.42-1.06h0Z"/>
      <path class="cls-1" d="M33.89,45.09c-.45-7.97-1.18-16.59-5.15-23.71-2.9-5.19-7.53-8.9-12.12-12.53C12.9,5.91,8.59,3.96,4.75,1.2,4,.66,2.94-.13,1.95.02.89.18.14,1.39.03,2.38c-.2,1.82.63,3.75,1.23,5.43.87,2.41,1.73,4.82,2.22,7.34.45,2.32.37,4.65.51,7s.44,4.48,1.04,6.66c.71,2.61,1.84,5.09,3.39,7.3,1.79,2.56,4.06,4.84,6.12,7.18,1.88,2.15,3.77,4.31,5.83,6.3,1.19,1.15,2.56,2.57,4.2,3.02.54.15,1.67-1.45,1.08-1.61-1.35-.37-2.53-1.56-3.53-2.49-1.63-1.53-3.14-3.19-4.62-4.85-1.71-1.91-3.38-3.86-5.08-5.79s-3.35-3.94-4.49-6.33c-1.86-3.89-2.51-8.19-2.61-12.47-.05-2.37-.24-4.63-.82-6.93-.56-2.18-1.35-4.28-2.11-6.4-.31-.87-.6-1.75-.79-2.66-.09-.44-.18-.89-.18-1.33,0,.01.03-.4.02-.43.07-.27,0-.25-.22.07-.28.19-.35.27-.2.23.05.06,1.09.28,1.25.36.46.24.89.54,1.32.85,3.67,2.66,7.84,4.49,11.42,7.3,4.3,3.38,8.75,6.84,11.69,11.53,4.5,7.17,5.29,16.25,5.76,24.49.04.77,1.45-.53,1.42-1.06h0Z"/>
      <path class="cls-1" d="M42.48,41.56c-1.64-.64-3.47-.77-5.22-.63-1.39.11-2.91.35-4.12,1.1-.18.11-.41.32-.45.54-.03.16.03.3.22.18,1.18-.73,2.72-.95,4.08-1.03,1.66-.1,3.39.04,4.95.65.25.1.84-.69.54-.81h0Z"/>
      <path class="cls-1" d="M22.73,50.92c-.12,3.58-.58,7.17-1.37,10.66-.46,2.02-1.04,4.03-1.8,5.96-.72,1.81-1.65,3.45-2.74,5.06-2.34,3.45-3.78,7.59-4.3,11.71-.29,2.28-.28,4.61.12,6.87.33,1.85.87,3.92,2.28,5.27,2.81,2.7,7.06.26,9.57-1.62.13-.1.43-.38.38-.57s-.18-.15-.32-.04c-2.3,1.73-6.05,3.91-8.74,1.69-1.46-1.21-2.03-3.19-2.39-4.98-.46-2.28-.49-4.63-.22-6.94.48-4.08,1.89-8.22,4.26-11.6,2.19-3.13,3.51-6.75,4.4-10.45s1.44-7.66,1.57-11.54c.01-.37-.7.26-.71.53h0Z"/>
      <path class="cls-1" d="M50.33,51.55c.3,3.91.25,7.84.93,11.71.38,2.16.97,4.28,1.82,6.31.66,1.58,1.43,3.1,2.05,4.69,1.27,3.29,2.26,6.77,2.53,10.3.13,1.71.08,3.48-.35,5.15s-1.41,3.39-2.59,4.75-2.69,2.38-4.47,2.51-3.46-.74-4.78-1.92c-.2-.18-.86.57-.64.77,1.2,1.08,2.67,1.92,4.31,1.98,1.48.05,2.9-.52,4.08-1.39,2.8-2.04,4.72-5.5,5.1-8.92.42-3.72-.4-7.55-1.52-11.08-.54-1.71-1.18-3.39-1.9-5.03-.9-2.03-1.8-3.99-2.37-6.15-1.24-4.7-1.14-9.53-1.5-14.34-.02-.21-.72.36-.7.67h0Z"/>
      <path class="cls-1" d="M26.09,79.19c-4.82,3.78-6.18,13.12-1.09,17.2,1.87,1.5,4.32,2.05,6.62,2.51s4.76.69,7.12.31c3.66-.57,7.02-2.95,8.88-6.15,2.34-4.04,1.98-10.5-1.58-13.78-.4-.37-1.72,1.13-1.29,1.53,2.8,2.58,3.55,7.45,2.41,10.96-1.01,3.13-4.05,5.17-7.17,5.77-1.98.38-4.04.27-6.02-.04-2.21-.34-4.65-.79-6.61-1.92-2.72-1.56-4.11-4.44-4.14-7.52-.03-2.48.64-6.03,2.73-7.67.26-.21.85-.76.77-1.14s-.36-.3-.65-.08h0Z"/>
      <path class="cls-1" d="M31.47,61.93c0,1.21-.12,2.43-.45,3.59-.16.58-.39,1.55-.93,1.92-1.36.95-2.55-1.71-2.83-2.56-.75-2.26-.81-4.87-.27-7.18.25-1.07.82-3.26,2.33-2.23.78.53,1.21,1.48,1.5,2.35.45,1.32.62,2.72.63,4.11,0,.76,1.42-.52,1.42-1.06-.01-1.51-.18-3.04-.68-4.48-.33-.93-.84-2.04-1.74-2.55-1.98-1.11-3.73,1.63-4.34,3.14-1.11,2.74-1.18,6.13-.34,8.96.48,1.62,1.77,4.1,3.82,2.98,2.66-1.45,3.28-5.34,3.29-8.05,0-.75-1.42.52-1.42,1.06Z"/>
      <g>
        <ellipse class="cls-1" cx="29.07" cy="64.13" rx="1.89" ry="4.26"/>
        <path class="cls-1" d="M30.54,64.46c0,.74-.07,1.48-.27,2.19-.1.35-.24.95-.56,1.17-.83.58-1.55-1.04-1.72-1.56-.45-1.38-.49-2.97-.16-4.38.15-.65.5-1.98,1.42-1.36.48.32.74.9.92,1.43.27.8.38,1.66.39,2.5,0,.46.87-.32.86-.65,0-.92-.11-1.85-.42-2.73-.2-.56-.51-1.24-1.06-1.55-1.21-.67-2.27.99-2.64,1.91-.68,1.67-.72,3.74-.21,5.46.29.99,1.08,2.5,2.33,1.81,1.62-.88,2-3.25,2.01-4.9,0-.46-.86.32-.86.65Z"/>
      </g>
      <g>
        <ellipse class="cls-1" cx="44.24" cy="64.13" rx="1.89" ry="4.26"/>
        <path class="cls-1" d="M45.7,64.46c0,.74-.07,1.48-.27,2.19-.1.35-.24.95-.56,1.17-.83.58-1.55-1.04-1.72-1.56-.45-1.38-.49-2.97-.16-4.38.15-.65.5-1.98,1.42-1.36.48.32.74.9.92,1.43.27.8.38,1.66.39,2.5,0,.46.87-.32.86-.65,0-.92-.11-1.85-.42-2.73-.2-.56-.51-1.24-1.06-1.55-1.21-.67-2.27.99-2.64,1.91-.68,1.67-.72,3.74-.21,5.46.29.99,1.08,2.5,2.33,1.81,1.62-.88,2-3.25,2.01-4.9,0-.46-.86.32-.86.65Z"/>
      </g>
      <path class="cls-1" d="M46.64,61.91c0,1.21-.12,2.43-.45,3.59-.16.58-.39,1.55-.93,1.92-1.36.95-2.55-1.71-2.83-2.56-.75-2.26-.81-4.87-.27-7.18.25-1.07.82-3.26,2.33-2.23.78.53,1.21,1.48,1.5,2.35.45,1.32.62,2.72.63,4.11,0,.76,1.42-.52,1.42-1.06-.01-1.51-.18-3.04-.68-4.48-.33-.93-.84-2.04-1.74-2.55-1.98-1.11-3.73,1.63-4.34,3.14-1.11,2.74-1.18,6.13-.34,8.96.48,1.62,1.77,4.1,3.82,2.98,2.66-1.45,3.28-5.34,3.29-8.05,0-.75-1.42.52-1.42,1.06Z"/>
      <path class="cls-1" d="M29.43,83.68c-3.9-2.74-8.6-4.49-13.38-3.42-2.86.64-5.47,2.19-7.56,4.22-.48.47-.95.96-1.35,1.5-.08.1-.21.36-.04.43s.43-.28.5-.38c-.19.25.12-.14.17-.2.24-.28.4-.45.65-.7.78-.79,1.65-1.49,2.58-2.09,2.92-1.9,6.41-2.67,9.85-2.09,2.9.49,5.55,1.84,7.94,3.51.24.17.86-.61.64-.77h0Z"/>
      <path class="cls-1" d="M26.72,86.44c-4.54-2.05-10.35-3.26-14.9-.54-.32.19-.63.39-.9.64-.33.28-.39.9.12.45-.16.14,0,0,.06-.05.14-.1.27-.19.4-.27.54-.33,1.12-.6,1.72-.82,2.19-.78,4.57-.87,6.85-.52,2.08.32,4.08,1,6,1.86.29.13.85-.67.64-.77h0Z"/>
      <path class="cls-1" d="M41.4,84.74c3.26-2.71,7.3-4.31,11.55-3.33,2.62.61,5.01,2.07,6.97,3.89.41.38.82.78,1.17,1.22.15.19.84-.52.64-.77-3.12-3.84-8.48-6.24-13.39-5.2-2.57.54-4.88,1.91-6.88,3.57-.13.11-.43.38-.38.57s.18.16.32.04h0Z"/>
      <path class="cls-1" d="M43.64,86.4c3.33-1.48,7.09-2.27,10.66-1.25,2.26.65,4.26,2.01,5.8,3.78.16.19.85-.53.64-.77-1.6-1.84-3.69-3.21-6.04-3.86-3.65-1-7.45-.13-10.83,1.37-.24.11-.72.94-.24.72h0Z"/>
      <path class="cls-1" d="M34.6,91.2c.9.81,2.02,1.54,3.28,1.51,1.56-.03,2.9-1.05,3.94-2.12.23-.24.72-.75.58-1.12s-.7.09-.83.22c-.75.77-1.66,1.47-2.84,1.41-1.1-.06-2.04-.71-2.84-1.43-.41-.37-1.72,1.14-1.29,1.53h0Z"/>
      <path class="cls-1" d="M27.27,53.13c.64-.87,1.5-1.58,2.55-1.87.41-.11.83-.19,1.25-.11.28.05.82-.76.54-.81-.33-.06-.69-.01-1.01.04-.83.14-1.6.55-2.26,1.06-.6.47-1.1,1.03-1.55,1.64-.07.09-.22.37-.04.43s.42-.27.5-.38h0Z"/>
      <path class="cls-1" d="M42.67,50.99c.86.04,1.72.26,2.43.76.24.17.46.37.65.59.13.15.27.34.34.47.04.08.09.16.12.25.1.27.8-.4.7-.67-.33-.89-1.22-1.54-2.06-1.87-.53-.2-1.08-.3-1.65-.33-.2-.01-.4.23-.5.38-.04.07-.24.42-.04.43h0Z"/>
    </g>
  </g>
</svg>