<?xml version="1.0" encoding="UTF-8"?>
<svg id="Layer_2" xmlns="http://www.w3.org/2000/svg" viewBox="0 0 661.44 472.24">
  <defs>
    <style>
      .cls-1 {
        stroke-width: 1.05px;
      }

      .cls-1, .cls-2, .cls-3 {
        fill: #f9a65f;
      }

      .cls-1, .cls-3 {
        stroke: #f9a65f;
        stroke-linecap: round;
        stroke-miterlimit: 10;
      }

      .cls-3 {
        stroke-width: 1.05px;
      }
    </style>
  </defs>
  <g id="Layer_8">
    <g>
      <g id="hond_x5F_groot">
        <path class="cls-2" d="M384.72,127.77c-.13-4.47-.1-9.24,1.42-13.5.22-.62.47-1.2.8-1.78-.14.25.27-.41.33-.5-.05.07.38-.44.15-.19.1-.1.66-.59.3-.3.1-.08.64-.45.35-.27.51-.31.68-.39,1.17-.53,3.57-1.08,7.61,1.09,10.42,3.2s4.81,5.41,8.04,7.24c7.95,4.49,17.59,3.91,25.97,7.11,3.28,1.25,6.51,3.18,8.5,6.14,1.79,2.67,2.24,5.96,1.94,9.11-.46,4.8-2.49,9.26-4.09,13.76-1.81,5.1-3.42,10.25-4.58,15.54s-1.84,10.96-2.38,16.5c-.42,4.26-1.17,8.53-2.76,12.52-1.31,3.27-3.27,6.23-6.16,8.3-1.61,1.15-3.43,1.99-5.32,2.58-1.09.34-2.2.6-3.32.79-1.3.22-2.67.16-3.95.42-1.46.29-2.14,1.98-2.81,3.13-.58,1-1.21,1.97-1.85,2.92-1.41,2.09-2.95,4.08-4.6,5.99-3.37,3.91-7.16,7.46-11.26,10.58-7.47,5.68-16.68,10.71-26.29,10.92-2.07.04-4.13-.17-6.15-.65-.59-.14-1.41.75-1.72,1.12-3.05,3.59-6.61,6.79-10.96,8.71-3.99,1.75-8.4,2.19-12.7,1.68-5.1-.6-9.85-2.52-14.67-4.2-3.6-1.26-7.23-2.46-10.98-3.22-4.39-.89-8.88-1.26-13.35-1.6-3.72-.29-7.55-.65-10.88-2.47-5.98-3.25-8.19-10.28-10.24-16.31-1.62-4.78-3.55-9.6-4.26-14.63-.82-5.79-.29-11.7.34-17.49.03-.28.05-.55.11-.82.06-.32-.05.21,0,0,.02-.09.05-.18.07-.27.13-.43.28-.84.44-1.26.24-.63.91-1.99,1.42-2.91,1.2-2.18,2.95-4.66,4.57-6.38,1.75-1.87,3.78-3.61,6.39-4.31s5.33.15,7.4,1.97c3.39,2.99,5.35,7.56,6.73,11.77,1.16,3.56,1.62,7.21,2.04,10.92.35,3.1.95,6.08,2.56,8.79,2.5,4.19,6.47,7.11,10.27,10.04,6.36,4.9,12.74,9.76,19.19,14.54.3.22.6.44.89.66.96.71,3.51-2.46,2.61-3.12-4.87-3.58-9.68-7.24-14.49-10.91-2.5-1.91-5-3.83-7.5-5.76-2.15-1.66-4.25-3.37-6.05-5.41-2.32-2.63-3.73-5.63-4.31-9.07s-.73-7.1-1.58-10.59c-1.13-4.65-3.06-9.5-6.11-13.24-1.94-2.38-4.69-4.28-7.89-4.14-2.93.13-5.62,1.63-7.86,3.43-4.82,3.88-8.77,9.43-11.03,15.19-.33.84-.59,1.69-.72,2.58-.46,3.11-.65,6.33-.76,9.47-.19,5.71.47,11.17,2.29,16.58,1.46,4.33,2.79,8.73,4.52,12.97,1.23,3.02,2.74,6.07,5.08,8.4s5.32,3.61,8.46,4.3c4.74,1.04,9.7.96,14.51,1.57,3.79.48,7.49,1.28,11.13,2.42,4.86,1.52,9.58,3.58,14.52,4.86,4.57,1.18,9.35,1.56,13.99.54s8.73-3.39,12.28-6.4c2.09-1.77,3.99-3.74,5.76-5.83l-1.72,1.12c8.07,1.96,16.59-.68,23.78-4.34,8.54-4.36,16.14-10.62,22.5-17.76,3.49-3.91,6.58-8.18,9.11-12.77l-2.29,1.98c7.44-.37,14.35-3.13,19.08-9.05,4.49-5.61,6.41-12.68,7.22-19.7.53-4.63.92-9.26,1.74-13.85.75-4.21,1.79-8.34,3.07-12.42,1.43-4.58,3.25-9.03,4.76-13.58,1-3.03,1.77-6.25,1.72-9.46-.27-16.28-20.9-15.54-32.08-19.12-2.2-.7-4.38-1.59-6.25-2.97-1.27-.94-2.31-2.11-3.36-3.29-1.93-2.16-4.19-3.94-6.82-5.18-3.09-1.45-6.61-2.05-9.67-.18-5.04,3.1-6.55,9.52-6.97,15.01-.17,2.18-.18,4.37-.11,6.56.04,1.55,2.92-1.07,2.89-2.16h0Z"/>
        <path class="cls-2" d="M354.12,120.69c6.54.54,13.25,1.47,19.36,3.99,4.07,1.67,7.69,4.13,10.75,7.3s5.45,6.62,8,10.05c4.4,5.91,8.24,12.24,11.54,18.82,3.7,7.36,6.74,15.09,8.66,23.11.24,1.02.47,2.03.67,3.06.08.4.73-.12.84-.22.27-.25.67-.73.59-1.14-1.64-8.18-4.51-16.08-8.08-23.61-3.23-6.81-7.05-13.36-11.41-19.51-1.48-2.08-3.03-4.12-4.56-6.16-1.26-1.67-2.54-3.32-3.93-4.87-2.89-3.22-6.29-5.87-10.22-7.71-5.63-2.64-11.87-3.79-18.01-4.45-1.03-.11-2.06-.21-3.1-.29-.6-.05-1.63,1.6-1.1,1.64h0Z"/>
        <path class="cls-2" d="M370.78,181.95c-1.37-2.18-2.48-4.57-3.1-7.08-.23-.96-.41-1.95-.42-2.94-.01-.82.21-1.54.3-2.33.05-.42.16-.09-.09.02-.2.08.37-.14.35-.13.66-.19,1.35-.14,2.02,0,1.74.36,3.32,1.41,4.68,2.52,3.7,3.04,6.54,7.41,7.89,11.99.52,1.76.93,3.8.5,5.63-.05.2-.19.61-.22.68.05-.11.32-.24.12-.18-.57.18-1.04.28-1.66.22-1.9-.17-3.63-1.26-5.09-2.42-2.1-1.66-3.82-3.75-5.28-5.99-.48-.73-3.34,2-2.61,3.12,1.57,2.41,3.45,4.66,5.78,6.37,1.56,1.15,3.55,2.25,5.55,2.22,2.16-.03,3.93-1.43,5.09-3.17,1.32-2,1.55-4.36,1.23-6.68-.77-5.64-4.32-11.34-8.68-14.92-1.57-1.29-3.49-2.5-5.55-2.77s-3.93.76-5.26,2.34c-4.06,4.86-1.06,11.99,1.84,16.6.46.73,3.33-1.98,2.61-3.12Z"/>
        <path class="cls-2" d="M333.34,203.98c-1.05-2.29-1.87-4.7-2.2-7.21-.23-1.76-.3-3.8.53-5.42-.33.65-.28.15-.09.19.12.02.51-.17.64-.19.66-.09,1.36.04,1.98.26,1.65.56,3.09,1.8,4.27,3.04,3.27,3.42,5.49,8.07,6.3,12.72.34,1.94.43,3.99-.22,5.87-.2.57-.26.12.03.09,0,0-.19.12-.29.14-.66.12-1.21.17-1.88.02-1.79-.39-3.36-1.69-4.61-2.96-1.88-1.89-3.32-4.16-4.47-6.56-.53-1.11-3.35,1.69-2.85,2.73,1.89,3.95,5.22,9.3,9.97,10.12s7.4-4.79,7.46-8.66c.1-5.77-2.56-11.83-6.35-16.11-2.67-3.01-6.89-5.7-10.45-2.44-4.8,4.39-3.01,11.94-.64,17.09.51,1.11,3.33-1.68,2.85-2.73Z"/>
        <path class="cls-2" d="M394.48,187.77c.56,2.86.47,5.99-1.04,8.57-.9,1.54-2.28,2.8-3.98,3.48-.43.17-.8.55-1.01.97-.09.18-.25.82.19.64,2.37-.95,4.36-2.77,5.69-4.93,1.88-3.06,2.25-6.61,1.57-10.09-.08-.4-.73.12-.84.22-.27.25-.67.73-.59,1.14h0Z"/>
        <path class="cls-2" d="M350.9,224.56c-3.54,2.8-8.72,3.81-12.84,1.65-.57-.3-1.74,1.33-1.31,1.56,4.56,2.38,10.14,1.1,14.02-1.97.32-.25.79-.72.78-1.16s-.44-.26-.66-.08h0Z"/>
        <path class="cls-2" d="M328.95,183.22c-6.6-2.01-12.69-5.6-18.23-9.65-5.83-4.26-11.22-9.22-15.82-14.81-3.68-4.47-7.22-9.62-8.55-15.34-.25-1.07-.41-2.16-.41-3.24,0-1.13.14-2.01.43-2.87.04-.11.31-.76.12-.35.1-.23.21-.45.33-.67.21-.39-.24.36,0,0,.07-.1.14-.21.21-.31.24-.38-.32.38-.02.03.11-.13.22-.26.33-.39.23-.27-.07.08-.1.11.09-.09.19-.19.28-.28s.2-.18.3-.27c-.39.34-.03.03.05-.03.65-.49.61-.48,1.35-.86,2.97-1.58,6.7-2.03,10.1-2.14,5.66-.18,11.34.57,16.9,1.57,1.15.21,3.34-3.07,2.19-3.28-5.27-.95-10.64-1.67-16.01-1.59-3.51.05-7.15.39-10.44,1.69-5.05,2-9.04,6.58-8.89,12.22s3.37,11.24,6.67,15.82c4.39,6.1,9.83,11.46,15.72,16.1s12.1,8.53,19.01,11.06c.76.28,1.53.53,2.3.77,1.07.32,3.4-2.91,2.19-3.28h0Z"/>
        <path class="cls-2" d="M322.41,136.45l-3.8-5.94.06.83c1.52-4.95,3.28-9.85,5.71-14.43.87-1.64,1.84-3.25,2.96-4.73.77-1.01,1.73-2.07,2.54-2.77,3.37-2.9,7.85-3.37,11.9-1.13,4.88,2.7,8.37,7.68,11,12.46,3.35,6.1,5.69,12.78,7.18,19.57,1.63,7.39,2.34,15.19.98,22.68-.17.92.98.4,1.32.16.74-.52,1.4-1.41,1.57-2.32,1.42-7.79.63-15.97-1.1-23.64s-4.62-15.49-8.92-22.26c-3.07-4.83-7.51-10.21-13.49-11.26-6.79-1.19-12.36,4.53-15.8,9.65s-5.83,11.03-7.76,16.9c-.33,1.01-1.2,2.54-.69,3.53.33.64.79,1.24,1.18,1.84l2.55,3.99c.47.73,3.34-1.99,2.61-3.12h0Z"/>
        <path class="cls-2" d="M292.82,159.68c-2.37,2.26-3.81,5.33-4.71,8.44s-1.35,6.27-1.39,9.46c-.02,1.33.02,2.69.26,4.01.07.41.73-.12.84-.22.28-.26.66-.73.59-1.14-.42-2.37-.28-4.86-.01-7.24.33-2.97.97-5.98,2.22-8.7.62-1.35,1.39-2.65,2.47-3.68.22-.21.75-.8.59-1.14s-.68.07-.84.22h0Z"/>
        <path class="cls-2" d="M326.59,111.76c-3.93-.55-7.96-.84-11.88.02-4.93,1.08-9.06,4.14-11.74,8.39-2.09,3.31-3.29,7.08-4.03,10.9-.09.46.49.2.66.08.37-.26.7-.71.78-1.16,1.03-5.35,3.11-10.98,7.72-14.18,3.32-2.3,7.46-3,11.42-2.94,2,.03,3.99.25,5.96.52.59.08,1.66-1.56,1.1-1.64h0Z"/>
        <g>
          <path class="cls-2" d="M318.15,143.35l.73,8.76c-.03,5.03,4.05,10.45,8.76,8.03,3.12-1.61,8.77-5.95,11.22-8.47,3.64-3.76,2.17-9.32-2.53-11.1l-9.73-2.99c-4.06-1.54-8.41,1.44-8.44,5.78Z"/>
          <path class="cls-2" d="M316.72,144.72c.14,1.72.28,3.44.43,5.15.15,1.84.13,3.84.5,5.65.6,2.97,2.67,6.34,5.92,6.81,3.06.44,6.16-2.19,8.48-3.87,4.56-3.3,12.79-9,9.65-15.69-1-2.14-2.84-3.4-5.03-4.08l-6.2-1.91c-2.15-.66-4.3-1.59-6.58-1.09-3.85.84-7.05,4.84-7.18,8.74-.03.89.89.47,1.32.16.65-.46,1.54-1.46,1.57-2.32.03-.99.17-2.08,1.03-2.7,1.08-.77,2.56-.9,3.83-.66s2.64.79,3.92,1.18l5.64,1.73c1.64.51,3.1,1.2,4.19,2.61,1.36,1.76,1.85,4.71.24,6.46-1.81,1.97-4.12,3.62-6.28,5.17-1.96,1.41-4.47,3.62-7.05,2.82-2.72-.84-4.28-3.97-4.69-6.58-.27-1.76-.29-3.62-.44-5.4-.14-1.64-.27-3.29-.41-4.93-.07-.82-1.5.27-1.68.44-.6.57-1.25,1.41-1.17,2.28Z"/>
        </g>
        <g>
          <ellipse class="cls-2" cx="336.41" cy="197.74" rx="5.26" ry="8.63" transform="translate(-53.53 212.44) rotate(-32.61)"/>
          <path class="cls-2" d="M333.29,199.01c-.86-1.37-1.49-2.92-1.75-4.52-.1-.59-.13-1.17-.08-1.77.02-.25.05-.51.11-.74.04-.14.08-.28.14-.42,0,.01.09-.19.03-.07-.11.24.34-.32-.08.12-.07.08-.21.19-.29.27.22-.28-.14.04.15-.1.02,0,.24-.1.07-.04.44-.17.89-.2,1.35-.17,1.19.1,2.28.63,3.25,1.31,2.46,1.74,4.29,4.5,4.96,7.43.28,1.23.34,2.47-.07,3.66.08-.22-.02.03-.04.06.26-.45-.19.21.05-.1.1-.13.25-.24.35-.36-.16.2-.14.08-.03.03-.29.13-.67.28-1.16.29-2.96.05-5.49-2.62-6.97-4.89-.48-.73-3.34,2-2.61,3.12,1.63,2.5,4.52,5.31,7.78,5.04,3.68-.31,6-4.39,5.81-7.78-.21-3.65-2.35-7.33-5.28-9.49-1.18-.87-2.66-1.59-4.15-1.61-1.72-.02-3.19.9-4.31,2.16-3.05,3.44-2.1,8.09.15,11.68.45.72,3.33-1.98,2.61-3.12Z"/>
        </g>
        <g>
          <ellipse class="cls-2" cx="372.47" cy="176.99" rx="5.26" ry="8.63" transform="translate(-36.67 228.6) rotate(-32.61)"/>
          <path class="cls-2" d="M369.35,178.26c-.86-1.37-1.49-2.92-1.75-4.52-.1-.59-.13-1.17-.08-1.77.02-.25.05-.51.11-.74.04-.14.08-.28.14-.42,0,.01.09-.19.03-.07-.11.24.34-.32-.08.12-.07.08-.21.19-.29.27.22-.28-.14.04.15-.1.02,0,.24-.1.07-.04.44-.17.89-.2,1.35-.17,1.19.1,2.28.63,3.25,1.31,2.46,1.74,4.29,4.5,4.96,7.43.28,1.23.34,2.47-.07,3.66.08-.22-.02.03-.04.06.26-.45-.19.21.05-.1.1-.13.25-.24.35-.36-.16.2-.14.08-.03.03-.29.13-.67.28-1.16.29-2.96.05-5.49-2.62-6.97-4.89-.48-.73-3.34,2-2.61,3.12,1.63,2.5,4.52,5.31,7.78,5.04,3.68-.31,6-4.39,5.81-7.78-.21-3.65-2.35-7.33-5.28-9.49-1.18-.87-2.66-1.59-4.15-1.61-1.72-.02-3.19.9-4.31,2.16-3.05,3.44-2.1,8.09.15,11.68.45.72,3.33-1.98,2.61-3.12Z"/>
        </g>
      </g>
      <g id="hond_x5F_klein">
        <path class="cls-2" d="M492.48,397.05c-1.68,6.32-1.66,13.07-.37,19.45s4.02,12.85,8.55,17.71c4.16,4.47,9.99,7.05,15.65,9.08,6.33,2.27,12.97,3.66,19.66,4.27,7.26.66,14.61.38,21.78-.93s14.78-3.91,21.41-7.67c6.71-3.8,12.97-8.75,16.9-15.49,3.06-5.25,4.34-11.28,3.86-17.33-.42-5.21-2.09-10.32-4.63-14.87-1.06-1.89-2.26-3.71-3.66-5.37-1.03-1.22-2.18-2.41-3.54-3.27-.48-.31-1-.57-1.55-.73-.66-.19-2.07,1.78-1.33,2,1.06.31,2.18,1.21,3.06,2.03,1.36,1.27,2.54,2.74,3.6,4.28,2.74,3.99,4.68,8.59,5.69,13.32,1.16,5.45.95,11.16-1.04,16.4-2.46,6.47-7.49,11.24-13.13,15.02-6.2,4.15-13.18,7.07-20.42,8.84s-14.2,2.36-21.38,2.07c-6.71-.26-13.4-1.33-19.84-3.22-2.93-.86-5.81-1.89-8.61-3.13-2.6-1.16-5.23-2.44-7.53-4.15-5.17-3.84-8.55-9.62-10.51-15.67s-2.67-12.84-1.81-19.28c.19-1.43.46-2.85.84-4.25.12-.45-.1-.66-.54-.45-.47.23-.99.83-1.12,1.34h0Z"/>
        <path class="cls-2" d="M598.96,323.35c8.23,10.95,8.06,25.32,5.12,38.11-1.46,6.35-3.6,12.47-5.46,18.69-2.24,7.5-3.86,15.51-2.72,23.34.59,4.07,2.07,7.98,4.6,11.24,2.96,3.8,7.17,6.28,11.67,7.83,6.21,2.14,13.22,2.89,19.77,2.52,5.11-.29,10.25-1.43,14.7-4.04,7.42-4.35,12.11-11.88,13.9-20.18.67-3.12.95-6.31.9-9.5s-.78-5.93-1.85-8.85c-3.5-9.54-8.5-18.57-13.35-27.47-4.88-8.94-10-17.75-14.96-26.65-1.59-2.86-3.21-5.71-4.38-8.77-1.75-4.6-2.95-9.4-5.06-13.86-2.25-4.74-5.54-8.93-10.28-11.35-3.16-1.61-6.52-2.2-9.97-2.88-3.19-.63-6.39-1.37-9.46-2.46s-5.32-2.63-7.66-4.67c-1.75-1.52-3.8-2.72-5.83-3.83-9.29-5.06-20.01-7.36-30.56-6.28-8.01.82-15.7,3.43-22.76,7.27-3.79,2.06-7.5,4.21-11.44,5.98s-8.09,3.29-12.29,4.46c-3.68,1.02-7.51,1.43-11.15,2.6-3.39,1.09-6.6,2.68-9.59,4.6-6.57,4.21-12.2,9.96-16.41,16.53-3.06,4.77-5.1,10.03-7.12,15.3-2.13,5.55-4.12,11.14-6,16.78-4.64,13.94-8.65,28.16-11.23,42.64-1.22,6.86-1.99,13.76-2.31,20.72-.24,5.22-.33,10.55.53,15.72.58,3.51,1.72,7.15,4.19,9.82s5.82,3.71,9.24,3.98c5.22.41,10.56-.73,15.58-2.07,7-1.86,13.39-5.66,19-10.21,2.65-2.15,5.28-4.48,7.47-7.12.37-.45,1.52-1.95.83-2.53s-2.02.87-2.35,1.26c-.15.18-.31.36-.47.54-.09.1-.18.19-.26.29-.36.4.36-.36.03-.03-.28.28-.55.57-.83.86-1.67,1.68-3.38,3.18-5.23,4.61-2.69,2.08-5.54,3.92-8.56,5.49-3.19,1.65-6.44,2.68-9.92,3.51-7.09,1.69-17.15,3.45-22.19-3.38-2.15-2.92-2.92-6.75-3.33-10.27-.62-5.31-.38-10.73-.06-16.05.88-14.27,3.96-28.29,7.81-42.03,3.36-12,7.32-23.86,11.83-35.48,1.99-5.12,4.06-10.09,7.33-14.56,4.09-5.61,9.59-10.29,15.85-13.31,3.14-1.51,6.38-2.32,9.78-2.97,4.07-.78,8.07-1.94,11.96-3.37s7.81-3.15,11.55-5.07,7.48-4.28,11.43-6.03c11.98-5.31,25.46-6.22,37.92-2.1,5.59,1.85,10.93,4.57,15.38,8.43,2.68,2.32,5.9,3.66,9.27,4.67,6.3,1.89,13.37,1.94,18.96,5.72,8.55,5.79,9.78,16.29,13.56,25.09,1.22,2.83,2.81,5.52,4.32,8.21,2.25,4.02,4.54,8.02,6.81,12.03,5.37,9.49,10.71,19.01,15.51,28.79,1.98,4.03,3.89,8.11,5.43,12.33.56,1.53,1.07,3.08,1.42,4.68.31,1.41.34,2.15.36,3.54.04,3.08-.22,6.17-.86,9.18-.29,1.35-.85,3.22-1.43,4.73-.21.53-.1.29-.39.92-.18.41-.38.81-.58,1.21-.1.2-.21.4-.32.6-.05.09-.36.63-.23.42s-.15.25-.2.32c-.14.22-.28.44-.43.66-.13.19-.26.38-.39.57-.06.08-.12.16-.17.24-.22.3.27-.34.04-.05-.29.37-.58.73-.89,1.08-.13.15-.51.56-.16.19-.16.17-.33.34-.5.51-.34.34-.7.67-1.06.98-.2.17.03-.02.06-.05-.11.09-.22.18-.33.27-.2.15-.39.31-.59.46-.34.26-.88.63-1.12.78-.72.46-1.78,1.02-2.68,1.44-4.76,2.19-10.19,2.72-15.37,2.56-10.22-.33-22.58-2.71-28.1-12.38-3.94-6.89-3.61-15.29-2.16-22.84,1.03-5.37,3-10.69,4.55-16.04,3.04-10.5,5.77-21.15,4.54-32.18-.73-6.58-3.03-12.83-7.02-18.14-.69-.92-4.13,2.52-3.18,3.79h0Z"/>
        <path class="cls-2" d="M485.18,325.28c-3.26,10.98-3.7,22.52-1.08,33.67.74,3.14,1.75,6.18,2.73,9.25,1.13,3.54,2.82,6.85,4.13,10.32,2.3,6.1,3.42,12.65,1.28,18.97-.31.92.25,1.3,1.07.9.99-.48,1.9-1.64,2.25-2.68,1.92-5.66,1.65-11.61-.04-17.28-1.26-4.24-3.47-8.08-4.83-12.27-2.29-7.09-4.36-14.17-4.75-21.67-.37-7.09.54-14.19,2.56-20.99.27-.91-.23-1.31-1.07-.9-.96.47-1.94,1.65-2.25,2.68h0Z"/>
        <path class="cls-2" d="M528.91,355.75c.68,2.99,1.04,6.06.76,9.13-.11,1.21-.31,2.4-.69,3.56-.13.39-.28.77-.47,1.14-.41.78.09-.12-.17.3,0,0-.24.23-.02.05-.41.33-.1.07,0,.04-.14.05-.25.16-.39.21-.23.09-.49.16-.73.19-.87.11-1.81-.17-2.57-.57-1.89-.99-3.34-2.73-4.5-4.49-3.21-4.88-4.81-11.31-4.55-17.12.1-2.18.55-4.49,1.48-6.23-.07.13.14-.07.02-.01-.1.04.39-.2.54-.25.78-.25,1.71-.11,2.46.17,2.13.8,3.79,2.8,5.02,4.63,1.86,2.78,3.03,6.02,3.82,9.25.23.96,1.75-.26,2.04-.54.63-.6,1.66-1.8,1.43-2.78-.82-3.39-2.09-6.66-4.01-9.58-1.38-2.1-3.19-4.14-5.63-4.98-5.62-1.93-9.44,5.3-10.31,9.72-1.34,6.79.37,14.63,3.89,20.52,2.4,4.02,6.91,8.45,11.62,4.9,6.16-4.64,5.98-13.83,4.44-20.58-.22-.97-1.75.26-2.04.54-.64.61-1.65,1.79-1.43,2.78Z"/>
        <g>
          <ellipse class="cls-2" cx="525" cy="359.18" rx="4.88" ry="10.96" transform="translate(-68.35 129.9) rotate(-13.25)"/>
          <path class="cls-2" d="M528.66,359.09c.44,1.92.7,3.89.59,5.86-.04.78-.13,1.57-.34,2.33-.09.35-.24,1.08-.53,1.3-.46.34-1.62-.12-2.1-.43-1.17-.75-2.05-1.94-2.74-3.12-1.89-3.24-2.89-7.25-2.83-10.99.02-1.18.01-3.11.77-4.11.33-.44,1.32-.22,1.87.06,3.11,1.55,4.55,6,5.3,9.1.19.77,2.38-1.16,2.16-2.07-.55-2.26-1.36-4.46-2.62-6.44-.84-1.32-1.93-2.69-3.46-3.21-3.44-1.18-5.6,3.52-6.04,6.15-.74,4.49.4,9.66,2.66,13.58,1.41,2.45,4.06,5.45,6.98,3.21,3.89-2.99,3.43-9.08,2.47-13.29-.17-.76-2.37,1.16-2.16,2.07Z"/>
        </g>
        <g>
          <ellipse class="cls-2" cx="570.7" cy="356.88" rx="11.65" ry="5.49" transform="translate(204.42 921.6) rotate(-89.05)"/>
          <path class="cls-2" d="M574.99,357.87c-.05,2.02-.28,4.04-.9,5.97-.31.97-.74,2.45-1.65,3.05-2.48,1.64-4.53-2.62-5.09-4.3-1.24-3.77-1.3-8.17-.24-11.99.54-1.94,1.71-5.27,4.3-3.54,1.34.89,2.09,2.48,2.59,3.96.75,2.2,1.01,4.54.99,6.85,0,.73.73.39,1.1.13.53-.37,1.29-1.22,1.3-1.92.02-2.52-.23-5.09-1.08-7.48-.56-1.58-1.46-3.44-3-4.29-3.37-1.85-6.46,2.51-7.61,5.11-2,4.55-2.27,10.2-.87,14.95.84,2.85,3.09,6.85,6.62,5.06,4.54-2.3,5.83-8.8,5.94-13.35.02-.74-.74-.38-1.1-.13-.53.38-1.28,1.21-1.3,1.92Z"/>
        </g>
        <path class="cls-2" d="M577.38,354.71c-.3,2.91-.9,5.84-2.11,8.52-.41.91-.96,1.93-1.5,2.61-.44.55-.72.89-1.46,1.19-3.95,1.59-6.32-3.73-7.1-6.64-1.5-5.64-1.02-12.1,1.08-17.53.41-1.05.9-2.09,1.54-3.02.45-.66.76-1.06,1.4-1.45,1.18-.73,2.82-.51,4,.36,1.88,1.38,2.84,3.74,3.44,5.92.9,3.27,1.02,6.69.71,10.06-.1,1.09,1.13.54,1.61.19.83-.61,1.81-1.74,1.9-2.82.32-3.51.21-7.15-.71-10.57-.63-2.37-1.73-5.06-3.78-6.56-4.84-3.55-9.99,2.81-12.04,6.59-3.35,6.17-4.33,14.09-2.91,20.93.86,4.17,3.74,10.47,9.07,8.39,3.17-1.24,5.47-4.3,7.04-7.2,1.93-3.55,2.92-7.59,3.33-11.59.11-1.1-1.14-.54-1.61-.19-.84.62-1.79,1.73-1.9,2.82Z"/>
        <path class="cls-2" d="M504.31,341.59c-.04-1.76.29-3.51,1.02-5.11.69-1.52,1.65-2.86,2.74-3.96,2.18-2.19,5.12-3.96,8.25-4.29,1.49-.16,3.04.07,4.3.91.62.42,2.13-1.53,1.59-1.9-2.77-1.86-6.44-.98-9.22.38-3.7,1.81-6.88,4.93-8.78,8.58-1.07,2.06-1.71,4.36-1.65,6.7.01.53.52.3.8.1.37-.27.96-.89.95-1.41h0Z"/>
        <path class="cls-2" d="M573,321.68c5.81-.02,10.93,4.23,14.23,8.68.66.9,1.28,1.84,1.74,2.86.3.67,2.02-1.02,1.73-1.66-.93-2.08-2.43-3.95-3.99-5.59-2.07-2.18-4.52-4.09-7.31-5.23-1.62-.67-3.32-1.06-5.08-1.06-.52,0-.98.55-1.24.94-.1.15-.58,1.05-.09,1.05h0Z"/>
        <g>
          <path class="cls-2" d="M555.19,408.13l5.66-9.02c3.75-4.89,3.24-12.83-3.76-13.5-4.64-.45-14.09.13-18.65,1.02-6.79,1.31-9.27,7.69-5.39,12.48l8.54,9.21c1.8,2.22,4.66,3.22,7.42,3.01,2.38-.18,4.68-1.25,6.17-3.2Z"/>
          <path class="cls-2" d="M556.34,408.24c1.18-1.89,2.37-3.77,3.55-5.66,1.26-2.01,2.82-4.06,3.79-6.22,1.4-3.12,1.92-7.04-.14-10s-6.27-2.92-9.61-2.9c-4.31.03-8.65.31-12.91.94s-8.19,2.83-10.38,6.83c-1.74,3.18-1.55,6.98.83,9.79,1.4,1.65,2.95,3.18,4.42,4.77l3.13,3.37c.75.81,1.47,1.72,2.36,2.38,4.73,3.55,11.12,1.5,14.57-2.77.36-.45,1.53-1.95.83-2.53s-2.03.86-2.35,1.26c-2.55,3.16-8.2,2.04-10.73-.5-1.22-1.23-2.36-2.56-3.54-3.84l-4.86-5.24c-1.54-1.66-2.68-3.77-2.25-6.11.08-.44.27-.98.42-1.24.07-.12.12-.2.23-.32.19-.19.41-.37.66-.53,1.42-.93,3.17-1.19,4.82-1.43,3.76-.55,7.59-.78,11.39-.83,3.01-.05,6.87-.43,9.16,1.92,1.95,2.01,2.03,5.26,1.04,7.74-.72,1.8-2.2,3.64-3.26,5.33-1.16,1.85-2.33,3.71-3.49,5.56-.3.48-1.12,1.84-.18,2.11.86.24,2.14-1.33,2.49-1.89Z"/>
        </g>
        <path class="cls-2" d="M564.73,422.26c-.25.53-.55,1.12-.8,1.51-.02.04-.47.66-.21.32-.06.08-.71.79-.35.42-.06.06-.54.5-.22.21-.23.2-.3.23-.34.26-.38.23-.58.32-.95.44-1.67.52-3.43.01-4.85-.93-4.69-3.12-6.42-9.47-7.12-14.71-.13-.99-1.8.31-2.04.54-.72.69-1.52,1.72-1.43,2.78.25,2.64-.04,5.35-.89,7.86-.63,1.86-1.58,3.64-2.95,4.64-4.47,3.29-9.7-.7-12.62-4.12-.79-.93-4.19,2.61-3.18,3.79,2.21,2.58,5.07,5.05,8.58,5.46,2.94.34,5.67-.98,7.83-2.86,5.11-4.43,7.31-11.49,6.7-18.09l-3.47,3.32c.76,5.63,2.94,13.37,8.71,15.89s10.39-2.97,12.52-7.55c.29-.63.58-1.7-.47-1.55-.98.14-2.07,1.55-2.45,2.36h0Z"/>
        <path class="cls-2" d="M504.56,385.13c-3.02,1.33-5.49,4.03-7.48,6.58-2.25,2.89-4.23,6.13-5.34,9.64-.14.46.12.65.54.45.49-.24.96-.82,1.12-1.34.93-2.94,2.55-5.69,4.44-8.12,1.65-2.12,3.62-4.32,6.13-5.43.49-.22.98-.83,1.12-1.34.14-.48-.1-.64-.54-.45h0Z"/>
      </g>
      <g id="kat">
        <path class="cls-2" d="M66.26,261.82c-11.18-3.83-23.43-6.66-35.26-4.62-5.68.98-11.12,3.33-15.56,7.04-5.51,4.59-9.4,10.73-11.79,17.45-3.02,8.49-3.83,17.78-3.62,26.74.19,8.23,1.49,16.55,4.83,24.13,4.88,11.05,14.24,19.82,26.37,21.94,10.82,1.9,22.14-1.94,29.76-9.81,1.03-1.07,2.02-2.17,2.91-3.35.45-.59,1.83-2.3,1-3.05-.77-.71-2.48,1.06-2.83,1.52-.37.49-.75.97-1.15,1.43-.22.26-.45.5-.67.76.53-.6-.08.08-.29.29-.42.43-.87.83-1.31,1.24-.59.54.23-.17-.28.24-.28.23-.57.46-.86.68-.47.36-.96.7-1.45,1.04-.11.07-.22.15-.33.22.42-.28.12-.08.03-.02-.28.17-.56.35-.85.51-1.08.63-2.2,1.19-3.34,1.68-.37.16-.14.06-.06.03-.15.06-.3.12-.46.18-.28.11-.55.21-.83.31-.62.22-1.25.42-1.88.6-1.17.34-2.36.6-3.57.8-2.35.39-4.82.47-7.24.28-11.09-.85-20.76-7.64-26.29-17.16-3.69-6.36-5.67-13.59-6.52-20.86-1.03-8.78-.7-18.08,1.25-26.71.77-3.41,1.87-6.76,3.31-9.69.32-.64.66-1.28,1.01-1.9.24-.42-.34.55.07-.12.08-.14.17-.28.25-.42.21-.34.43-.68.65-1.01s.45-.64.68-.97c.09-.12.36-.46-.06.08.09-.12.19-.24.28-.36.47-.59.96-1.16,1.47-1.72-.56.61.17-.16.3-.3.23-.23.47-.46.71-.68.12-.11.79-.7.53-.49-.34.29.2-.17.22-.18.17-.13.33-.27.5-.4.5-.39,1.02-.76,1.55-1.12.08-.05.39-.26,0,0,.12-.08.24-.15.36-.22.33-.2.66-.4.99-.58,2.33-1.31,4.34-2.07,6.99-2.75,10.87-2.77,22.66-.43,33.16,2.79,1.37.42,2.73.86,4.08,1.33,1.52.52,5-4.2,3.21-4.81h0Z"/>
        <path class="cls-2" d="M178.01,286.15c11.06-11.63,19.98-25.66,26.39-40.35,3.22-7.38,5.87-15.06,7.18-23.03.63-3.87,1.44-8.23-1.29-11.5-2.03-2.42-5.38-3.47-8.39-3.98-4.29-.72-8.71-.46-13,.08-10.4,1.31-20.69,4.71-30,9.46-8.42,4.3-17.6,10.46-21.68,19.34-.43.94-.81,1.89-1.1,2.88-.31,1.07.27,1.62,1.29,1.08,1.15-.59,2.35-1.97,2.71-3.23.11-.38.23-.75.36-1.12.05-.13.34-.83.07-.21.09-.21.19-.42.29-.63.18-.37.38-.73.57-1.09.23-.43-.3.46.05-.08.15-.23.29-.47.45-.69.12-.18.25-.36.37-.54.39-.58-.3.36.03-.05.31-.38.6-.76.92-1.13.15-.18.31-.35.46-.52.09-.1.18-.2.27-.3,0,0-.44.46-.2.21.39-.39.77-.79,1.17-1.17.36-.34.72-.68,1.09-1,.18-.16.61-.52.19-.17.22-.19.45-.38.68-.56.88-.71,1.78-1.39,2.71-2.04,1.91-1.35,3.53-2.34,5.79-3.58,8.66-4.75,18.24-8.04,27.99-9.7,4.14-.71,8.38-1.09,12.58-.78,3.14.23,6.41.8,8.98,2.65,1.02.74,1.91,1.74,2.36,2.67.64,1.35.76,2.56.68,3.77-.43,7.12-2.5,14.16-5,20.8-5.24,13.93-13.18,27.29-22.73,38.47-.54.64-1.09,1.26-1.65,1.89-.25.28-.51.56-.77.84-.03.04-.4.43-.11.12-.14.15-.29.31-.43.46-.64.68-2.18,2.26-1.72,3.34s2.05-.22,2.46-.65h0Z"/>
        <path class="cls-2" d="M175.92,343.51c10.96,11.33,21.78,23.03,30.35,36.32,4.22,6.54,7.98,13.63,9.87,21.23.41,1.66.73,3.35.92,5.06.04.35.08.7.1,1.04-.02-.33,0,.17,0,.27-.01.39-.04.77-.09,1.16-.02.15-.15.68,0,.1-.04.16-.08.32-.13.47-.05.15-.13.31-.16.46-.05.25.33-.49-.02.02-.06.09-.38.65-.07.16s-.04.05-.11.14c-.37.5.47-.67.11-.16-.05.07-.1.13-.16.19-.35.39.25-.22.25-.26,0,.05-.31.33-.36.35-.03,0-.16.13-.19.17.56-.6.42-.33.26-.22-.14.09-.28.21-.41.31-.07.05-.15.1-.22.15-.4.29.51-.3.08-.05-.32.19-.64.37-.97.54-.17.09-.35.17-.52.25-.32.15-.44.19-.27.12-1.73.68-3.55,1.12-5.38,1.4-4.4.69-9.18.55-13.7.13-10.98-1.02-21.98-3.84-32.11-8.19-4.66-2-9.23-4.37-13.33-7.38-3.13-2.3-6.27-5.12-8.02-8.62-.38-.75-.68-1.53-.92-2.34-.45-1.54-4.68,2.29-4.18,4,1.12,3.84,3.88,7.03,6.85,9.59,3.84,3.31,8.32,5.87,12.89,8.02,10.38,4.9,21.75,8.09,33.14,9.47,4.97.6,10.03.85,15.01.29,4.01-.44,8.09-1.4,11.39-3.84s5.71-6.07,5.54-10.14c-.32-7.49-3.5-14.85-7.03-21.35-8.06-14.83-19.51-27.66-31.1-39.8-1.16-1.21-2.32-2.42-3.49-3.63-1.08-1.12-5.09,3.26-3.83,4.57h0Z"/>
        <path class="cls-2" d="M183.49,345.93c2.71-3.4,4.46-7.48,5.68-11.63,1.43-4.85,2.21-9.9,2.6-14.93.41-5.3.38-10.64-.05-15.95-.4-4.88-1.13-9.76-2.47-14.47-1.02-3.61-2.4-7.31-4.75-10.29-.24-.3-.49-.59-.75-.88-.52-.56-2.54,1.61-1.92,2.28,2.4,2.57,3.79,5.99,4.85,9.29,1.42,4.44,2.24,9.08,2.73,13.71.55,5.14.67,10.32.4,15.48s-.86,9.9-2.06,14.7c-.31,1.23-.66,2.46-1.06,3.67-.19.58-.39,1.15-.61,1.72s-.41,1.05-.59,1.46c-.44,1.02-.94,2.01-1.49,2.98-.19.33.15-.24-.05.08-.08.13-.16.26-.24.38-.14.22-.28.44-.42.65s-.29.41-.44.62c-.21.31.21-.26-.02.02-.09.11-.17.22-.26.33-.23.29-.91,1.15-.5,1.52s1.24-.53,1.41-.76h0Z"/>
        <path class="cls-2" d="M145.6,227.04c-2.87-3.26-6.28-6.01-9.92-8.36-4.11-2.65-8.53-4.79-13.08-6.56-4.93-1.91-10.04-3.37-15.22-4.42-5.44-1.1-10.98-1.76-16.53-1.98s-11.38.03-17.01.78-11.1,1.98-16.43,3.8-10.43,4.19-15.17,7.2-9.41,6.88-13.3,11.22-7.4,9.64-9.95,15.13c-2.82,6.07-4.67,12.55-5.7,19.16-.27,1.74-.49,3.5-.65,5.26-.06.66.68.33.97.11.5-.37,1.09-1.04,1.15-1.7.63-6.68,2.01-13.28,4.4-19.55,1.04-2.72,2.3-5.42,3.78-8.04.1-.17.19-.34.29-.51.04-.07.09-.15.13-.22.11-.19-.1.17.01-.02.19-.31.37-.63.57-.94.38-.62.77-1.22,1.17-1.82s.81-1.18,1.23-1.76c.11-.15.22-.3.33-.46.05-.07.1-.13.15-.2.14-.18-.15.2-.01.02.21-.28.43-.56.65-.84.87-1.1,1.78-2.17,2.72-3.21.12-.14.25-.27.37-.41.15-.17-.17.18-.02.02.06-.06.11-.12.17-.18.24-.25.48-.5.72-.75.5-.51,1.01-1,1.53-1.49s1.01-.94,1.53-1.39c.12-.11.24-.21.37-.32.06-.05.12-.11.18-.16.16-.14-.16.14,0,0,.28-.23.56-.47.84-.7,1.06-.87,2.15-1.69,3.27-2.49,2.19-1.55,4.34-2.87,6.82-4.18s4.86-2.4,7.35-3.36c5.16-2,10.54-3.43,16-4.36s11.02-1.34,16.57-1.31,11.01.51,16.44,1.42,10.4,2.15,15.42,3.87c4.62,1.58,9.11,3.55,13.34,5.98,3.81,2.19,7.42,4.77,10.56,7.85.71.69,1.39,1.41,2.04,2.15.49.56,2.53-1.59,1.92-2.28h0Z"/>
        <path class="cls-2" d="M145.01,397.92c-.76.6-1.54,1.17-2.35,1.71-.1.07-.2.13-.3.2-.05.03-.1.06-.15.1-.14.09.19-.12.04-.03-.21.14-.43.27-.65.41-.44.27-.89.53-1.33.79-.9.51-1.81.98-2.74,1.43-.49.24-.99.47-1.49.69-.55.24-.9.39-1.34.57-4.35,1.77-8.91,3.01-13.52,3.88-5.07.96-10.23,1.47-15.39,1.62-5.52.16-11.05-.1-16.54-.74s-11.19-1.71-16.64-3.18c-5.48-1.48-10.85-3.39-16-5.78s-9.85-5.13-14.3-8.43-8.41-7.01-11.85-11.25-6.32-9.02-8.42-14.11c-2.25-5.47-3.6-11.28-4.13-17.16-.14-1.52-.22-3.05-.25-4.58-.01-.63-.63-.36-.97-.11-.45.33-1.16,1.08-1.15,1.7.12,6.17,1.03,12.33,2.95,18.2,1.74,5.35,4.3,10.43,7.53,15.04s6.95,8.53,11.17,12.05,8.99,6.62,13.94,9.2,10.38,4.77,15.83,6.47,11.11,2.99,16.8,3.84,11.17,1.27,16.78,1.3,10.71-.33,16-1.12c4.8-.72,9.56-1.81,14.15-3.41,4.15-1.45,8.17-3.32,11.83-5.78.79-.53,1.56-1.1,2.31-1.69.48-.38,1.13-1.04,1.15-1.7s-.66-.36-.97-.11h0Z"/>
        <path class="cls-2" d="M109.23,286.34c-6.14.59-12.92-1.21-16.68-6.42-1.59-2.2-2.31-5-1.94-7.69.16-1.16.53-2.23,1.11-3.22.18-.31.42-.64.68-.95.29-.36.64-.73,1.14-1.16,4.73-4.09,12.26-4.86,18.15-3.02,5.25,1.64,10.27,6.19,10.09,12.09-.04,1.43-.37,2.8-.99,4.03-.24.47-.58.98-.79,1.24-.41.5-.64.77-1.24,1.29-2.55,2.18-6.13,3.44-9.52,3.83-1.28.15-2.31,1.24-2.99,2.27-.19.28-1.4,2.67-.21,2.54,7.91-.9,15.5-5.64,18.73-13.12,1.38-3.21,1.75-6.85.45-10.16-1.22-3.11-3.64-5.6-6.53-7.21-6.77-3.77-15.63-3.22-22.17.79-6.2,3.8-11.89,11.27-9.79,18.93,2.24,8.16,11.65,11.51,19.32,10.77,1.28-.12,2.32-1.26,2.99-2.27.2-.3,1.4-2.65.21-2.54Z"/>
        <g>
          <ellipse class="cls-2" cx="99.72" cy="275.38" rx="11.33" ry="9" transform="translate(-28.38 12) rotate(-6.03)"/>
          <path class="cls-2" d="M101.68,282.79c-3.84.36-8.04-.71-10.48-3.9-1.96-2.56-2.01-6.39.55-8.55,3.06-2.58,7.75-3.03,11.47-1.88,3.32,1.03,6.48,3.85,6.46,7.56-.02,4.41-4.46,6.34-8.26,6.79-.99.12-2.99,3.18-1.52,3,5.02-.59,9.8-3.8,11.76-8.56,1.75-4.26-.08-8.73-4.07-10.89-4.42-2.4-10.08-1.93-14.28.72-3.76,2.37-7.11,6.9-6.06,11.56,1.22,5.42,7.41,7.66,12.39,7.19.81-.08,1.48-.8,1.91-1.45.13-.19.89-1.69.14-1.62Z"/>
        </g>
        <g>
          <ellipse class="cls-2" cx="101.44" cy="344.8" rx="10.04" ry="11.33" transform="translate(-253.48 401.37) rotate(-82.66)"/>
          <path class="cls-2" d="M101.24,353.14c-3.96-.56-7.75-3-9.15-6.87-1.2-3.32-.36-6.98,2.85-8.7,3.66-1.95,8.42-1.5,11.83.78,3.14,2.1,5.3,5.94,4.34,9.77-1.06,4.24-6.05,5.47-9.87,5.02-1.17-.14-3.25,3.11-2.16,3.24,5.3.61,10.51-1.97,13.31-6.52,2.59-4.22,2.32-9.43-1.2-13.05s-9.24-4.62-13.88-2.78-8.61,6.45-8.6,11.56c.01,5.81,4.9,10.01,10.37,10.79,1.16.16,3.27-3.08,2.16-3.24Z"/>
        </g>
        <path class="cls-2" d="M105.28,357.27c-5.91-1.21-11.93-4.99-13.87-10.99-.77-2.38-.81-5.07.28-7.31.41-.85.8-1.3,1.5-1.88,1.02-.84,2.2-1.49,3.43-1.96,6.14-2.35,13.55-1.17,18.86,2.62,4.33,3.09,7.93,8.76,5.91,14.21-.24.64-.39.9-.71,1.4-.04.06-.35.47-.07.11-.13.16-.26.32-.4.48.27-.3-.34.33-.44.43-.77.71-2.22,1.57-3.45,2.06-3.51,1.4-7.35,1.52-11.04.84-1.68-.31-4.91,4.49-3.21,4.81,7.98,1.49,16.18-1.32,21.02-7.96,2.11-2.89,3.31-6.35,3.02-9.94-.27-3.31-1.94-6.4-4.22-8.77-5.33-5.56-14.08-7.56-21.41-5.48s-13.85,8.5-13.88,16.19c-.03,8.55,7.75,14.38,15.47,15.96,1.67.34,4.92-4.46,3.21-4.81Z"/>
        <g>
          <path class="cls-2" d="M40.86,311.64l6.35,5.25c3.33,3.1,9.21,3.28,10.19-1.82.65-3.38.89-10.37.56-13.79-.49-5.09-5.01-7.36-8.8-4.84l-7.48,5.18c-1.76,1.17-2.7,3.2-2.74,5.25-.04,1.76.59,3.53,1.92,4.77Z"/>
          <path class="cls-2" d="M38.94,313.92c1.24,1.03,2.48,2.05,3.72,3.08s2.53,2.3,3.93,3.17c2.31,1.42,5.17,1.79,7.64.55,3.37-1.69,5.07-5.2,5.52-8.77.41-3.19.52-6.45.45-9.66-.06-2.9-.25-6.11-2.73-8.05-4.17-3.26-8.71.8-12.13,3.17-1.94,1.34-4.07,2.59-5.64,4.38-2.93,3.34-4.26,8.71-.76,12.15,1.13,1.11,5.1-3.31,3.83-4.57-1.09-1.07-1.74-2.53-1.72-4.07,0-.63.09-1.3.36-1.88-.14.31.29-.19.06-.07-.08.04-.6.51.03.1,1.07-.71,2.1-1.46,3.15-2.18,1.34-.93,2.69-1.85,4.03-2.79.1-.07.19-.13.29-.2-.66.46.09-.04.28-.12.21-.09.52-.19.8-.25.97-.21,2.06-.03,2.92.45,2.24,1.25,2.86,3.68,2.97,6.08.12,2.76.03,5.54-.18,8.3-.1,1.24-.18,2.52-.44,3.74-.04.19-.09.36-.15.55-.1.3.02,0,.02-.03,0,.15-.35.41.04-.04.12-.14.23-.28.35-.42.41-.46-.29.28.1-.09.31-.3-.04,0-.04.01.08-.21.28-.12-.08,0-.22.08-.02,0,.02-.01-.13.04-.26.09-.39.12-.2.05-.4.1-.61.12-.49.05-1.02,0-1.5-.08-1.11-.18-2.12-.61-3.04-1.25-1.27-.88-2.43-1.99-3.62-2.98s-2.43-2.01-3.64-3.01c-1.3-1.08-5.14,3.49-3.83,4.57Z"/>
        </g>
        <path class="cls-2" d="M126.05,261.09c4.79,2.16,8.83,5.77,10.26,10.97.51,1.86.68,3.79.56,5.72-.05.82-.14,1.63-.28,2.44-.06.36-.13.72-.21,1.08.05-.24-.05.2-.07.29-.04.16-.08.31-.12.47-.14.51-.29,1.02-.47,1.52-.06.18-.37.93-.1.3-.15.35-.37,1.06.28.93.59-.12,1.25-.9,1.47-1.42.87-2.04,1.35-4.27,1.55-6.46.4-4.28-.5-8.61-3.09-12.1-2-2.71-4.83-4.64-7.87-6.01-.88-.4-2.52,2.01-1.92,2.28h0Z"/>
        <path class="cls-2" d="M125.5,366.69c5.72-1.9,10.6-5.73,12.92-11.4,1.42-3.47,1.67-7.36,1.11-11.04-.12-.77-.26-1.55-.49-2.3s-2.35,1.15-2.09,2c.56,1.83.74,3.81.74,5.61s-.24,3.67-.74,5.34c-.15.48-.31.95-.5,1.42,0,0-.08.18-.03.06.06-.13-.04.09-.05.12-.05.1-.09.21-.14.31-.12.26-.26.52-.4.78-.06.1-.11.21-.17.31.13-.23-.05.07-.09.15-.15.24-.31.48-.47.71-.05.07-.3.41-.09.13-.08.1-.15.2-.23.3-.19.23-.38.46-.58.68-.04.05-.2.21,0,0-.06.06-.12.13-.18.19-.12.13-.25.25-.38.37-.11.11-.23.22-.35.32-.07.06-.14.12-.21.18-.18.15.14-.11-.04.04-.53.44-1.14.89-1.69,1.23-1.45.91-3.02,1.59-4.65,2.13-.64.21-1.18.83-1.47,1.42-.15.3-.37,1.15.28.93h0Z"/>
        <path class="cls-2" d="M40.54,304.2c-4.15-.4-8.49-1.17-12.29-2.95-1.6-.75-3.2-1.71-4.32-3.1-.44-.54-.72-1.09-.9-1.84-.04-.16-.07-.33-.09-.5-.05-.34-.02.01-.01-.25,0-.21.02-.41.04-.61,0-.08.03-.16.04-.23.03-.23-.1.32.01-.05.04-.13.27-.8.17-.54-.11.28.2-.35.25-.48.13-.35-.28.41-.06.09.1-.15.19-.3.29-.45.08-.12.17-.25.26-.37-.14.2-.27.35-.04.07.11-.13.21-.26.32-.38,0,0,.52-.57.26-.29s.15-.15.21-.2c.17-.17.34-.34.52-.5.73-.69,1.14-1.01,1.94-1.64.99-.77,2.2-2.07,2.29-3.4s-1.35-.68-1.94-.23c-2.96,2.3-5.79,4.95-7.58,8.28-1.01,1.89-1.69,4.26-.85,6.34,1.56,3.9,6.51,5.57,10.2,6.58,2.64.73,5.35,1.19,8.07,1.45,1.19.11,2.42-1.4,2.99-2.27.29-.43,1.39-2.42.21-2.54h0Z"/>
        <path class="cls-2" d="M34.66,303.42c-2.99.5-5.99,1.5-8.39,3.41-3.5,2.78-5.67,6.89-4.75,11.4.63,3.11,2.36,5.94,4.14,8.51.75,1.09,4.93-2.97,3.83-4.57-1.42-2.06-2.71-4.25-3.46-6.66-.25-.81-.47-1.77-.52-2.56-.01-.24,0-.65.02-.96.02-.2.04-.39.07-.58.01-.08.03-.16.04-.24.05-.29-.09.32,0,.05.04-.15.09-.3.14-.45.13-.45-.09.12-.02.02.07-.11.16-.28.2-.4.08-.27-.15.34-.18.3,0,0,.14-.23.16-.25.35-.52-.14.18-.09.11.08-.11.45-.5.06-.09s0,.03.09-.07c.4-.42-.41.29-.06.04.24-.17.47-.34.7-.51-.36.26-.24.15.03,0,.15-.08.3-.17.45-.25.26-.14.53-.25.79-.38.35-.17-.31.11.06-.02.16-.06.32-.12.48-.18,1.25-.45,2.55-.75,3.86-.98s2.42-1.8,2.95-2.85c.37-.75.72-2.08-.56-1.87h0Z"/>
        <path class="cls-2" d="M43.18,285.9c2.79-9.95,4.35-20.26,4.2-30.61-.12-8.39-1.33-16.77-3.69-24.83-1.87-6.4-4.46-12.59-7.7-18.42-2.3-4.14-4.92-8.11-7.88-11.8-.89-1.11-1.81-2.19-2.77-3.23-.41-.45-.85-1.06-1.36-1.41-.02-.01-.04-.04-.06-.06-.59-.55-2.56,1.68-1.92,2.28,1.21,1.13,2.3,2.41,3.36,3.68,2.79,3.35,5.29,6.95,7.5,10.71,3.24,5.52,5.89,11.39,7.88,17.48,2.51,7.66,4,15.66,4.41,23.7.5,9.93-.57,19.93-2.92,29.59-.33,1.34-.68,2.67-1.05,3.99-.15.54.13.81.65.54.57-.3,1.18-.98,1.35-1.61h0Z"/>
        <path class="cls-2" d="M34.48,292.56c1.53-8.56,1.41-17.35.02-25.92-1.31-8.05-3.72-15.89-6.87-23.4-2.79-6.68-6.17-13.1-9.96-19.26-2.84-4.62-5.93-9.1-9.25-13.38-1.02-1.32-2.07-2.62-3.14-3.9-.47-.56-.94-1.27-1.51-1.74-.02-.02-.04-.05-.06-.07-.51-.56-2.54,1.61-1.92,2.28,1.32,1.44,2.56,2.98,3.78,4.51,3.14,3.97,6.07,8.11,8.8,12.38,3.78,5.91,7.16,12.09,10.02,18.5,3.27,7.34,5.87,15,7.45,22.89,1.67,8.38,2.15,17,1.03,25.48-.14,1.08-.31,2.15-.5,3.21-.12.67.72.3.97.11.54-.4,1.03-1.03,1.15-1.7h0Z"/>
        <path class="cls-2" d="M40.74,325.41c3.84,7.82,6.08,16.33,7.11,24.96s.87,16.92,0,25.34c-.78,7.57-2.14,15.07-3.98,22.45-1.39,5.58-3.03,11.1-4.94,16.52-.59,1.68-1.21,3.35-1.86,5.01-.2.51-.4,1.01-.61,1.52-.07.16-.14.33-.2.49.18-.44.06-.14-.01.02-.01.03-.03.07-.04.1-.15.35-.36,1.06.28.93.59-.12,1.25-.9,1.47-1.42.89-2.03,1.67-4.12,2.43-6.2,1.86-5.14,3.48-10.37,4.87-15.65,1.93-7.33,3.43-14.79,4.36-22.31,1.04-8.42,1.37-16.94.66-25.39s-2.61-17.34-6.08-25.37c-.44-1.01-.9-2-1.38-2.99-.4-.82-2.46,1.25-2.09,2h0Z"/>
        <path class="cls-2" d="M32.49,325.44c.97,7.78.83,15.66.03,23.44s-2.23,15.36-4.11,22.89c-1.67,6.68-3.68,13.28-5.96,19.78-.94,2.67-1.92,5.33-2.96,7.97-.44,1.13-.89,2.25-1.35,3.37-.21.51-.42,1.01-.63,1.51-.05.12-.1.25-.16.37-.09.2.07-.16-.05.12-.1.23-.2.47-.3.7-.88,2.07-1.82,4.12-2.77,6.16-.01.03-.03.06-.04.08-.17.35-.35,1.06.28.93s1.22-.9,1.47-1.42c.82-1.68,1.57-3.39,2.32-5.1,1.95-4.51,3.76-9.08,5.43-13.69,2.32-6.41,4.37-12.91,6.1-19.5,1.98-7.53,3.55-15.17,4.51-22.9s1.3-15.89.58-23.82c-.09-.96-.19-1.92-.31-2.88-.07-.6-1.09.19-1.23.33-.42.4-.94,1.04-.86,1.67h0Z"/>
      </g>
      <g id="hamster">
        <path class="cls-2" d="M267.26,375.47c-4.11,8.18-6.19,17.28-5.22,26.43.82,7.72,3.89,15.16,8.78,21.19s11.09,10.16,18.29,12.2c7.62,2.16,15.68,1.34,22.93-1.74,4.41-1.87,8.42-4.55,12.05-7.65,1.32-1.13,2.56-2.33,3.84-3.51.5-.46,1.01-.93,1.53-1.37-.45.39.15-.12.31-.24.26-.21.53-.42.8-.61.12-.09.87-.58.4-.29.22-.14.45-.28.68-.4s.46-.25.7-.36c.46-.22.33-.16.62-.27,1.16-.42,2.37-.7,3.6-.82,4.11-.41,8.34.2,12.39.8s8.23,1.4,12.52.99c3.79-.37,7.41-1.36,10.89-2.88,7.26-3.18,13.42-8.73,17.92-15.2,4.41-6.35,7.27-13.95,7.55-21.71.29-8.19-2.34-16.09-7.24-22.63-1.34-1.79-2.84-3.45-4.45-5.02-1.04-1.02-4.67,3.04-3.5,4.17,5.9,5.74,10.05,13.02,11.1,21.24.89,6.95-.6,14.11-3.88,20.26-1.53,2.87-3.56,5.59-5.65,7.69-2.34,2.36-4.87,4.31-7.91,5.96-6.3,3.41-13.58,4.64-20.64,3.36-4.38-.8-8.88-1.48-13.34-1.53-2.82-.03-5.61.29-8.21,1.43-2.42,1.06-4.47,2.79-6.41,4.55-2.77,2.51-5.42,5.06-8.6,7.08-6.48,4.13-14.15,6.21-21.82,5.35-7.09-.79-13.69-3.99-18.95-8.76-11.76-10.65-15.45-27.66-10.44-42.53.7-2.09,1.57-4.1,2.56-6.07.34-.67.63-1.9-.51-1.71s-2.23,1.68-2.69,2.6h0Z"/>
        <path class="cls-2" d="M282.54,310.29c-6.92-4.68-13.61-9.68-20.33-14.64-3.86-2.86-8.65-5.29-13.59-4.59-4.49.64-8.16,4.28-9.93,8.31-.99,2.27-1.49,4.71-1.53,7.18-.06,3.01.45,5.99.28,9.01-.07,1.18-.19,2.37-.43,3.54-.16.79-.56,2.07-.75,2.5-.16.38-.35.75-.55,1.12s.32-.49-.04.07c-.11.17-.24.34-.34.51-.34.58.4-.44-.04.05-.12.14-.24.29-.37.44-.08.1-.17.19-.25.28.55-.62-.01,0-.14.12s-.26.24-.39.36c-.44.41.45-.36-.02.02-.21.17-.43.35-.65.51-.49.38-1.01.73-1.51,1.1-1.63,1.2-3.03,2.71-4.17,4.38-2.55,3.74-3.77,8.49-2.06,12.83,1.32,3.35,3.94,5.85,6.71,8.03s5.86,4.21,9.04,5.91c2.9,1.55,6.02,3.03,9.23,3.83,1.48.37,4.53-3.99,2.93-4.4-2.38-.6-4.68-1.63-6.87-2.7-2.48-1.21-4.88-2.61-7.16-4.15-2.69-1.81-5.46-3.79-7.6-6.25-2.84-3.26-4.22-7.95-2.33-11.78.11-.22.22-.44.34-.65-.05.09-.23.37.03-.05.13-.2.26-.39.39-.58-.34.49-.06.08.04-.04.12-.14.23-.27.35-.41.44-.54-.44.37.07-.07.1-.08.19-.18.28-.27.33-.32-.4.26.18-.15,1.09-.76,2.16-1.56,3.17-2.44,2.72-2.36,4.78-5.48,5.79-8.94.68-2.31.96-4.71.98-7.11.03-2.85-.47-5.69-.28-8.54.12-1.82.6-4.02,1.38-5.28-.17.28.27-.39.24-.34-.38.5.11-.13.16-.18-.57.58.71-.62.2-.18.38-.32,1.03-.68,1.74-.92,4.18-1.39,8.83.67,12.29,2.93,2.98,1.95,5.77,4.23,8.64,6.33,2.39,1.75,4.8,3.49,7.22,5.2,2.02,1.43,4.04,2.86,6.1,4.25,1.36.92,4.7-3.37,3.5-4.17h0Z"/>
        <path class="cls-2" d="M356.09,296.33c.04-.09.25-.59.03-.09.08-.17.15-.35.23-.52.15-.32.3-.64.46-.95.45-.9.94-1.79,1.44-2.67.99-1.73,2.27-3.75,3.49-5.59,2.62-3.93,5.69-8.12,8.73-11.32,2.37-2.5,5.19-5.29,8.87-5.92s6.27,2.49,7.71,5.51c2.26,4.73,2.73,10.3,5.9,14.6,1.36,1.85,3.08,2.36,5.22,2.78,2.43.49,4.53,2.27,6.19,4.19,2.76,3.18,4.24,7.46,3.26,11.65-.78,3.35-3.06,6.07-5.05,8.79-1.7,2.33-3.46,4.62-5.38,6.77-.62.7-1.09,1.2-1.97,2.03-.96.91-.99.94-1.99,1.68-1.07.79-2.57,1.66-3.91,2.22-1.17.49-2.13,1.47-2.69,2.6-.24.47-.67,2.2.51,1.71,3.7-1.54,6.88-3.8,9.68-6.66,4.3-4.38,8.17-9.49,11.49-14.64,3.06-4.75,4.67-10.58,2.31-15.97-1.41-3.23-4.02-6.39-7.21-7.99-1.84-.92-4.04-.72-5.58-1.88-1.31-.99-2.13-2.5-2.8-3.96-1.35-2.95-2.06-6.1-3.16-9.13-1.37-3.78-3.83-8.61-8.46-8.78-4.3-.15-8.32,3.03-11.35,5.71-4.63,4.1-8.43,9.26-11.91,14.33-2.9,4.22-5.86,8.67-7.74,13.45-.4,1.01.32,1.41,1.18.99,1.14-.55,2.02-1.8,2.48-2.95h0Z"/>
        <path class="cls-2" d="M359.57,288.12c-4.63-4.22-9.87-7.78-15.53-10.49s-11.77-4.6-18.02-5.37-12.87-.4-19.08,1.22c-6.81,1.77-13.19,5.03-18.79,9.28-6.79,5.16-12.45,11.71-17.09,18.84-.64.98-1.26,1.98-1.86,2.99-.16.27-.62,1.01-.1,1.16.47.13,1.18-.73,1.37-1.04,4.24-7.07,9.39-13.67,15.78-18.91,5.28-4.34,11.32-7.71,17.88-9.68,6.04-1.81,12.38-2.41,18.65-1.85s12.15,2.16,17.77,4.65,10.86,5.8,15.54,9.77c.59.5,1.16,1,1.73,1.52s2.34-1.55,1.75-2.09h0Z"/>
        <path class="cls-2" d="M240.09,355.23c-5.06,16.05-6.59,33.32-4.98,50.05,1.31,13.69,4.87,27.37,12.77,38.79,6,8.68,14.21,15.58,23.73,20.12,11.56,5.52,24.47,7.6,37.2,7.77,16.9.21,33.75-2.8,50.09-6.91,12.56-3.15,25.25-7.17,36.42-13.87,8.04-4.82,15.15-11.21,19.97-19.32s6.95-16.45,8.22-25.29c2.04-14.12,1.99-28.63-1.68-42.48-3.34-12.61-9.69-24.96-19.56-33.71-1.86-1.65-3.85-3.15-5.97-4.46-.71-.44-2.34,1.72-1.75,2.09,10.12,6.27,17.32,16.65,21.84,27.48,5.95,14.26,7.41,29.84,6.03,45.13-.79,8.84-2.21,17.84-5.81,26.01s-8.68,14.15-15.64,19.26c-9.38,6.89-20.53,11.13-31.6,14.44-7.72,2.31-15.58,4.14-23.48,5.73-8.48,1.7-17.06,2.96-25.7,3.46-13.36.79-27.08-.13-39.8-4.54-10.02-3.47-19.17-9.27-26.22-17.22-8.24-9.28-13.02-20.75-15.45-32.82-3.24-16.05-2.98-32.97.21-49,.79-3.95,1.78-7.86,3-11.7.16-.51-.13-.7-.59-.5-.54.24-1.06.92-1.24,1.48h0Z"/>
        <path class="cls-2" d="M324.25,411.01c3.13.89,6.34,1.62,9.59.89,4.7-1.06,8.28-4.95,10.84-8.8.31-.47,1.25-2.11.2-2.32s-2.29,1.41-2.74,2.08c-.19.28-.38.56-.57.83s-.11.15-.23.31c-.16.2-.31.39-.48.59,0,0-.6.67-.27.32-.75.8-.88.9-1.71,1.48-.18.12.11-.06-.19.12-.19.11-.38.22-.58.32-.32.16-.51.26-.72.33-.69.26-1.41.45-2.14.55-2.7.38-5.48-.39-8.06-1.12-1.45-.41-4.55,3.94-2.93,4.4h0Z"/>
        <path class="cls-2" d="M330.55,397.54c.95,4.04,1.9,8.08,2.85,12.11.13.57.27,1.14.4,1.7.25,1.06,1.93-.28,2.25-.6.69-.68,1.83-1.96,1.57-3.06-.95-4.04-1.9-8.08-2.85-12.11-.13-.57-.27-1.14-.4-1.7-.25-1.06-1.93.28-2.25.6-.69.68-1.83,1.96-1.57,3.06h0Z"/>
        <path class="cls-2" d="M295.83,358.82c.6,1.8.97,3.68.82,5.58-.05.66-.15,1.29-.35,1.92-.08.24-.09.28-.25.59.28-.53-.25.26.06-.09.14-.16.47-.41.13-.17.47-.35.19-.13-.03-.04-.05.02-.41.12-.55.14-.58.09-1.23-.03-1.79-.2-1.24-.39-2.33-1.3-3.2-2.23-2.37-2.53-3.81-6.27-3.79-9.73,0-.77.06-1.56.24-2.3.04-.17.24-.76.19-.66.06-.15.14-.29.21-.43-.27.51.37-.39-.14.2-.08.09-.43.34-.05.05-.02.01-.3.26-.31.23-.02-.07.5-.23.51-.23.52-.15,1.04-.14,1.57-.04,3.42.62,5.67,4.44,6.73,7.41.52,1.45,4.36-2.15,3.82-3.65-1.23-3.44-3.84-7.64-7.82-8.19-4.48-.62-7.84,4.44-8.59,8.25-.87,4.4.64,9.35,3.49,12.76,1.16,1.39,2.64,2.55,4.41,3.02s3.53-.13,4.95-1.19c4.6-3.42,5.27-9.54,3.56-14.65-.48-1.43-4.33,2.13-3.82,3.65Z"/>
        <ellipse class="cls-1" cx="293.8" cy="362.95" rx="4.15" ry="5.97" transform="translate(-75.37 77.01) rotate(-13.25)"/>
        <ellipse class="cls-3" cx="361.69" cy="346.44" rx="4.21" ry="5.85" transform="translate(-33.09 38.24) rotate(-5.79)"/>
        <path class="cls-2" d="M366.35,343.76c.04,1.76-.12,3.54-.74,5.2-.1.27-.2.49-.34.76-.02.04-.24.43-.06.13-.09.15-.19.29-.29.43.25-.35-.01.02-.02,0-.17-.14.69-.22,0-.02.02,0,.5-.24-.03,0,.27-.13-.06.04-.17.09-2.29.94-4.61-1.27-5.64-3.32-1.54-3.07-1.94-6.95-.95-10.24.17-.56.47-1.32.66-1.64-.13.22.15-.23.18-.27.25-.36-.28.28.02-.02s-.31.29,0,0c.17-.16-.28.07.11-.09-.42.18.44-.21.21-.12.25-.1.55-.18.82-.21.52-.05,1.13.07,1.61.27,3.26,1.36,4.48,5.86,4.62,9.02.05,1.15,1.14.68,1.77.21.8-.59,2.15-1.98,2.1-3.11-.17-3.71-1.35-8.77-5.18-10.38-4.16-1.75-8.06,2.65-9.67,6-2,4.15-2.25,9.45-.36,13.69,1.47,3.28,4.53,5.97,8.22,4.22,4.88-2.31,7.12-8.47,6.99-13.53-.03-1.16-1.15-.67-1.77-.21-.82.6-2.12,1.97-2.1,3.11Z"/>
        <g>
          <path class="cls-2" d="M335.63,393.22l2.55-5.94c1.59-3.2.43-7.66-3.63-7.27-2.69.26-8,1.63-10.5,2.64-3.72,1.5-4.43,5.4-1.69,7.7l5.56,4.48c1.27,1.07,3.01,1.32,4.56.9,1.33-.36,2.52-1.23,3.16-2.5Z"/>
          <path class="cls-2" d="M337.23,392.77l1.52-3.54c.56-1.31,1.29-2.68,1.68-4.04.58-2.05.57-4.54-.97-6.18s-4.07-1.19-6.1-.8c-2.46.47-4.92,1.11-7.28,1.93-3.1,1.08-5.76,3.22-6.94,6.38-.8,2.13-.29,4.43,1.47,5.92.98.83,2.01,1.62,3.01,2.43,1.25,1.01,2.54,2.33,4.07,2.9,3.91,1.46,7.8-1.73,9.54-4.99.32-.6.64-1.99-.51-1.71s-2.17,1.61-2.69,2.6c.07-.13.18-.24.27-.36-.04.06-.3.29-.06.08l.09-.1c.19-.15.21-.17.06-.06.01.02-.18.11,0,0-.42.25-.88.4-1.4.47-1.21.16-2.38-.22-3.33-.96-.77-.6-1.53-1.23-2.29-1.85-1.02-.82-2.04-1.64-3.05-2.46-1.07-.88-1.78-2.03-1.66-3.34.03-.3-.06.12.06-.28.14-.49-.05.18.08-.19-.02.07-.31.48-.05.11,0,0-.35.46-.15.21.24-.3-.37.39-.1.12.2-.21-.46.24.04-.02-.34.17.24-.13.34-.18s.2-.1.3-.14c-.22.1.03,0,.06-.02.46-.17.92-.33,1.38-.48,2.08-.67,4.2-1.22,6.35-1.65,1.61-.32,3.45-.83,4.82.45.58.54.88,1.23,1.04,2,.08.4.1.62.09,1.01,0,.21-.02.42-.05.62-.02.12-.03.24-.06.36.05-.25-.01.05-.04.15-.03.09-.05.18-.08.26,0,0-.21.53-.09.25.1-.24-.02.03-.06.11-.07.15-.13.3-.19.45l-.88,2.05c-.49,1.13-.97,2.27-1.46,3.4-.26.6-.68,2,.51,1.71,1.09-.27,2.27-1.61,2.69-2.6Z"/>
        </g>
        <path class="cls-2" d="M280.46,350.31c.35-1.73.93-3.41,1.73-4.98.32-.64.66-1.22,1.05-1.82.19-.29.39-.58.59-.86.17-.24.22-.31.49-.64.2-.25.4-.49.61-.72.08-.09.15-.18.23-.26.05-.05.39-.41.13-.14.3-.31.6-.61.91-.91.12-.11.24-.22.36-.33.3-.27-.2.15.06-.06.08-.07.17-.14.25-.2.43-.32,1.05-.97,1.05-1.55s-.58-.33-.88-.1c-1.41,1.05-2.64,2.41-3.72,3.78-2.36,3.02-4.04,6.47-4.79,10.24-.12.61.66.27.88.1.5-.37.92-.94,1.05-1.55h0Z"/>
        <path class="cls-2" d="M373.6,331.28c-2.18-2.59-4.91-4.67-7.99-6.07-1.3-.59-2.69-1.14-4.11-1.38-.77-.13-2.24,2.06-1.47,2.2,1.36.23,2.7.76,3.94,1.33,3.03,1.4,5.72,3.46,7.87,6.01.43.51,2.3-1.43,1.75-2.09h0Z"/>
      </g>
      <g id="konijn">
        <g>
          <path class="cls-2" d="M492,72.26l-3.75,6.85c-2.29,3.66-1.39,9.15,3.54,9.14,3.27,0,9.82-1.05,12.95-1.97,4.65-1.38,5.95-5.98,2.92-9.05l-6.18-6.02c-1.41-1.42-3.47-1.93-5.38-1.59-1.65.28-3.18,1.19-4.09,2.65Z"/>
          <path class="cls-2" d="M490.4,72.71c-.73,1.34-1.46,2.67-2.19,4.01l-1.31,2.39c-.04.07-.25.35-.24.43,0,0,.48-.83.04-.08-.11.19-.23.38-.33.58-.22.43-.42.88-.59,1.33-.88,2.31-1.02,5.15.51,7.22,1.61,2.18,4.48,1.91,6.87,1.67,3.11-.3,6.24-.78,9.28-1.53,3.44-.84,6.36-2.88,7.96-6.11,1.26-2.56,1.02-5.41-1.01-7.48-1.07-1.1-2.2-2.14-3.29-3.21-1.29-1.26-2.67-3.01-4.3-3.84-4.18-2.11-8.7.48-11.06,4.04-.33.51-1.22,2.04-.2,2.31.97.25,2.31-1.44,2.72-2.07.3-.46.08.03-.07.05-.08.01.32-.2.42-.25.58-.29,1.25-.44,1.89-.47,1.48-.07,2.91.38,4.02,1.37.91.81,1.75,1.7,2.62,2.55l3.47,3.38c1.13,1.1,2.03,2.57,1.69,4.21-.02.08-.07.23-.14.44.11-.33,0-.01-.04.05.06-.09.28-.39-.01-.01.14-.19.55-.49.18-.25.36-.23-.34.22-.29.19-.93.53-2.04.74-3.07.98-2.62.59-5.3,1.04-7.97,1.29-2.04.2-4.42.53-5.93-1.17-1.26-1.42-1.24-3.64-.64-5.22-.1.27.18-.36.24-.48-.28.54.2-.34.24-.42.1-.18.2-.37.3-.55l1.28-2.33c.72-1.31,1.43-2.62,2.15-3.93.35-.64.62-1.92-.51-1.7s-2.16,1.64-2.68,2.59Z"/>
        </g>
        <path class="cls-2" d="M497.99,67.8c-.6-3.58-1.2-7.17-1.8-10.75l-.64,1.94c.26-.42.53-.82.8-1.22.33-.49-.3.35.1-.14.11-.13.22-.27.33-.4.4-.49-.11.08.04-.06.11-.1.23-.22.33-.33.4-.4-.37.26.04-.03.14-.1.27-.2.41-.3-.45.33-.04.03.07-.02.14-.07.27-.14.42-.2-.37.16.35-.09.48-.12.31-.07.43-.08.58-.09.3-.01.61,0,.91.02,3.13.29,6.02,2.4,8.57,4.06.84.54,2.12-.81,2.57-1.38.32-.4,1.72-2.24.91-2.77-2.5-1.63-5.16-3.43-8.11-4.11-2.75-.64-5.2.46-7.25,2.26-1.32,1.16-2.44,2.58-3.39,4.06-.48.75-1.08,1.56-.97,2.5.02.18.06.35.09.52l.91,5.45c.26,1.58.53,3.16.79,4.74.18,1.07,1.95-.31,2.24-.59.73-.72,1.75-1.91,1.56-3.04h0Z"/>
        <path class="cls-2" d="M498.07,183.4c1.51,12.66,2.58,25.45,2.02,38.21-.39,8.81-1.59,17.63-4.47,25.99-2.42,7.04-5.72,12.95-10.08,19.01-.27.37-.54.74-.81,1.11-.14.19-.27.37-.41.55-.46.62.35-.46-.12.16-.56.74-1.13,1.48-1.71,2.21-1.24,1.57-2.51,3.12-3.8,4.65-2.72,3.23-5.51,6.39-8.31,9.54-4.43,4.99-9.27,9.47-14.43,13.71-2.35,1.93-4.71,3.85-7.01,5.86-1.11.97-2.2,1.96-3.25,2.98-.54.52-1.07,1.05-1.59,1.59-.29.3-.58.61-.86.91-.13.14-.66.7-.05.06-.48.5-.96,1-1.45,1.48-.26.25-.52.49-.78.73-.13.12-.26.23-.4.35.56-.48-.06.04-.17.13-.26.21-.53.4-.81.6-.45.32.42-.23-.05.03-.13.08-.26.15-.4.23s-.26.13-.39.2c-.43.2.36-.11-.07.02-.17.05-.87.17-.6.16-.96.04-1.58-.51-1.96-1.5-.83-2.13-.65-4.65-.49-6.88.38-5.38,1.67-10.67,2.46-16,1.04-7.08,1.58-14.31.7-21.44-.72-5.81-1.84-11.52-2.1-17.39-.29-6.44.09-12.96,1.52-19.27,1.6-7.08,4.61-13.42,8.42-19.55,3.37-5.44,6.8-10.84,10.33-16.19s6.85-10.22,10.53-15.15c1.42-1.9,3.07-4.01,4.68-5.92s2.27-2.68,3.98-4.26c.15-.14.31-.28.46-.42.5-.46-.41.33.1-.09.28-.23.57-.45.86-.67.13-.1.27-.19.41-.28-.49.33-.06.04.04-.02.24-.13.48-.26.74-.38,1.08-.48,2.14-1.81,2.46-2.94.3-1.04-.22-1.41-1.17-.99-3.54,1.58-6.41,5.02-8.89,7.89-3.79,4.38-7.2,9.09-10.52,13.83-3.86,5.51-7.56,11.15-11.18,16.82-3.81,5.97-7.93,11.93-10.85,18.4-5.75,12.75-6.72,26.64-5.05,40.39.35,2.92.88,5.8,1.3,8.71.56,3.83.64,7.7.45,11.56-.32,6.66-1.51,13.2-2.65,19.76-.45,2.6-.83,5.2-.93,7.84-.08,2.11-.17,4.61.74,6.58,1.46,3.15,4.71,1.68,6.89.17,1.34-.93,2.56-2.06,3.71-3.22,1.82-1.84,2.9-3.07,4.95-4.94,4.76-4.35,9.95-8.19,14.72-12.52s8.8-8.93,12.95-13.65c2.8-3.19,5.57-6.41,8.2-9.73,4.99-6.3,9.55-12.99,12.84-20.34,3.58-8,5.66-16.54,6.62-25.24,1.32-11.94.78-24.04-.29-35.98-.33-3.7-.73-7.4-1.17-11.09-.13-1.09-1.98.35-2.24.59-.77.74-1.7,1.9-1.56,3.04h0Z"/>
        <path class="cls-2" d="M521.22,178.75c3.18,12.48,6.82,24.93,11.99,36.74,3.59,8.2,7.99,16.14,13.74,23.03,4.85,5.81,10.63,10.71,16.92,14.89,6.81,4.51,14.08,8.26,21.33,12,6.18,3.19,12.52,5.83,19.11,8.04,5.64,1.89,11.25,3.7,16.63,6.25,2.44,1.16,5.66,2.78,8.44,2.06,2.05-.53,3.87-2.61,4.48-4.58s.09-3.93-.55-5.75c-1.79-5.15-4.96-9.71-7.71-14.37-3.45-5.86-6.66-11.92-8.8-18.4-1.8-5.45-2.6-11.19-4.16-16.71-1.58-5.57-3.61-11.02-6.31-16.15-3.01-5.73-6.82-11.04-11.42-15.6-5.12-5.07-11.22-9.21-16.91-13.62s-11.16-8.66-16.91-12.76c-4.3-3.06-8.74-6.22-13.59-8.34-1.49-.65-3.08-1.27-4.72-1.36-1.11-.06-2.18,1.25-2.72,2.07-.24.36-1.27,2.25-.2,2.31,3.81.2,7.56,2.76,10.68,4.71,5.27,3.3,10.26,7.03,15.21,10.78,5.74,4.35,11.39,8.81,17.1,13.19,5.36,4.12,10.33,8.42,14.4,13.86,6.85,9.15,10.74,20.03,13.24,31.08.63,2.79,1.13,5.61,1.94,8.36,1,3.39,2.32,6.68,3.82,9.87,2.56,5.45,5.71,10.59,8.79,15.75,1.3,2.17,2.54,4.35,3.55,6.67.82,1.87,1.81,4.08,1.64,6.17-.03.32-.03.09,0,.11.01.01-.05.18-.06.19.08-.15.14-.32.23-.47.23-.4.55-.77.9-1.06.15-.12.3-.21.46-.32-.02.01-.2.1-.2.11,0-.11.39-.09,0-.03-.12.02-.25.06-.37.07.24-.03-.08,0-.16,0-.17,0-.33,0-.5-.01-1.36-.09-2.71-.54-3.97-1.04-1.69-.67-3.3-1.53-4.96-2.26-2.79-1.21-5.65-2.24-8.53-3.22-6.37-2.15-12.77-4.16-18.88-7.01-4.49-2.09-8.86-4.46-13.23-6.79-3.46-1.85-6.89-3.76-10.24-5.81-6.22-3.83-12.1-8.22-17.16-13.52-5.7-5.97-10.21-12.93-13.89-20.3-5.12-10.27-8.78-21.23-11.92-32.25-.97-3.4-1.88-6.81-2.75-10.23-.27-1.05-1.91.28-2.24.59-.68.65-1.83,1.98-1.56,3.04h0Z"/>
        <path class="cls-2" d="M500.29,192.47c3.65.68,7.43.42,11.06-.28s6.94-1.76,10.09-3.4c1.41-.74,2.78-1.61,3.94-2.71.3-.29.98-1.04.78-1.52s-.92.11-1.12.3c-.1.09-.19.18-.29.26-.11.09,0,0,.03-.02-.06.05-.12.1-.19.15-.23.18-.47.36-.72.53-.48.33-1.04.65-1.59.95-1.36.73-2.78,1.32-4.23,1.83-3.34,1.16-6.87,1.91-10.41,2.09-1.97.1-3.95,0-5.9-.35-.77-.14-2.23,2.04-1.46,2.19h0Z"/>
        <path class="cls-2" d="M548.29,157.39c-1.56-9.59-2.18-19.37-1.91-29.08.16-5.59.64-11.18,1.65-16.68.49-2.65,1.1-5.27,1.89-7.85.73-2.37,1.65-4.63,2.64-6.9,4.25-9.76,5.99-20.74,5.58-31.35-.23-5.87-1.14-11.72-2.94-17.32-.91-2.83-2.05-5.61-3.45-8.24-1.26-2.37-2.81-4.65-4.86-6.41-3.22-2.78-7.36-3.59-11.44-2.46-4.7,1.3-8.79,4.49-12.23,7.84-1.03,1-2.02,2.05-2.98,3.13-.21.24-.83,1.07-.46,1.39s1.1-.48,1.29-.69c5.27-5.9,14.41-13.51,22.58-8.25,4.57,2.95,7.07,8.4,8.89,13.32,2.02,5.47,3.15,11.24,3.56,17.05.74,10.49-.72,21.43-4.63,31.22-.89,2.22-1.93,4.37-2.71,6.64-.86,2.49-1.54,5.03-2.11,7.6-1.18,5.38-1.8,10.87-2.08,16.37-.51,9.92,0,19.94,1.4,29.78.13.91.26,1.81.41,2.71.09.54.98-.16,1.12-.3.37-.35.87-.96.78-1.52h0Z"/>
        <path class="cls-2" d="M474.62,170.29c-2.82-10.16-4.72-20.56-8.5-30.45-2.11-5.51-4.74-10.82-8-15.75-1.42-2.15-3.01-4.18-4.49-6.29-1.33-1.89-2.61-3.82-3.83-5.78-5.39-8.61-10.08-18-12.44-27.93-1.08-4.56-1.64-9.31-1.01-13.98.32-2.38,1.03-4.69,1.87-6.94s1.84-4.38,3.13-6.38c1.15-1.8,2.35-3.28,3.98-4.66,1.24-1.06,2.88-2.06,4.54-2.65,3.79-1.34,7.91-.89,11.56.69,1.05.46,2.06,1,3.04,1.59.71.43,2.33-1.72,1.74-2.08-3.72-2.26-7.98-3.65-12.37-3.06s-7.87,3.03-10.71,6.09c-3.47,3.74-5.8,8.45-7.37,13.27-.74,2.28-1.29,4.6-1.49,6.99s-.11,4.74.16,7.1c.58,5.09,2.03,10.05,3.86,14.82s4.28,9.79,6.92,14.42c2.38,4.17,4.98,8.23,7.8,12.11,1.73,2.38,3.46,4.74,4.97,7.26,1.61,2.67,3.04,5.45,4.31,8.3,4.52,10.1,6.76,20.89,9.48,31.55.3,1.18.61,2.37.94,3.55.19.69,2.12-1.03,1.9-1.82h0Z"/>
        <path class="cls-2" d="M525.16,83.04c5.4-6.17,6.98-15.3,6.41-23.24-.64-8.88-4.76-17.8-13.01-21.95-5.61-2.83-12.05-3.08-18.22-3.13s-12.51.49-18.41,2.43c-9.55,3.14-17.49,10.4-21.54,19.63-2.64,6.02-2.77,12.81-1.19,19.14,1.44,5.75,4.3,11.54,8.68,15.62.94.88,1.97,1.66,3.07,2.33,1.43.86,4.66-3.45,3.48-4.15-4.6-2.77-7.76-7.53-9.78-12.4-2.28-5.53-3.32-11.74-2.2-17.66.44-2.34,1.58-4.92,2.62-6.68-.1.16.25-.41.32-.52.12-.2.25-.39.38-.59.3-.45.6-.9.92-1.34.12-.17.42-.55.12-.17.14-.18.28-.37.43-.55.34-.42.69-.83,1.04-1.24.14-.16.47-.51.13-.15.19-.2.37-.39.57-.58.36-.36.72-.7,1.1-1.04.12-.1.23-.21.35-.31-.04.03-.28.23-.05.04.18-.15.36-.3.55-.45.44-.35.88-.68,1.34-1,1.49-1.04,3.49-2.13,5.42-2.9,5.09-2.04,10.62-2.84,16.08-3.04,3.59-.13,7.18,0,10.76.27,2.69.21,5.34.59,7.9,1.47,8.33,2.86,13.35,10.42,14.86,18.83.7,3.92.7,7.95.08,11.88-.28,1.79-.66,3.38-1.28,5.15-.14.4-.29.8-.44,1.2-.05.14-.23.53-.07.18-.09.2-.18.4-.27.6-.17.36-.34.71-.53,1.06-.08.16-.17.31-.26.46.27-.49.02-.03-.11.17-.18.28-.38.55-.56.82.45-.68-.15.18-.36.41-.42.48-1.66,2.14-.91,2.77s2.2-.96,2.57-1.38h0Z"/>
        <path class="cls-2" d="M519.46,132.66c-.66-3.46-.96-6.98-.59-10.49.14-1.3.36-2.59.77-3.84.15-.47.32-.9.54-1.34.38-.75-.24.35.19-.33.19-.27.19-.27,0-.01.18-.21.2-.24.06-.08-.02.02-.11.06.14-.04-.03.01.54-.15.74-.17.9-.07,1.78.27,2.53.72,2.1,1.28,3.63,3.47,4.78,5.59,3.18,5.89,4.71,13.06,4.28,19.73-.08,1.26-.23,2.52-.51,3.75-.24,1-.75,2.38-1.07,2.89l-.14.2c.19-.25.19-.26,0-.01l.18-.19c-.22.2-.22.2,0,0l-.17.12c.19-.12.17-.12-.06,0,.26-.1-.36.11-.33.1-.78.18-1.62.01-2.34-.32-2.31-1.06-4.01-3.46-5.21-5.61-1.85-3.31-3.01-6.97-3.76-10.67-.22-1.07-1.93.3-2.24.59-.72.68-1.78,1.94-1.56,3.04.78,3.87,2.02,7.71,4.02,11.13,1.34,2.28,3.06,4.73,5.57,5.81,6.1,2.61,10.16-5.78,11.07-10.48,1.48-7.6-.14-16.4-3.66-23.23-2.26-4.38-6.77-10.05-12.01-6.16-6.78,5.03-6.4,15.58-4.99,22.93.21,1.07,1.94-.31,2.24-.59.72-.69,1.77-1.94,1.56-3.04Z"/>
        <g>
          <ellipse class="cls-2" cx="524.4" cy="125.58" rx="5.13" ry="11.55" transform="translate(-14.38 103.68) rotate(-11.14)"/>
          <path class="cls-2" d="M520.52,125.46c-.39-2.04-.57-4.12-.38-6.19.07-.78.19-1.55.41-2.3.1-.32.29-1.08.52-1.28.58-.48,1.75.03,2.3.41,1.19.8,2.06,2.07,2.73,3.31,1.87,3.48,2.78,7.68,2.6,11.61-.04.82-.12,1.64-.29,2.44-.11.53-.28,1.57-.7,1.97-.37.35-1.35.13-1.85-.12-1.43-.71-2.46-2.23-3.19-3.59-1.06-1.96-1.72-4.1-2.17-6.27-.13-.65-1.18.19-1.36.36-.44.41-1.09,1.19-.95,1.85.51,2.48,1.31,4.92,2.64,7.1.82,1.35,1.9,2.77,3.45,3.32,3.58,1.28,5.94-3.64,6.48-6.37.94-4.74-.06-10.28-2.35-14.51-1.45-2.7-4.21-5.84-7.32-3.38-3.99,3.15-3.74,9.4-2.9,13.85.12.66,1.18-.19,1.36-.36.44-.41,1.08-1.18.95-1.85Z"/>
        </g>
        <g>
          <ellipse class="cls-2" cx="484.08" cy="133.48" rx="5.13" ry="11.55" transform="translate(-16.67 96.04) rotate(-11.14)"/>
          <path class="cls-2" d="M480.2,133.37c-.39-2.04-.57-4.12-.38-6.19.07-.78.19-1.55.41-2.3.1-.32.29-1.08.52-1.28.58-.48,1.75.03,2.3.41,1.19.8,2.06,2.07,2.73,3.31,1.87,3.48,2.78,7.68,2.6,11.61-.04.82-.12,1.64-.29,2.44-.11.53-.28,1.57-.7,1.97-.37.35-1.35.13-1.85-.12-1.43-.71-2.46-2.23-3.19-3.59-1.06-1.96-1.72-4.1-2.17-6.27-.13-.65-1.18.19-1.36.36-.44.41-1.09,1.19-.95,1.85.51,2.48,1.31,4.92,2.64,7.1.82,1.35,1.9,2.77,3.45,3.32,3.58,1.28,5.94-3.64,6.48-6.37.94-4.74-.06-10.28-2.35-14.51-1.45-2.7-4.21-5.84-7.32-3.38-3.99,3.15-3.74,9.4-2.9,13.85.12.66,1.18-.19,1.36-.36.44-.41,1.08-1.18.95-1.85Z"/>
        </g>
        <path class="cls-2" d="M479.15,140.61c-.66-3.46-.96-6.98-.59-10.49.14-1.3.36-2.59.77-3.84.15-.47.32-.9.54-1.34.38-.75-.24.35.19-.33.19-.27.19-.27,0-.01.18-.21.2-.24.06-.08-.02.02-.11.06.14-.04-.03.01.54-.15.74-.17.9-.07,1.78.27,2.53.72,2.1,1.28,3.63,3.47,4.78,5.59,3.18,5.89,4.71,13.06,4.28,19.73-.08,1.26-.23,2.52-.51,3.75-.24,1-.75,2.38-1.07,2.89l-.14.2c.19-.25.19-.26,0-.01l.18-.19c-.22.2-.22.2,0,0l-.17.12c.19-.12.17-.12-.06,0,.26-.1-.36.11-.33.1-.78.18-1.62.01-2.34-.32-2.31-1.06-4.01-3.46-5.21-5.61-1.85-3.31-3.01-6.97-3.76-10.67-.22-1.07-1.93.3-2.24.59-.72.68-1.78,1.94-1.56,3.04.78,3.87,2.02,7.71,4.02,11.13,1.34,2.28,3.06,4.73,5.57,5.81,6.1,2.61,10.16-5.78,11.07-10.48,1.48-7.6-.14-16.4-3.66-23.23-2.26-4.38-6.77-10.05-12.01-6.16-6.78,5.03-6.4,15.58-4.99,22.93.21,1.07,1.94-.31,2.24-.59.72-.69,1.77-1.94,1.56-3.04Z"/>
        <path class="cls-2" d="M513.04,73.64c6.65,2.98,13.8,5.1,21.13,5.28,5.55.14,11.05-.87,16.15-3.05,4.24-1.81,8.1-4.42,11.5-7.53,2.63-2.4,4.98-5.12,7.02-8.04.96-1.38,1.91-2.82,2.63-4.33,0-.02.02-.04.03-.06.16-.33.32-.95-.26-.85s-1.12.83-1.34,1.29c-.15.3-.31.6-.47.89-.09.16-.18.32-.27.47-.15.26.17-.27,0,0-.06.1-.12.2-.18.3-.28.45-.56.9-.86,1.35-.35.53-.72,1.05-1.09,1.57-.1.14-.2.28-.31.42-.17.23.05-.06.03-.03-.07.08-.13.17-.2.26-.23.3-.46.59-.7.88-.53.65-1.07,1.29-1.64,1.92-.13.15-.27.3-.41.44-.13.14.19-.2-.05.06-.08.09-.16.17-.24.26-.32.34-.65.67-.99,1s-.7.67-1.06,1c-.17.15-.33.3-.5.45-.1.09-.19.17-.29.26-.08.07-.33.28-.12.11-.8.68-1.62,1.32-2.47,1.94-1.76,1.28-3.53,2.34-5.61,3.34-4.61,2.22-9.72,3.39-14.84,3.52-6.88.17-13.71-1.44-20.07-3.98-.94-.38-1.87-.78-2.8-1.19-.8-.36-2.29,1.83-1.74,2.08h0Z"/>
        <path class="cls-2" d="M518.94,64.95c8.8,2.1,18.21,2.8,27.02.36,4.82-1.33,9.42-3.62,13.17-6.96.7-.62,1.4-1.29,1.97-2.03.19-.25.84-1.06.46-1.39s-1.11.47-1.29.69c-.1.13-.22.26-.33.39-.16.18-.32.16.04-.04-.08.05-.17.17-.23.24-.2.2-.4.4-.61.6-.11.11-.23.21-.34.31-.06.06-.13.11-.19.17-.04.03-.07.06-.11.09-.16.14.25-.2.07-.06-.32.26-.64.52-.96.77-.38.29-.76.56-1.15.83-.1.07-.2.14-.3.2-.07.05-.36.23-.14.09-.24.16-.49.31-.73.46-5.44,3.27-11.83,4.75-18.18,4.96-5.62.19-11.24-.57-16.7-1.87-.74-.18-2.25,2-1.46,2.19h0Z"/>
        <path class="cls-2" d="M480.56,77.69c-3.92,4.85-8.64,9.08-14.34,11.71-4.35,2.01-9.14,2.95-13.92,2.8-7.34-.22-14.48-2.82-20.68-6.68-1.3-.81-2.6-1.66-3.78-2.65-.59-.49-2.33,1.58-1.74,2.08,1,.83,2.09,1.57,3.18,2.27,2.68,1.72,5.52,3.18,8.48,4.35,3.9,1.53,8.01,2.55,12.2,2.79,4.93.28,9.87-.56,14.43-2.47,5.91-2.47,10.95-6.59,15.18-11.34.62-.7,1.23-1.42,1.82-2.15.2-.25.84-1.07.46-1.39s-1.11.47-1.29.69h0Z"/>
        <path class="cls-2" d="M474.03,74.18c-6.53,4.6-14.08,8.2-22.15,8.81-5.61.43-11.28-.62-16.35-3.07-2.25-1.08-4.37-2.42-6.33-3.95-.62-.48-2.34,1.61-1.74,2.08,3.86,3.01,8.34,5.24,13.1,6.37,6.51,1.54,13.34.88,19.61-1.32,4.9-1.72,9.46-4.29,13.69-7.27.43-.3,1.05-.98,1.04-1.54s-.58-.32-.88-.1h0Z"/>
        <path class="cls-2" d="M496.04,56.79c-2.96-1.78-6.34-3.08-9.84-2.33-4.42.95-7.81,4.82-10.16,8.44-.3.47-1.25,2.1-.2,2.31,1,.2,2.29-1.4,2.72-2.07.66-1.01.81-1.25,1.55-2.09.13-.15.41-.42.12-.14.15-.15.29-.29.44-.43.12-.11.41-.36.13-.13.18-.15.36-.29.54-.42.12-.09.24-.17.36-.26-.33.22.23-.13.25-.14.15-.08.3-.16.46-.24.06-.03.41-.19.21-.11.62-.26,1.3-.45,1.97-.53,2.82-.36,5.6.88,7.96,2.3,1.43.86,4.66-3.45,3.48-4.15h0Z"/>
        <path class="cls-2" d="M534.76,154.07c-.32.69-.67,1.37-1.07,2-.42.66-.68,1.03-1.11,1.55-.1.12-.2.24-.31.36-.04.05-.33.35-.15.17-.2.21-.41.41-.62.61-.12.11-.23.21-.35.31.16-.14-.05.03-.1.08-.21.17-.43.33-.65.49-.1.07-.2.14-.3.2.17-.11-.09.05-.14.08-.2.12-.41.24-.61.35-.18.1-.36.19-.55.27-.09.04-.18.08-.26.12-.1.04.02,0,.04-.01-.06.02-.12.05-.18.07-.55.21-1.11.38-1.69.49-.11.02-.23.04-.35.06-.23.04.12,0-.08.01-.07,0-.14.01-.2.01-.57.01-1.07.6-1.36,1.03-.1.16-.64,1.16-.1,1.15.9-.02,1.83-.28,2.66-.6,2.3-.88,4.26-2.41,5.88-4.25,1.31-1.49,2.37-3.21,3.21-5,.15-.32.33-.97-.26-.85-.55.11-1.12.82-1.34,1.29h0Z"/>
        <path class="cls-2" d="M495.13,167.75c-2.75.39-5.67.06-8.04-1.48-.9-.58-1.82-1.35-2.39-2.27-.29-.48-2.21,1.31-1.74,2.08,1.32,2.17,4.1,3.44,6.5,3.84,1.52.26,3.06.19,4.59-.02.57-.08,1.11-.83,1.34-1.29.18-.35.32-.93-.26-.85h0Z"/>
      </g>
      <g id="kip">
        <path class="cls-2" d="M224.74,172.03c3.56-4.24,6.77-8.78,9.36-13.68s4.64-10.53,5.68-16.18c1.17-6.35,1.13-12.88.12-19.25-1.17-7.4-3.62-14.57-6.72-21.37-2.71-5.95-6.02-11.62-9.88-16.89-3.47-4.74-7.38-9.15-11.6-13.25-3.83-3.73-7.91-7.19-12.08-10.52-2.43-1.94-4.87-3.89-7.34-5.78-3.37-2.56-6.97-4.86-10.78-6.72-4.54-2.22-9.67-4.03-14.8-3.67-1.22.09-2.43.29-3.61.65-.56.17-1.04.74-1.3,1.25-.14.27-.32.99.25.82,4.84-1.46,10.1-.27,14.68,1.57,4.29,1.72,8.32,4.11,12.08,6.79,2.12,1.51,4.14,3.17,6.19,4.77,4.03,3.15,8.01,6.38,11.8,9.82,8.84,8.03,16.49,17.29,22.07,27.88,6.43,12.19,10.9,26.12,9.74,40.04-.47,5.69-1.88,11.3-4.17,16.54-2.11,4.83-4.97,9.46-8.13,13.55-.77,1-1.57,1.98-2.38,2.95-.2.24-.81,1.04-.44,1.34s1.07-.46,1.24-.67h0Z"/>
        <path class="cls-2" d="M128.73,66.86c-2.89,2.47-4.65,5.82-5.08,9.58-.57,4.92.5,10.02,1.5,14.81s2.04,9.34,3.11,13.99c1.13,4.94,2.39,9.85,3.92,14.68,3.64,11.47,8.9,22.54,16.63,31.84,3.99,4.8,8.39,9.29,13.08,13.41s9.69,7.85,15.11,10.91c9.46,5.34,20.82,8.81,31.54,5.39,1.28-.41,2.52-.91,3.74-1.48.52-.24,1.03-.87,1.19-1.42.14-.5-.1-.7-.57-.48-9.97,4.69-21.25,2.46-30.78-2.21-10.87-5.33-20.29-13.52-28.39-22.43-4.18-4.6-7.9-9.53-10.98-14.93-2.88-5.05-5.24-10.39-7.2-15.86-3.2-8.93-5.18-18.17-7.27-27.41-1.2-5.33-2.58-10.74-2.85-16.22-.09-1.87-.06-3.79.36-5.61.09-.4.21-.79.34-1.17.15-.44.23-.65.39-.99.08-.18.17-.35.26-.52.05-.09.1-.19.15-.28-.02.04-.12.2,0,0,.11-.18.23-.36.35-.53.04-.06.08-.12.12-.17.09-.12.08-.11-.02.02.04-.06.09-.11.13-.17.11-.14.23-.28.35-.41.07-.08.14-.16.22-.24-.22.24.03-.03.07-.06.3-.29.6-.58.92-.85s.95-1.02.76-1.47c-.21-.48-.89.12-1.08.29h0Z"/>
        <g>
          <path class="cls-2" d="M171.13,86.96l1.01-14.04c.99-7.68-4.37-16.47-12.16-13.34-5.17,2.08-14.79,8.01-19.08,11.57-6.37,5.29-5.12,13.96,1.88,17.27l14.1,6.34c3.25,1.53,6.88,1.08,9.67-.69,2.4-1.53,4.18-4.04,4.58-7.1Z"/>
          <path class="cls-2" d="M173,85.57c.37-5.15.99-10.35,1.13-15.51.12-4.42-1.54-9.67-5.53-12.07-4.32-2.6-8.91-.07-12.84,2.05-4.57,2.46-9.06,5.23-13.2,8.36s-7.93,7.6-7.62,13.1c.23,4.03,2.78,7.38,6.4,9.05,2.68,1.23,5.38,2.42,8.07,3.62l4.7,2.11c1.48.66,2.94,1.33,4.58,1.49,6.97.69,13.34-5.58,14.32-12.19.17-1.17-1.24-.54-1.7-.2-.93.68-1.84,1.82-2.02,2.99-.31,2.06-1.24,3.49-3.13,4.39-2.4,1.14-5.16,1.03-7.57,0-1.95-.84-3.87-1.74-5.8-2.61l-7.65-3.44c-2.92-1.31-5.36-3.45-6.2-6.64-.47-1.77-.39-3.7.38-5.38.71-1.54,2.04-2.45,3.41-3.46,3.68-2.72,7.61-5.14,11.64-7.32,3.31-1.79,7.19-4.13,10.87-1.91s5.25,6.7,5.19,10.68c-.04,2.67-.39,5.37-.58,8.04s-.37,5.09-.55,7.64c-.08,1.15,1.18.59,1.7.2.86-.64,1.94-1.85,2.02-2.99Z"/>
        </g>
        <path class="cls-2" d="M138.95,74.31c-5.06-4.44-9.34-9.78-13.25-15.23-4.33-6.04-8.23-12.41-11.48-19.09-2.43-5-5.01-10.62-5.37-16.26-.2-3.13.23-6.71,1.71-9.51.22-.41.45-.76.68-1.01-.08.08.16-.18.25-.25,0,0,.36-.27.47-.33,1.02-.61,2.22-.81,3.4-.74,3.87.24,6.77,2.93,9.67,5.19,1.43,1.12,2.89,2.23,4.45,3.16.87.52,1.9,1.13,2.92,1.23,2.58.26,4.68-2.94,4.87-5.21s-.85-4.62-.8-6.83c.02-1.08.13-1.63.42-2.5.06-.19.13-.38.21-.56-.18.46.07-.14.13-.27.07-.13.45-.78.09-.19.13-.21.28-.42.42-.63s-.07.23-.12.16c0,0,.14-.18.16-.19.25-.27-.39.4.08-.08s-.2.13.12-.11c.3-.23.43-.29.24-.19.56-.32,1.1-.56,1.82-.61,2.05-.14,3.82,1.04,5.2,2.44,2.6,2.65,4.15,6.24,5.38,9.69,4.61,12.85,9.32,25.7,11.52,39.22.29,1.76.55,3.53.79,5.29.15,1.05,1.9-.32,2.17-.57.73-.7,1.67-1.85,1.51-2.94-.89-6.36-1.99-12.69-3.72-18.88-1.98-7.09-4.53-14.02-6.95-20.96-1.49-4.26-2.84-8.61-5.36-12.4-1.41-2.13-3.27-4.12-5.78-4.88-4.57-1.37-8.8,3-10.64,6.7-.98,1.98-1.52,4.18-1.35,6.39.1,1.28.47,2.53.65,3.8.07.52.14,1.03.13,1.55,0,.22-.05.44-.05.65,0,.43-.01-.07.01-.04-.06.17-.05.16.02-.03.14-.36.35-.69.63-.98.11-.12,1.36-1.02,1.36-1.07,0,.14-.32-.17.04.02-.1-.05-.38-.01-.5-.03-.46-.07-.89-.27-1.3-.47-1.46-.73-2.8-1.72-4.11-2.7-3.21-2.41-6.21-5.43-10.31-6.24-7.25-1.42-12.31,6.1-13.67,12.25s.03,12.08,2.35,17.88c2.78,6.94,6.51,13.51,10.58,19.76s8.47,12.19,13.63,17.48c1.06,1.09,2.16,2.15,3.31,3.15s4.51-3.01,3.37-4.02h0Z"/>
        <path class="cls-2" d="M188.09,105.69c-2.22-3.6-4.06-7.51-5.11-11.62-.7-2.71-1.22-5.78-.31-8.5,0,0,.16-.41.02-.1.02-.05.25-.33.04-.09-.29.34.24-.34-.03.04-.02.02-.21.24-.25.24-.08-.02.49-.16.05-.04.28-.08.29-.15.47-.21.91-.29,1.9-.19,2.82.02,2.68.6,5.09,2.34,7.14,4.09,6.01,5.15,10.64,12.44,12.97,19.98.88,2.86,1.66,6.18,1,9.18-.06.29-.16.56-.25.84-.02.05-.06.26-.06.18,0-.21-.2.26,0,.01s-.03.03-.06.06c.04-.04.33-.31.34-.34-.03.14-.31.12-.05.04-.68.21-1.43.44-2.38.34-3.04-.32-5.8-2.31-8.05-4.24-3.28-2.81-5.99-6.24-8.28-9.88-.59-.94-4.29,2.56-3.37,4.02,2.36,3.74,5.15,7.26,8.55,10.11,2.33,1.95,5.22,3.9,8.33,4.23s5.81-1.64,7.47-4.2c1.93-2.97,2.01-6.6,1.44-9.99-.76-4.59-2.68-8.99-5.02-12.99s-5.04-7.59-8.38-10.66c-2.39-2.19-5.27-4.31-8.5-5.02-2.99-.66-5.67.63-7.58,2.95-2.57,3.11-2.88,7.07-2.27,10.91.84,5.25,3.18,10.17,5.95,14.65.57.93,4.28-2.54,3.37-4.02Z"/>
        <g>
          <ellipse class="cls-2" cx="189.77" cy="94.74" rx="6.4" ry="12.87" transform="translate(-21.37 114.91) rotate(-31.99)"/>
          <path class="cls-2" d="M185.38,96.89c-1.27-2.07-2.28-4.32-2.83-6.69-.32-1.39-.8-3.77.02-5.09.4-.64,1.75-.53,2.52-.37,1.65.35,3.13,1.34,4.41,2.4,3.45,2.87,6.07,7,7.27,11.32.47,1.7.82,3.63.37,5.37-.26,1-.98,1.11-2.07,1-4.18-.4-7.62-4.69-9.69-7.95-.37-.58-2.66,1.59-2.09,2.49,1.44,2.27,3.19,4.39,5.36,6.01,1.46,1.09,3.3,2.12,5.18,2.1,4.44-.05,6.15-5.13,5.71-8.81-.64-5.28-3.89-10.64-7.94-14.01-2.95-2.46-7.03-3.99-9.91-.58-3.73,4.42-1,11.07,1.6,15.31.35.58,2.65-1.57,2.09-2.49Z"/>
        </g>
        <g>
          <ellipse class="cls-2" cx="157.19" cy="116.54" rx="6.4" ry="12.87" transform="translate(-37.87 100.96) rotate(-31.99)"/>
          <path class="cls-2" d="M152.8,118.68c-1.27-2.07-2.28-4.32-2.83-6.69-.32-1.39-.8-3.77.02-5.09.4-.64,1.75-.53,2.52-.37,1.65.35,3.13,1.34,4.41,2.4,3.45,2.87,6.07,7,7.27,11.32.47,1.7.82,3.63.37,5.37-.26,1-.98,1.11-2.07,1-4.18-.4-7.62-4.69-9.69-7.95-.37-.58-2.66,1.59-2.09,2.49,1.44,2.27,3.19,4.39,5.36,6.01,1.46,1.09,3.3,2.12,5.18,2.1,4.44-.05,6.15-5.13,5.71-8.81-.64-5.28-3.89-10.64-7.94-14.01-2.95-2.46-7.03-3.99-9.91-.58-3.73,4.42-1,11.07,1.6,15.31.35.58,2.65-1.57,2.09-2.49Z"/>
        </g>
        <path class="cls-2" d="M155.58,126.02c-2.08-3.38-3.78-7.06-4.73-10.92-.64-2.61-1.12-5.67-.12-8.25.05-.13.04-.08.08-.14.14-.26-.03.04-.07.08.07-.07.33-.4,0,0-.15.18.17-.08.47-.18.91-.29,1.88-.22,2.8-.03,2.61.52,4.95,2.14,6.96,3.82,5.72,4.79,10.1,11.68,12.2,18.82.8,2.73,1.46,5.89.76,8.72-.07.29-.17.58-.28.86.05-.12-.16.38-.01.05-.18.41-.11.12,0,.02-.06.06-.19.32-.07.08,0,0,.2-.21.21-.2.04.05-.36.17-.09.07-.76.29-1.55.48-2.5.39-2.87-.28-5.48-2.04-7.64-3.83-3.17-2.62-5.78-5.87-7.97-9.34-.57-.91-4.18,2.49-3.28,3.91,2.25,3.56,4.95,6.9,8.24,9.56,2.27,1.84,5.13,3.64,8.13,3.84s5.65-1.69,7.28-4.16c1.87-2.83,2.1-6.23,1.64-9.51-.61-4.41-2.4-8.65-4.63-12.47s-4.82-7.24-8.05-10.12c-2.31-2.05-5.08-3.99-8.17-4.61s-5.58.68-7.5,2.93c-5.98,6.98-1.01,17.95,3.05,24.54.56.9,4.17-2.47,3.28-3.91Z"/>
        <path class="cls-2" d="M219.5,117.07c.41,3.85.63,7.83-.13,11.65-.26,1.29-.75,2.8-1.35,3.8-.09.15-.19.3-.29.45-.05.07-.1.14-.15.22.08-.1.07-.09-.03.04-.08.1-.16.2-.25.3-.06.07-.11.13-.17.19.09-.1.08-.09-.03.03-.41.41-.83.74-1.4,1.07-.51.3-1.02.84-1.19,1.42-.13.46.1.74.57.48,5.33-3.06,6.65-9.35,6.64-15.04,0-2.12-.16-4.24-.38-6.35-.06-.53-.96.17-1.08.29-.38.36-.82.91-.76,1.47h0Z"/>
        <path class="cls-2" d="M162.73,152.7c2.58,2.28,5.48,4.56,8.9,5.37,2.66.63,5.37.09,7.91-.77.56-.19,1.04-.73,1.3-1.25.13-.26.33-1.01-.25-.82-2.46.83-4.98,1.33-7.55.72-3.31-.79-6.13-3.06-8.62-5.27-.54-.48-2.26,1.5-1.69,2.01h0Z"/>
        <path class="cls-2" d="M207.51,175.64c8.02,9.87,15.57,20.32,20.69,32.02,2.41,5.51,4.26,11.27,5.33,17.19,1.01,5.59,1.56,11.48.71,17.12-.6,4.01-2.18,7.84-4.24,10.87-.66.97-.6.87-1.22,1.66-.57.73-1.17,1.43-1.78,2.13-1.1,1.27-2.25,2.5-3.37,3.76-4.32,4.88-8.36,11.3-5.98,18.07,2.16,6.15,9.26,7.9,15.1,7.68,7.46-.28,14.99-3.13,20.7-7.95,3.26-2.75,5.98-6.15,7.57-10.12.83-2.07,1.15-4.26,1.48-6.45.42-2.8.73-5.63.85-8.46.21-5.04-.22-10.13-1.66-14.98s-4.01-9.76-6.87-14.19c-3.07-4.75-6.57-9.19-9.51-14.04s-5.65-9.89-8.19-14.99c-4.48-8.99-8.6-18.24-11.94-27.73-.52-1.48-1.02-2.96-1.46-4.46-.4-1.35-4.12,2.02-3.68,3.52,2.43,8.26,5.94,16.26,9.52,24.07,4.56,9.93,9.58,19.77,15.72,28.83,3.16,4.67,6.64,9.08,9.27,14.1,2.25,4.3,3.91,8.89,4.65,13.7.8,5.18.51,10.45-.17,15.62-.29,2.24-.52,4.55-1.28,6.69-.24.68-.49,1.2-.92,1.99-.04.07-.24.4-.02.05-.12.2-.24.39-.37.58s-.26.38-.39.57c-.33.48.26-.31-.14.19-1.06,1.33-1.79,2.06-3.07,3.06-1.44,1.13-2.71,1.91-4.39,2.76-3.18,1.61-6.66,2.66-10.19,3.15-5.45.76-12.9.17-16.13-5.02-1.48-2.37-1.73-5.77-1.08-8.22.08-.31.18-.62.28-.92.06-.18.13-.36.2-.54-.15.38,0,0,.05-.1.15-.32.31-.63.47-.94,0-.01.32-.56.12-.23-.18.3.21-.33.24-.39.18-.27.36-.54.55-.81.11-.16.23-.32.35-.48-.42.57-.01.02.07-.08.47-.59.95-1.17,1.44-1.74,2.29-2.64,4.7-5.15,6.78-7.96,2.44-3.31,4.39-7.02,5.49-10.99,1.42-5.11,1.43-10.38.96-15.63-.52-5.82-1.78-11.56-3.68-17.09-3.9-11.37-10.35-21.7-17.52-31.28-1.94-2.59-3.94-5.13-5.98-7.64-.8-.98-4.42,2.73-3.37,4.02h0Z"/>
      </g>
    </g>
  </g>
</svg>