<?xml version="1.0" encoding="UTF-8"?>
<svg id="id" xmlns="http://www.w3.org/2000/svg" viewBox="0 0 526.61 927.35">
  <defs>
    <style>
      .cls-1 {
        fill: currentColor;
      }
    </style>
  </defs>
  <g id="Bouwstenen">
    <path class="cls-1" d="M513.1,365.21c-2.57-6.13-5.35-11.07-8.47-15.12-7.51-11.47-12.4-12.13-23.38-15.68-36.99-10.62-83.99-6.32-133.62,8.02l-3.2-143.79c0-22.25,15.21-33.39,45.66-33.39,11.54,0,23.74,1.81,36.61,5.42,12.85,3.62,21.65,5.42,26.37,5.42,11.54,0,20.73-11.68,27.55-35.06,6.81-23.37,10.23-53.41,10.23-90.14,0-33.93-48.81-50.91-146.42-50.91-38.85,0-73.48,6.68-103.91,20.03-20.47,8.91-37.92,20.74-52.35,35.47-14.44,14.75-26.77,36.03-37,63.85-10.23,27.83-15.35,60.38-15.35,97.65v237.86c-24.69,19.84-46.48,40.71-63.79,61.59-27.78,29.97-61.04,75.06-69.66,99.63-8.1,22.57,6.66,46.61,14.25,66.83,12.5,24.64,5.48,12.81,20.63,34.05,6.46,9.05,31.7,5.42,39.59-2.68,0,0,21.87-29.84,58.98-68.75v261.8c0,13.36,20.99,20.03,62.98,20.03s77.41-1.8,106.28-5.42c28.85-3.61,43.3-8.48,43.3-14.61v-418.41c91.51-42.79,161.61-49.44,161.61-49.44,21.09-12.03,22.14-36.79,3.13-74.25Z"/>
  </g>
</svg>