<?xml version="1.0" encoding="UTF-8"?>
<svg id="id" xmlns="http://www.w3.org/2000/svg" viewBox="0 0 535.04 927.35">
  <defs>
    <style>
      .cls-1 {
        fill: currentColor;
      }
    </style>
  </defs>
  <g id="Bouwstenen">
    <path class="cls-1" d="M434.27,165.26c11.54,0,23.74,1.81,36.61,5.42,12.85,3.62,21.65,5.42,26.37,5.42,11.54,0,20.73-11.68,27.55-35.06,6.81-23.37,10.23-53.41,10.23-90.14,0-33.93-48.81-50.91-146.42-50.91-38.85,0-73.48,6.68-103.91,20.03-20.47,8.91-37.92,20.74-52.35,35.47-14.44,14.75-26.77,36.03-37,63.85-10.23,27.83-15.35,60.38-15.35,97.65v334.83c-92.29,44.05-163.63,50.83-163.63,50.83-20.75,11.84-21.78,36.2-3.08,73.06,2.53,6.03,5.27,10.89,8.33,14.88,7.39,11.29,12.2,11.94,23.01,15.43,37.36,10.73,85.1,5.97,135.36-9.04v210.33c0,13.36,20.99,20.03,62.98,20.03s77.41-1.8,106.28-5.42c28.85-3.61,43.3-8.48,43.3-14.61v-326.34c21.02-17.55,39.64-35.81,54.78-54.07,27.34-29.49,60.06-73.86,68.55-98.04,7.98-22.21-6.56-45.86-14.02-65.76-12.3-24.24-5.39-12.61-20.3-33.5-6.35-8.9-26.47-12.23-34.23-4.27,0,0-20.56,28.19-54.78,65.24v-14.98l-3.94-176.94c0-22.25,15.21-33.39,45.66-33.39Z"/>
  </g>
</svg>