<?xml version="1.0" encoding="UTF-8"?>
<svg id="id" xmlns="http://www.w3.org/2000/svg" viewBox="0 0 777.91 985.74">
  <defs>
    <style>
      .cls-1 {
        fill: currentColor;
      }
    </style>
  </defs>
  <g id="Bouwstenen">
    <g id="afbeelding_x5F_mask_x5F_1">
      <path class="cls-1" d="M635.32,248.31c3.04-3.12,5.93-6.34,8.7-9.51,8.51-9.77,13.82-20.78,19.29-32.4,4.12-8.74,8.53-17.56,11.18-26.88,5.19-18.26-2.66-31.3-14.63-44.68-13.21-14.77-23.44-29.84-32.4-47.48-9.75-19.19-21.15-37.41-43.12-43.58-4.77-1.34-9.69-2.03-14.63-2.3-4.77-.27-13.29,1.77-16.65-1.56-6.47-6.42-11.78-12.44-19.88-17.1-18.21-10.48-39.86-14.55-60.63-15.45-11.09-.48-22.24.06-33.22,1.75-4.88.75-9.73,1.73-14.51,2.97-2.51.65-4.08,1.51-6.45.49-2.58-1.11-5.2-3.96-7.62-5.45-19.06-11.7-40.03-7.88-58.26,3.38-10.35,6.39-19.1,14.83-28.52,22.45-8.79,7.1-18.02,13.58-27.78,19.28-18.55,10.84-43.57,17.61-56.01,36.37-1.74,2.63-3.04,5.22-3.96,7.77H0v889.37h777.91V248.48l-142.6-.17Z"/>
    </g>
  </g>
</svg>