<?xml version="1.0" encoding="UTF-8"?>
<svg id="id" xmlns="http://www.w3.org/2000/svg" viewBox="0 0 361.41 111.92">
  <defs>
    <style>
      .cls-1 {
        fill: #fff;
      }

      .cls-2 {
        fill: #ef3e3e;
      }

      .cls-3 {
        fill: #f26a48;
      }
    </style>
  </defs>
  <g id="Layer_8">
    <g>
      <g>
        <path class="cls-1" d="M160.53,30.77c-4.53.04-9.15,1.27-12.42,4.58s-4.47,7.79-4.64,12.13-.02,8.49-.02,12.72v5.91l1.07-1.59c-3.09,2.51-5.81,5.42-8.17,8.63-.93,1.27-1.85,2.61-2.47,4.06-.74,1.75-.27,3.27.44,4.96.44,1.05.89,2.04,1.55,2.96.82,1.13,1.97,1.24,3.25.69,1.05-.46,1.52-1.2,1.91-1.7,1.12-1.43,2.32-2.79,3.56-4.11l-1.16.11v12.92c0,2-.02,4,0,6,.03,2.87,4.89,2.21,6.76,2.17,2.32-.04,4.67-.15,6.97-.52,1.51-.25,3.16-.75,3.76-2.33.34-.9.13-2.12.13-3.06v-28.17l-1.32,1.75c2.42-1.12,4.91-2.04,7.49-2.72.65-.17,1.55-1.14,1.55-1.85,0-2.96-.1-5.95.03-8.91,0-.16-.03-.37-.24-.38-2.7-.22-5.39.26-7.99.99l.43.36c-.04-1.89-.08-3.78-.13-5.67l-.08-3.63c0-.35-.02-.69-.02-1.04,0-.08,0-.15,0-.23,0-.01,0-.02,0-.03,0-.14,0-.28.03-.42.06-.24,0-.19-.19.13,2.09-.99,4.23.43,6.31.49,1.54.05,2.7-1.56,3.29-2.8.85-1.78,1.12-3.86,1.25-5.8.09-1.31.4-2.97-.43-4.11-.77-1.07-2.21-1.54-3.44-1.84-2.29-.56-4.71-.63-7.06-.64-.84,0-2.19,2.25-1.5,2.25,2.07,0,4.15.07,6.19.45,1.23.23,2.61.56,3.57,1.42,1.08.97.78,2.43.7,3.74-.06,1.03-.17,2.07-.38,3.08-.1.49-.22.99-.39,1.47-.05.15-.17.65-.3.72.31-.19-.15-.18-.23-.22-.32-.16-.82-.16-1.17-.25-.61-.15-1.21-.33-1.83-.42-.99-.14-2.06-.17-3.04.1-1.44.39-2.69,1.57-3.17,2.98-.54,1.59-.14,3.7-.11,5.33.05,2.14.1,4.27.14,6.41,0,.28.13.45.43.36,2.48-.7,5.02-1.15,7.6-.95l-.24-.38c-.13,2.96-.03,5.94-.03,8.91l1.55-1.85c-2.73.73-5.37,1.73-7.94,2.91-.53.24-1.32,1.12-1.32,1.75v30.02c0,.21-.06.52,0,.73-.84-2.93,1.57-1.33.75-1.24-.16.02-.36.11-.52.15-.47.12-.95.19-1.43.26-1.19.17-2.39.26-3.59.32-2.33.13-4.83.34-7.15-.07-.78-.14-1.6-.39-1.72-1.08-.26-1.61,0-3.49,0-5.11v-13.96c0-.77-.92-.15-1.16.11-1.15,1.22-2.28,2.46-3.35,3.75-.47.57-1.11,1.2-1.46,1.86l.3-.33c.37-.31.42-.4.15-.28-.05-.02-.37.11-.44.12-.28.05-.67.08-.95-.02-.5-.18-.84-.8-1.12-1.23-.63-.99-1.08-2.14-1.49-3.23-.65-1.71-.38-2.87.57-4.36.88-1.38,1.89-2.69,2.96-3.93,1.14-1.32,2.31-2.59,3.61-3.75.88-.78,2.24-1.53,2.39-2.81.19-1.62,0-3.36,0-4.99v-2.56c0-3.26-.02-6.53,0-9.79.02-3.44.53-7.4,2.74-10.2,2.45-3.1,7.16-3.9,10.86-3.94.84,0,2.18-2.26,1.5-2.25Z"/>
        <path class="cls-1" d="M185.73,54.22c1.16.03,2.22.29,3.34.57.68.17,1.34.33,2.01.09,1.48-.54,2.39-2.26,2.87-3.65.64-1.88.84-3.92.91-5.9.04-1.12.16-2.24-.58-3.16-1.68-2.1-5.58-2.18-7.98-2.3-4.16-.2-8.44.16-12.08,2.36-5.94,3.6-7.42,10.4-7.42,16.87v23.15l1.32-1.75c-3.14,1.48-6.44,2.65-9.84,3.33-1.85.37-3.03.4-4.16,2.39-.68,1.19-.65,2.47-.24,3.76s1.15,3.19,2.52,3.77c3.31,1.42,7.54.49,10.83-.47l-.43-.36v10.79c0,1.52-.07,3.07,0,4.59.12,2.4,4.24,1.97,5.83,1.96,2.06-.02,4.12-.1,6.17-.31,1.4-.15,3.09-.22,4.28-1.07s1.33-1.8,1.33-3.08v-22.88l-1.07,1.59c2.9-2.45,5.48-5.26,7.69-8.34.88-1.22,1.78-2.54,2.32-3.96.61-1.63.1-3.08-.55-4.62-.76-1.8-2.02-5.04-4.58-3.98-.61.25-1.02.71-1.43,1.21.26-.32-.3.39-.43.56-1.07,1.35-2.2,2.66-3.36,3.93l1.42-.38c0-2.58-.09-5.15-.15-7.73l-.11-5c0-.43-.04-.86-.03-1.29,0-.22,0-.43.05-.65-.08.41-.33.17.22.12.45-.05.88-.14,1.35-.15.84-.02,2.17-2.27,1.5-2.25-2.52.06-5.02,1.58-5.1,4.35-.04,1.39.06,2.79.09,4.18.07,3.3.2,6.6.2,9.9,0,.95,1.2-.14,1.42-.38,1.35-1.47,2.65-2.98,3.86-4.56.1-.14.24-.44.39-.52l-.2.36c-.32.32-.28.45.1.38.2.11.48.1.69.22.53.32.94,1.02,1.24,1.56.99,1.74,2.32,4.26,1.32,6.19s-2.51,3.74-3.98,5.4c-.85.96-1.7,1.89-2.64,2.76-.78.71-2.01,1.44-2.19,2.57-.05.32,0,.69,0,1.02v21.97c0,.76-.29,1.43.46.37s.17-.52-.53-.37c-.51.11-1.04.18-1.56.25-1.32.17-2.65.25-3.98.31-2.21.09-4.98.47-7.12-.3-.84-.3-.92-.59-.92-1.32v-14.88c0-.28-.13-.45-.43-.36-3.05.89-6.45,1.56-9.59.7-1.5-.41-2.06-1.53-2.64-2.91-.24-.57-.47-1.18-.54-1.8,0,0,.03-.97.02-.98-.61.22-.8.31-.57.29.02,0,.03,0,.05,0,.26.12,1.04-.14,1.3-.19.87-.15,1.73-.34,2.58-.56,2.93-.74,5.77-1.82,8.5-3.11.53-.25,1.32-1.12,1.32-1.75v-17.55c0-4.21-.45-8.88.73-12.96.49-1.67,1.2-3.48,2.44-4.75s3.07-2.15,4.81-2.67c3.54-1.07,7.54-.98,11.17-.43,2.06.31,4.99.92,4.97,3.48-.01,2.04-.14,4.17-.76,6.12-.07.22-.15.43-.23.65-.15.42-.17.11-.04.09-.35.04-.76-.1-1.09-.18-1.19-.28-2.31-.59-3.54-.62-.83-.02-2.21,2.23-1.5,2.25Z"/>
        <path class="cls-1" d="M90.46,68.32c0,4.23,0,8.45,0,12.68v3.44c0,.5-.12,1.16,0,1.66.16.67-4.83-2.01.94-1.29-.26-.03-.81.23-1.08.28-1.34.26-2.73.36-4.1.45-2.37.16-4.79.24-7.16.04-.87-.07-2.13-.1-2.26-1.16-.08-.66,0-1.39,0-2.05v-14.88c0-2.13.28-4.63-.72-6.58-.77-1.5-2.66-1.09-3.69-.11-.79.75-1.19,1.67-1.22,2.74-.05,1.64,0,3.28,0,4.92,0,5.18,0,10.36,0,15.54,0,.61-.06,1.26,0,1.87,0,.08-.03.2,0,.28-1.44-4.39,1.64-1.29.84-1.31-.18,0-.47.14-.64.18-.6.14-1.21.22-1.82.29-2.64.32-5.32.41-7.99.36-.93-.02-3.68.21-4.04-1-.08-.27,0-.68,0-.96v-26.96c0-.11.06-.4,0-.49,0-.01.01-.09,0-.1.13.08-.85.61.02.19,2.43-1.17,4.98-1.86,7.68-1.97,1.58-.07,4.15-.15,4.8,1.7.31.88.4,1.87.58,2.78.03.11.11.18.23.19h.41c.67,0,1.3-.84,1.57-1.36,2.31-4.41,9.86-5.02,13.72-2.46s3.9,8.99,3.91,13.1c0,1.05,1.98-.73,1.98-1.48-.02-4.94-.09-12.36-5.58-14.51-5.85-2.28-12.79.29-15.68,5.81l1.57-1.36c-.45,0-.14.2-.21.02-.1-.25-.12-.6-.18-.86-.11-.54-.18-1.1-.34-1.63-.52-1.72-2.36-2.15-3.96-2.21-2.56-.1-5.22.35-7.63,1.23-1.76.64-3.76,1.56-4.61,3.36-.49,1.03-.26,2.41-.26,3.51v7.5c0,5.38,0,10.76,0,16.14,0,1.11-.36,2.98.82,3.58,1.53.78,3.83.5,5.47.49,2.58-.02,5.21-.13,7.75-.57,1.47-.25,3.29-.93,3.56-2.64.06-.36,0-.76,0-1.12v-6.88c0-4.85-.07-9.71,0-14.57,0-.08.02-.2,0-.28v-.15c.06-.41-.11-.25-.51.49,0,0,.66-.02.68-.02.63.15.85.64,1.02,1.22.45,1.47.48,2.94.48,4.47,0,1.93,0,3.85,0,5.78v11.69c0,.55-.09,1.22.28,1.68.96,1.2,3.73.89,5.04.9,2.64.02,5.29-.11,7.9-.45,1.62-.21,3.44-.54,4.21-2.2.25-.54.19-1.09.19-1.68,0-5.14,0-10.27,0-15.41v-1.34c0-1.05-1.98.73-1.98,1.48Z"/>
        <path class="cls-1" d="M107.65,86.19c-4.05-.04-8.2-1.06-9.93-5.09-1.36-3.16-1.47-6.77-1.47-10.16,0-4.84,0-9.68,0-14.52,0-.08.06-.53,0-.59.11.11-.77.44-.09.35.6-.09,1.37-.59,1.96-.78,2.62-.82,5.47-1.22,8.21-1,1.42.11,3.41.45,3.57,2.18.05.56,0,1.15,0,1.72,0,4.79-.06,9.59,0,14.38.03,1.85-.12,4.14.53,5.91s2.5,1.85,3.84.8c1.74-1.36,1.54-3.13,1.54-5.06,0-5.3,0-10.61,0-15.91,0-.72.13-1.58,0-2.29,0-.03.03-.31,0-.33h0c-.47.52-.57.69-.29.5.14,0,.37-.2.51-.27.7-.33,1.47-.55,2.21-.76,2.58-.7,5.35-1.05,8.02-.88,1.28.08,3.01.34,3.18,1.88.13,1.17,0,2.43,0,3.6v23.88c0,.62-.06,1.27,0,1.89,0,.07-.04.31,0,.37.11.16-2.1,2.94.46-.59.8-1.11.52-.53.05-.48-.31.03-.62.15-.92.21-2.82.51-5.82.56-8.67.54-.89,0-2.06.07-2.9-.31-.47-.22-.46-.42-.53-.88-.17-1.1-.34-2.2-.51-3.31-.03-.11-.11-.18-.23-.19h-.46c-.73,0-1.51.99-1.69,1.63-.37,1.35-.97,2.2-2.27,2.77s-2.7.79-4.14.81c-.84.01-2.18,2.26-1.5,2.25,4.48-.07,8.54-2.32,9.79-6.84l-1.69,1.63c.5,0,.15-.25.26-.02s.1.62.13.87c.12.75.23,1.51.35,2.26.21,1.34,1.37,1.45,2.61,1.54,3,.21,6.13-.03,9.11-.38,1.74-.2,3.74-.54,4.54-2.34.47-1.07.18-2.63.18-3.75v-24.97c0-1.47.23-3.08-1.37-3.83-2.02-.95-4.79-.54-6.92-.29-2.44.29-5.28.77-7.35,2.18s-1.97,2.82-1.97,4.9v16.8c0,.58-.1,1.27,0,1.84.01.07-.03.15,0,.21v.15c.58-.59.54-.79-.1-.6-.2-.06-.4-.02-.59-.12-.93-.47-.97-1.93-1.07-2.83-.27-2.68-.18-5.39-.18-8.08v-9.04c0-1.89.43-4.18-1.7-5.07-2.25-.94-5.1-.61-7.44-.26s-4.98.92-6.85,2.37c-1.96,1.53-1.62,3.4-1.62,5.6v9.15c0,2.55-.06,5.11.18,7.66.37,3.85,1.39,8.17,5.17,10.02,2.02.99,4.29,1.25,6.52,1.27.84,0,2.19-2.25,1.5-2.25Z"/>
        <g>
          <path class="cls-1" d="M211.13,74.31c.04,1.85.64,3.52,2.59,4.01,2.26.57,4.82-.46,6.87-1.3.99-.41,1.97-.85,2.97-1.23.62-.24.81-.1,1.32.4.82.82,1.4,1.92,1.93,2.94.59,1.12,1.2,2.32,1.47,3.57.06.28.15.62.09.91-.06.26,0,.15-.44.41-1.27.73-2.83,1.02-4.24,1.32-3.02.63-6.07.85-9.15.73-5.59-.21-11.19-1.62-14.65-6.36-3.22-4.43-3.15-11.35-1.86-16.46.48-1.89,1.24-3.81,2.61-5.24,1.74-1.83,4.29-2.94,6.7-3.53,4.79-1.17,10.56-1.3,15.32.16,3.37,1.03,6.01,3.34,6.65,6.91s-.27,7.14-3.61,8.89c-3.9,2.05-8.54,2.01-12.83,2.01-.84,0-2.19,2.25-1.5,2.25,4.42,0,8.98-.06,13.07-1.95,3.61-1.66,6.3-4.95,6.89-8.91s-.53-7.76-3.83-9.94c-4.33-2.86-10.46-2.77-15.4-2.24-5.44.58-10.82,2.84-13.83,7.62s-3.5,11.01-2.6,16.37c.53,3.15,1.83,5.92,4.13,8.16s5.08,3.29,8.06,3.93c3.17.68,6.53.76,9.75.52s6.57-.66,9.38-2.06c2.02-1.01,3.77-2.98,3.26-5.36-.33-1.53-1.14-3.02-1.9-4.37-.55-.97-1.26-2.4-2.32-2.92-.68-.33-1.22,0-1.87.25-1.63.66-3.23,1.42-4.92,1.92-2.79.83-6.03.74-6.12-2.89-.02-1.06-2,.73-1.98,1.48Z"/>
          <path class="cls-1" d="M211.02,65.86v3.82c0,.15.03.39.24.38,1.87-.03,3.34-1.19,4.37-2.69s1.3-3.12,1.14-4.87c-.08-.97-.35-2.23-1.37-2.62-1.17-.45-2.33.4-3.04,1.26-1.09,1.33-1.33,3.04-1.34,4.71,0,.59.6.34.91.11.43-.33,1.07-.99,1.07-1.59s.03-1.18.11-1.77c.04-.24.06-.36.1-.51.03-.1.06-.2.09-.3.01-.04.03-.08.05-.12.04-.15-.08.19-.02.05.12-.28-.13.16,0,0,.03-.04.11-.15-.03.03-.22.3.15-.15-.11.13-.06.06-.11.12-.17.16.12-.09-.22.13-.09.06.03-.01.16-.08.03-.02-.14.06.35-.06.19-.05.17-.01.35,0,.51.04.2.05.47.25.64.48.21.28.33.7.4,1.06.21,1.03.23,2.21-.14,3.21-.05.12-.01.03,0,0-.04.09-.09.18-.13.27-.07.13.01,0,.02-.03-.05.09-.11.17-.17.25-.09.14.03-.04.04-.05-.06.06-.11.13-.16.19.06-.06.19-.14,0-.01.11-.07.08-.06-.01,0-.1.07-.29.18-.53.26-.28.09-.56.12-.86.13l.24.38v-3.82c0-.59-.6-.34-.91-.11-.43.33-1.07.99-1.07,1.59Z"/>
        </g>
        <path class="cls-1" d="M247.38,23.89v58.47c0,.87-.23,2.09,0,2.94.01.04-.02.1,0,.13-.91-2.07,1.42-.99.5-.89-.18.02-.45.16-.63.21-.81.24-1.66.37-2.5.49-2.85.42-5.88.61-8.75.27-1.08-.13-2.17-.4-2.26-1.67-.02-.33,0-.67,0-.99v-4.66c0-12.02,0-24.04,0-36.05v-14.83c0-1.04-.04-2.09,0-3.14s.69-1.42,1.55-1.94c2.49-1.51,5.57-2.23,8.47-1.84,2.02.27,3.57,1.35,3.63,3.52.03,1.06,2-.73,1.98-1.48-.14-5.38-6.98-4.82-10.62-3.52-2.88,1.04-6.88,3.29-6.99,6.79s0,7,0,10.49v39.13c0,3.33-.07,6.67,0,10,.02,1.03.37,1.8,1.4,2.19.89.33,1.93.35,2.87.39,1.65.06,3.3.02,4.95-.11,2.54-.21,8.18-.38,8.39-4,.2-3.34,0-6.75,0-10.09V22.41c0-1.05-1.98.73-1.98,1.48Z"/>
        <g>
          <path class="cls-1" d="M256.02,85.06c-1.31-.36-2.89-.88-2.94-2.41-.02-.75,0-1.5,0-2.25V29.21c0-.66.14-1.49,0-2.14,0-.02.02-.29,0-.3,0,0-.33.41-.33.42-.02-.03.59-.37.53-.34.39-.22.81-.4,1.23-.56,1.06-.41,2.16-.72,3.27-.95,2.03-.41,4.24-.6,6.3-.25,1.16.19,2.54.66,2.7,2,.08.65-.01,1.35-.03,2l-.1,4.77c-.16,7.64-.32,15.29-.49,22.93v.51c-.01.15.02.38.23.38.94,0,1.22-.41,1.87-1.06.97-.98,2.31-1.7,3.59-2.16,2.35-.84,5.13-.89,7.55-.28,5.37,1.35,6.43,7.3,6.59,12.05s.08,9.88-1.97,14.04-6.81,5.27-11.08,5.68c-5.52.54-11.49.39-16.91-.89-.77-.18-2.32,2.06-1.5,2.25,5.48,1.3,11.53,1.43,17.11.87,4.84-.49,9.47-1.92,12.52-5.95s3.67-9.34,3.81-14.25.16-12.08-4.61-15.02c-5.11-3.15-12.9-1.13-16.4,3.53l1.4-1.06h-.46l.24.38c.15-7.23.31-14.46.46-21.69.06-2.77.22-5.57.18-8.34-.04-2.59-2.79-3.04-4.9-3.1s-4.26.21-6.29.76c-1.73.47-3.62,1.1-4.98,2.32-1.8,1.6-1.49,3.31-1.49,5.45v52.34c0,.52-.07,1.16.1,1.66.45,1.32,2.13,1.78,3.32,2.1.75.2,2.33-2.03,1.5-2.25Z"/>
          <path class="cls-1" d="M266.96,79.91c1.24,0,2.31.18,3.28-.73,1.24-1.17,1.63-2.87,1.84-4.5.36-2.74.34-5.57.22-8.33-.08-1.76-.08-3.87-.9-5.48-.63-1.24-1.71-.98-2.93-.98-.72,0-1.74,1.15-1.74,1.87,0,5.19,0,10.38,0,15.57v2.2c0,1.05,1.98-.73,1.98-1.48v-17.77l-1.74,1.87c1.14,0,2.11-.32,2.6.87.85,2.06.78,4.61.8,6.79.03,2.52.12,5.27-.52,7.74-.05.19-.12.37-.17.55-.05.16-.14.13-.01.07-.09.13-.07.11.06-.07l.33-.32c.07-.05.14-.09.22-.12-.09.02-.09.02-.01,0-.12-.1-.74,0-.9,0h-.9c-.58,0-1.11.62-1.4,1.06-.11.17-.66,1.19-.1,1.19Z"/>
        </g>
        <path class="cls-1" d="M302.28,86.16c-4.05-.04-8.2-1.06-9.93-5.09-1.36-3.16-1.47-6.77-1.47-10.16,0-4.84,0-9.68,0-14.52,0-.08.06-.53,0-.59.11.11-.77.44-.09.35.6-.09,1.37-.59,1.96-.78,2.62-.82,5.47-1.22,8.21-1,1.42.11,3.41.45,3.57,2.18.05.56,0,1.15,0,1.72,0,4.79-.06,9.59,0,14.38.03,1.85-.12,4.14.53,5.91s2.5,1.85,3.84.8c1.74-1.36,1.54-3.13,1.54-5.06,0-5.3,0-10.61,0-15.91,0-.72.13-1.58,0-2.29,0-.03.03-.31,0-.33h0c-.47.52-.57.69-.29.5.14,0,.37-.2.51-.27.7-.33,1.47-.55,2.21-.76,2.58-.7,5.35-1.05,8.02-.88,1.28.08,3.01.34,3.18,1.88.13,1.17,0,2.43,0,3.6v23.88c0,.62-.06,1.27,0,1.89,0,.07-.04.31,0,.37.11.16-2.1,2.94.46-.59.8-1.11.52-.53.05-.48-.31.03-.62.15-.92.21-2.82.51-5.82.56-8.67.54-.89,0-2.06.07-2.9-.31-.47-.22-.46-.42-.53-.88-.17-1.1-.34-2.2-.51-3.31-.03-.11-.11-.18-.23-.19h-.46c-.73,0-1.51.99-1.69,1.63-.37,1.35-.97,2.2-2.27,2.77s-2.7.79-4.14.81c-.84.01-2.18,2.26-1.5,2.25,4.48-.07,8.54-2.32,9.79-6.84l-1.69,1.63c.5,0,.15-.25.26-.02s.1.62.13.87c.12.75.23,1.51.35,2.26.21,1.34,1.37,1.45,2.61,1.54,3,.21,6.13-.03,9.11-.38,1.74-.2,3.74-.54,4.54-2.34.47-1.07.18-2.63.18-3.75v-24.97c0-1.47.23-3.08-1.37-3.83-2.02-.95-4.79-.54-6.92-.29-2.44.29-5.28.77-7.35,2.18s-1.97,2.82-1.97,4.9v16.8c0,.58-.1,1.27,0,1.84.01.07-.03.15,0,.21v.15c.58-.59.54-.79-.1-.6-.2-.06-.4-.02-.59-.12-.93-.47-.97-1.93-1.07-2.83-.27-2.68-.18-5.39-.18-8.08v-9.04c0-1.89.43-4.18-1.7-5.07-2.25-.94-5.1-.61-7.44-.26s-4.98.92-6.85,2.37c-1.96,1.53-1.62,3.4-1.62,5.6v9.15c0,2.55-.06,5.11.18,7.66.37,3.85,1.39,8.17,5.17,10.02,2.02.99,4.29,1.25,6.52,1.27.84,0,2.19-2.25,1.5-2.25Z"/>
        <path class="cls-1" d="M344.94,86.16c-3.12,0-6.26-.12-9.35-.61-1.92-.31-5.14-.74-6.47-2.34-.76-.92.06-3.02.39-3.99.27-.79.58-1.57.96-2.33.12-.25.32-.85.57-1.01.19-.12-.29.06,0,.03.75-.08,1.93.57,2.6.81,1.54.56,3.05,1.17,4.66,1.49,1.96.39,5.02.71,6.58-.86.64-.65,1.3-1.69,1.03-2.64-.33-1.18-1.98-1.54-3.03-1.74-3.1-.61-6.37-.77-9.15-2.47-3.03-1.85-3.48-5.25-3.3-8.49.16-2.78,1.46-5.22,4.02-6.41,2.99-1.39,6.31-1.89,9.58-1.91,2.96-.02,5.96.08,8.89.53,1.39.21,2.82.51,4.1,1.12.54.26,1.18.57,1.55,1.06.55.71.29,1.7.08,2.49-.37,1.42-1.07,2.83-1.91,4.03-.37.52-.2.4-.62.42-.48.02-1.05-.19-1.5-.31-2.5-.64-5.11-1.93-7.75-1.66-1.54.16-4.26,2.02-3.27,3.89.48.9,1.89,1.07,2.78,1.28,1.74.42,3.51.71,5.24,1.19,3.53.99,6.62,2.82,7.49,6.65.52,2.29.36,5.15-.83,7.23-2.42,4.22-9.1,4.53-13.32,4.55-.84,0-2.18,2.26-1.5,2.25,4.99-.02,10.51-.71,14.26-4.34,3.37-3.27,4.84-9.02,2.74-13.37-1.55-3.21-4.52-4.5-7.79-5.36-1.58-.41-3.19-.68-4.77-1.07-.67-.16-1.62-.26-2.14-.75l-.18-.17c-.14-.46-.34-.35-.61.35,0,0,1.22-.13,1.38-.13,2.87.12,5.45,1.8,8.29,2,2.37.17,4.06-3.39,4.9-5.12.64-1.33,1.18-2.76,1.33-4.23.15-1.57-.65-2.38-2.03-3.04-2.76-1.32-6.02-1.53-9.03-1.67-6.03-.29-13.86-.25-18.24,4.66-1.96,2.19-3.03,5.08-3.13,8-.1,3.23.53,6.62,3.51,8.45,1.34.83,2.98,1.32,4.49,1.72,1.76.46,3.57.54,5.33.95.81.19,1.34.53,2.03.93l.18.35c.77-.49.97-.67.59-.56-.08-.03-.61.11-.67.12-1.55.18-3.12.07-4.63-.29-1.85-.44-3.59-1.23-5.39-1.82-.95-.31-1.64-.54-2.53.06-1.26.85-2.05,2.34-2.68,3.68-.8,1.72-1.47,3.56-1.69,5.45-.19,1.66.35,2.36,1.86,3.1,1.17.57,2.45.92,3.71,1.2,3.58.77,7.28.9,10.93.91.84,0,2.19-2.25,1.5-2.25Z"/>
        <path class="cls-1" d="M25.45,104.45c-3.94.59-7.91.85-11.89.86-2.52,0-5.6.22-8.01-.69-1.79-.68-1.77-2.01-1.77-3.53V9.61c0-.19-.01-.39,0-.58.05-.96.5-1.5,1.24-2.1,1.47-1.18,3.27-2.04,5.02-2.73,3.3-1.31,6.84-1.95,10.39-1.95,2.53,0,5.54.21,7.56,1.93,1.67,1.42,1.7,3.39,1.7,5.38v7.42c0,13.56,0,27.13,0,40.69v.9c0,.15.03.38.24.38h1.34c.81,0,1.63-1.14,1.74-1.87,1.1-6.82,2.23-13.64,3.68-20.39.44-2.04.91-4.07,1.49-6.07.2-.68.41-1.36.66-2.03.12-.33.41-.93.47-1.06-.08.17.02-.05.07-.09-.07.07-.1.16-.25.29-.06.06-.34.29-.3.23-.08.12-.36,0-.06.07.69.14,1.49.05,2.19.13.79.08,1.57.21,2.35.36,3.88.75,7.72,2.12,11.26,3.86,2.38,1.17,5.34,2.81,6.38,5.42.77,1.92.03,4.07-.59,5.93-1.29,3.93-3.02,7.74-4.86,11.44s-3.87,7.26-6.35,10.53c-.27.36-.76.97-.47,1.43,3.64,5.7,7.25,11.44,10.51,17.37,1.55,2.82,3.55,6,4.11,9.23.25,1.47-.66,2.76-1.69,3.82-2.48,2.55-5.68,4.44-8.73,6.21-2.55,1.48-5.2,2.97-8.03,3.82-.74.22-1.72.56-2.51.42-.94-.17-1.59-1.3-2.01-2.06-1.55-2.82-2.4-6.09-3.22-9.18-1.06-3.98-1.94-8.01-2.76-12.05-.16-.77-1.52.7-1.63.87-.84,1.31-1.69,2.61-2.52,3.93-.58.92-.5,1.61-.5,2.66v10.84c0,.18-.08.58,0,.74.25.52.31-.79.55-.57,0,0-1.6.62-1.73.66-1,.27-2.02.45-3.05.61-.73.11-2.17,2.37-1.12,2.21,2.44-.38,5.98-.83,7.12-3.45.47-1.07.21-2.56.21-3.69v-10.44l-.34.8c.9-1.4,1.79-2.79,2.69-4.19l-1.63.87c.8,3.92,1.64,7.84,2.67,11.7.81,3.06,1.65,6.23,3.08,9.07.48.96,1.1,2.19,2.11,2.7.72.36,1.61.18,2.37.02,2.79-.56,5.46-1.99,7.94-3.35,3.47-1.91,6.94-3.99,9.95-6.57,1.91-1.63,3.96-3.68,4.65-6.17.81-2.92-1.36-6.33-2.63-8.79-3.59-6.96-7.82-13.6-12.04-20.2l-.47,1.43c4.93-6.49,8.62-13.99,11.49-21.6.85-2.24,1.93-4.88,1.76-7.33-.19-2.77-2.56-4.74-4.76-6.08-3.5-2.15-7.62-3.64-11.59-4.66-1.79-.46-3.63-.8-5.48-.92-.86-.05-1.57-.16-2.28.34-1.06.76-1.65,2.06-2.1,3.24-.66,1.7-1.1,3.48-1.53,5.25-1.91,7.88-3.2,15.91-4.48,23.91l1.74-1.87h-1.34l.24.38v-13.31c0-8.18,0-16.35,0-24.53v-9.31c0-1.38.09-2.8-.04-4.18C31.07,0,23.87-.25,19.49.1c-3.52.28-6.94,1.17-10.15,2.67-2.64,1.23-5.52,2.93-6.93,5.59-.64,1.22-.62,2.31-.62,3.61v49.24c0,7.95,0,15.9,0,23.85,0,5.3,0,10.6,0,15.89,0,.97-.02,1.94,0,2.91.04,1.63.96,2.63,2.5,3.09,2.73.82,5.91.63,8.72.6,3.79-.04,7.56-.34,11.31-.89.73-.11,2.18-2.37,1.12-2.21Z"/>
      </g>
      <g>
        <path class="cls-3" d="M156.99,34.69c-2.86,0-5.4.49-7.64,1.47-1.51.66-2.79,1.52-3.85,2.61-1.06,1.08-1.97,2.65-2.72,4.69-.75,2.05-1.13,4.44-1.13,7.18v17.5c-1.81,1.46-3.42,2.98-4.69,4.51-2.04,2.2-4.49,5.52-5.12,7.33-.6,1.66.49,3.43,1.05,4.91.92,1.81.4.94,1.52,2.5.47.67,2.33.4,2.91-.2,0,0,1.61-2.19,4.34-5.05v19.25c0,.98,1.54,1.47,4.63,1.47s5.69-.13,7.81-.4c2.12-.27,3.18-.62,3.18-1.07v-30.75c2.98-1.39,5.66-2.28,7.72-2.82v-8.14c0-.26.02-.51.03-.77-2.32-.22-5,.17-7.8.97l-.24-10.6c0-1.64,1.12-2.46,3.36-2.46.85,0,1.75.13,2.69.4.95.27,1.59.4,1.94.4.85,0,1.52-.86,2.03-2.58.5-1.72.75-3.93.75-6.63,0-2.5-3.59-3.74-10.77-3.74Z"/>
        <path class="cls-2" d="M183.69,55.89c.85,0,1.75.13,2.69.4.95.27,1.59.4,1.94.4.85,0,1.52-.86,2.03-2.58.5-1.72.75-3.93.75-6.63,0-2.5-3.59-3.74-10.77-3.74-2.86,0-5.4.49-7.64,1.47-1.51.66-2.79,1.52-3.85,2.61-1.06,1.08-1.97,2.65-2.72,4.69-.75,2.05-1.13,4.44-1.13,7.18v24.62c-6.78,3.24-12.03,3.74-12.03,3.74-1.53.87-1.6,2.66-.23,5.37.16.39.35.7.54.97.58.93.94.99,1.76,1.26,2.75.79,6.26.42,9.95-.68v15.48c0,.98,1.54,1.47,4.63,1.47s5.69-.13,7.81-.4c2.12-.27,3.18-.62,3.18-1.07v-24.01c1.54-1.29,2.92-2.62,4.03-3.96,2.01-2.17,4.42-5.43,5.04-7.21.59-1.63-.48-3.37-1.03-4.84-.9-1.78-.4-.93-1.49-2.46-.47-.65-1.95-.9-2.52-.31,0,0-1.52,2.07-4.03,4.79v-1.1l-.29-13.01c0-1.64,1.12-2.46,3.36-2.46Z"/>
        <path class="cls-3" d="M88.66,70.37v17.83c0,.43-1.1.76-3.3,1.01-2.2.25-4.47.38-6.8.38s-3.84-.11-4.52-.32c-.68-.21-1.01-.57-1.01-1.07v-18.41c0-1.74-.07-2.87-.2-3.42-.14-.54-.26-1.02-.38-1.45-.27-.73-.75-1.1-1.45-1.1-1.08,0-1.62.52-1.62,1.56v22.81c0,.43-1.09.76-3.27,1.01-2.18.25-4.44.38-6.77.38s-3.85-.11-4.54-.32c-.69-.21-1.04-.57-1.04-1.07v-28.54c0-.81,1.11-1.62,3.33-2.43,2.22-.81,4.56-1.22,7.03-1.22s3.86.71,4.17,2.14l.52,2.55h.41c1.12-2.24,3.05-3.8,5.79-4.69,1.12-.35,2.35-.52,3.7-.52,3.9,0,6.53,1.17,7.9,3.5,1.37,2.34,2.06,6.13,2.06,11.37Z"/>
        <path class="cls-3" d="M104.11,90.11c-4.32,0-7.34-1.12-9.06-3.36-1.72-2.24-2.58-6.14-2.58-11.69v-15.74c0-.77,1.14-1.51,3.42-2.23,2.28-.71,4.67-1.07,7.18-1.07,3.36,0,5.04.87,5.04,2.61v14.7c0,2.93.12,5.06.35,6.4.23,1.33.81,2,1.74,2,1.23,0,1.85-.52,1.85-1.56v-20.84c0-.81,1.2-1.56,3.59-2.26,2.39-.69,5-1.04,7.81-1.04s4.23.75,4.23,2.26v29.81c0,.54-1.22.93-3.65,1.16-2.43.23-4.82.35-7.18.35s-3.55-.31-3.59-.93l-.58-3.76h-.46c-.35,1.39-1.04,2.53-2.08,3.42-.54.46-1.34.88-2.4,1.24-1.06.37-2.27.55-3.62.55Z"/>
        <path class="cls-3" d="M209.33,76.36c0,2.51,1.2,3.76,3.59,3.76,1.39,0,3.2-.47,5.44-1.42,2.24-.95,3.42-1.42,3.53-1.42.73,0,1.7,1.1,2.89,3.3,1.2,2.2,1.79,3.82,1.79,4.86,0,1.5-1.54,2.64-4.63,3.42-3.09.77-6.11,1.16-9.06,1.16s-5.42-.23-7.41-.69c-1.99-.46-3.61-1.05-4.86-1.77-1.25-.71-2.35-1.59-3.3-2.63-.95-1.04-1.65-2.03-2.11-2.98-.46-.95-.83-2-1.1-3.15-.39-1.7-.58-3.45-.58-5.27,0-7.02,1.83-11.87,5.5-14.53,1.81-1.35,3.84-2.3,6.08-2.84,2.24-.54,4.88-.81,7.93-.81,9.76,0,14.65,3.4,14.65,10.19,0,7.22-5.48,10.82-16.44,10.82h-1.91ZM209.22,67.91v3.82c1.12,0,2.03-.44,2.75-1.33.71-.89,1.07-1.97,1.07-3.24,0-2.32-.6-3.47-1.79-3.47-1.35,0-2.03,1.41-2.03,4.23Z"/>
        <path class="cls-3" d="M245.58,25.94v61.54c0,.64-1.1,1.14-3.3,1.52-2.2.38-4.47.56-6.8.56s-3.84-.16-4.52-.48c-.68-.32-1.01-.85-1.01-1.6V27.5c0-1.27,1.09-2.51,3.27-3.73,2.18-1.21,4.52-1.82,7.03-1.82,3.55,0,5.33,1.33,5.33,3.99Z"/>
        <path class="cls-2" d="M252.48,88.98c-2.12-.54-3.18-1.35-3.18-2.43V30.3c0-.85,1.14-1.68,3.42-2.49,2.28-.81,4.67-1.22,7.18-1.22,3.4,0,5.09.89,5.09,2.66l-.64,30.09h.46c.23-.35.67-.77,1.3-1.27.64-.5,1.3-.93,2-1.27,1.7-.89,3.57-1.33,5.61-1.33s3.66.26,4.83.78c1.18.52,2.12,1.2,2.84,2.03.71.83,1.28,1.88,1.71,3.15.73,2.2,1.1,4.94,1.1,8.22,0,5.44-.62,9.61-1.85,12.5-1.24,2.89-3.24,4.94-6.02,6.14-2.78,1.2-6.7,1.79-11.75,1.79s-9.09-.37-12.1-1.1ZM264.92,81.57h1.79c1.23,0,1.85-2.96,1.85-8.89s-.64-8.89-1.91-8.89h-1.74v17.77Z"/>
        <path class="cls-2" d="M298.74,90.08c-4.32,0-7.34-1.12-9.06-3.36-1.72-2.24-2.58-6.14-2.58-11.69v-15.74c0-.77,1.14-1.51,3.42-2.23,2.28-.71,4.67-1.07,7.18-1.07,3.36,0,5.04.87,5.04,2.61v14.7c0,2.93.12,5.06.35,6.4.23,1.33.81,2,1.74,2,1.23,0,1.85-.52,1.85-1.56v-20.84c0-.81,1.2-1.56,3.59-2.26,2.39-.69,5-1.04,7.81-1.04s4.23.75,4.23,2.26v29.81c0,.54-1.22.93-3.65,1.16-2.43.23-4.82.35-7.18.35s-3.55-.31-3.59-.93l-.58-3.76h-.46c-.35,1.39-1.04,2.53-2.08,3.42-.54.46-1.34.88-2.4,1.24-1.06.37-2.27.55-3.62.55Z"/>
        <path class="cls-2" d="M341.4,90.08c-6.41,0-11.1-.62-14.07-1.85-1.5-.66-2.26-1.29-2.26-1.91,0-1.58.46-3.43,1.39-5.56.93-2.12,1.74-3.18,2.43-3.18.39,0,1.69.42,3.91,1.27,2.22.85,4.09,1.27,5.61,1.27s2.53-.1,3.01-.29c.48-.19.72-.57.72-1.13s-.39-1-1.16-1.33c-.77-.33-1.74-.55-2.89-.67-1.16-.12-2.4-.35-3.73-.69s-2.58-.79-3.73-1.33c-1.16-.54-2.12-1.44-2.89-2.69-.77-1.25-1.16-2.6-1.16-4.05s.04-2.53.12-3.24c.08-.71.4-1.72.95-3.01.56-1.29,1.35-2.34,2.37-3.15,1.02-.81,2.6-1.54,4.75-2.2,2.14-.66,4.54-.98,7.21-.98s4.89.09,6.69.26c1.79.17,3.2.4,4.23.67,1.02.27,1.86.58,2.52.93,1.12.58,1.68,1.22,1.68,1.91,0,1.5-.54,3.24-1.62,5.21-1.08,1.97-1.94,2.95-2.58,2.95s-2.02-.34-4.14-1.01c-2.12-.67-3.69-1.01-4.69-1.01-1.62,0-2.43.46-2.43,1.39,0,.58.55,1.01,1.65,1.3s2.42.59,3.97.9c1.54.31,3.1.74,4.66,1.3,1.56.56,2.89,1.57,3.99,3.04,1.1,1.47,1.65,3.32,1.65,5.56,0,7.56-5.38,11.35-16.15,11.35Z"/>
        <path class="cls-2" d="M22.1,108.35c-3.86.59-7.88.88-12.08.88s-6.92-.25-8.16-.74c-1.24-.49-1.86-1.33-1.86-2.5V12.56c0-1.98,1.94-3.92,5.84-5.81,3.89-1.89,8.07-2.84,12.55-2.84,6.33,0,9.5,2.07,9.5,6.21v50.49h1.34c3.3-20.61,5.75-30.92,7.33-30.92,3.99,0,8.81,1.21,14.46,3.64,5.65,2.43,8.47,5.13,8.47,8.1,0,2.16-1.38,6.3-4.13,12.42-2.75,6.12-5.61,11.12-8.57,14.99,9.84,15.39,14.77,24.53,14.77,27.41,0,2.7-3.13,5.99-9.4,9.85-6.27,3.87-10.67,5.81-13.22,5.81-1.24,0-2.55-1.96-3.92-5.87-1.38-3.91-2.86-9.79-4.44-17.62l-2.69,4.19v13.37c0,.99-1.93,1.78-5.78,2.36Z"/>
      </g>
    </g>
  </g>
</svg>